<svg width="226" height="64" viewBox="0 0 226 64" fill="none" xmlns="http://www.w3.org/2000/svg">
<path d="M22.6663 29.2616C22.9078 38.4547 28.9324 46.1063 37.1523 48.7918L37.3157 48.8699H37.3938L37.5572 48.7918C45.8553 46.1063 51.8799 38.4547 52.1214 29.2616V14.8608H37.3938H22.6663V29.2616ZM23.3199 15.5925H37.3938H51.3897V28.8566V29.0982C51.3115 37.9645 45.4503 45.4527 37.3938 48.1382H37.3157C29.3445 45.4527 23.4833 37.9645 23.4051 29.0982V28.8566H23.327V15.5925H23.3199Z" fill="white"/>
<path d="M39.0211 14.2072C38.8577 14.2072 38.6943 13.8804 38.6943 13.5536C38.6943 13.2268 38.7724 12.9852 38.9358 12.8218C39.0992 12.5803 39.2626 12.495 39.5894 12.4168C39.6676 12.3387 39.6676 12.3387 39.5894 12.2534C39.2626 12.3316 38.9358 12.495 38.6943 12.6584C38.4527 12.9 38.2893 13.2268 38.2893 13.5536C38.2893 14.0438 38.5309 14.3706 39.0211 14.3706C39.426 14.3706 39.6747 14.129 39.6747 13.717C39.6747 13.3902 39.5113 13.1486 39.1845 13.1486C39.0211 13.1486 38.9429 13.2268 38.8577 13.312C38.9358 13.312 38.9358 13.312 38.9358 13.312C39.1774 13.312 39.2626 13.717 39.2626 13.8804C39.2626 14.0438 39.2626 14.2072 39.0211 14.2072Z" fill="white"/>
<path d="M35.8453 14.2072C35.6038 14.2072 35.5185 13.8804 35.5185 13.5536C35.5185 13.2268 35.5967 12.9852 35.7601 12.8218C35.9235 12.5803 36.0869 12.495 36.4137 12.4168C36.4137 12.3387 36.4137 12.3387 36.4137 12.2534C36.0869 12.3316 35.6819 12.495 35.4333 12.6584C35.1917 12.9 35.1064 13.2268 35.1064 13.5536C35.1064 14.0438 35.348 14.3706 35.7601 14.3706C36.165 14.3706 36.4918 14.129 36.4918 13.717C36.4918 13.3902 36.2503 13.1486 35.9235 13.1486C35.8453 13.1486 35.6819 13.2268 35.5967 13.312C35.5967 13.312 35.5967 13.312 35.6748 13.312C35.6748 13.312 35.6748 13.312 35.753 13.312C35.9945 13.312 36.0798 13.717 36.0798 13.8804C36.094 14.0438 36.0087 14.2072 35.8453 14.2072Z" fill="white"/>
<path d="M33.0035 13.9656V12.8289C33.0035 12.6655 33.0035 12.5021 33.0035 12.424H32.9253C32.9253 12.424 32.8472 12.5021 32.6838 12.5021C32.5985 12.5802 32.4422 12.5802 32.2788 12.5802C32.2788 12.5802 32.2788 12.6655 32.357 12.6655L32.4351 12.7436C32.5985 12.7436 32.5985 12.7437 32.5985 12.9852V13.9585C32.5985 14.2001 32.5985 14.2001 32.4351 14.2001H32.2717C32.2717 14.2001 32.2717 14.2782 32.3499 14.2782C32.428 14.2782 32.5914 14.2782 32.7548 14.2782C32.9964 14.2782 33.1598 14.2782 33.245 14.2782V14.2072H33.1669C33.0035 14.2072 33.0035 14.2072 33.0035 13.9656Z" fill="white"/>
<path d="M41.6208 14.2072H41.5427C41.4574 14.2072 41.4574 14.2853 41.5427 14.2853C41.6208 14.2853 41.7843 14.2853 42.0329 14.2853C42.1963 14.2853 42.3597 14.2853 42.4379 14.2853C42.516 14.2853 42.516 14.2072 42.4379 14.2072H42.3526C42.1892 14.2072 42.1892 14.2072 42.1892 13.9656V12.8289C42.1892 12.6655 42.1892 12.5021 42.1892 12.424C42.1892 12.424 42.1892 12.424 42.1111 12.424C42.1111 12.424 42.0329 12.5021 41.8695 12.5021C41.7914 12.5802 41.628 12.5802 41.5427 12.5802C41.4574 12.5802 41.4574 12.6655 41.5427 12.6655L41.6208 12.7436C41.7843 12.7436 41.7843 12.7437 41.7843 12.9852V13.9585C41.7843 14.2072 41.7843 14.2072 41.6208 14.2072Z" fill="white"/>
<path d="M38.1253 8.02627V8.59463C38.3668 8.67278 38.4521 8.75803 38.4521 8.92144C38.4521 9.16299 38.2105 9.16299 38.0471 9.24824C37.969 9.08484 37.8056 8.92143 37.7203 8.67988C37.6422 8.43833 37.5569 8.18967 37.5569 7.94812C37.5569 7.62132 37.6422 7.21636 37.6422 6.88956C37.6422 6.72615 37.6422 6.3212 37.4006 6.07254C37.2372 6.31409 37.2372 6.72615 37.2372 6.88956C37.2372 7.21636 37.3225 7.62132 37.3225 7.94812C37.3225 8.18967 37.2372 8.43833 37.0809 8.67988C36.9957 8.92143 36.8394 9.08484 36.7541 9.24824C36.5907 9.17009 36.4273 9.17009 36.4273 8.92144C36.4273 8.75803 36.4273 8.67989 36.6688 8.59463V8.02627C36.6688 7.62132 36.5907 6.96771 36.2639 6.6409C36.1005 6.4775 35.9371 6.39935 35.7737 6.39935V10.0582H36.2639H36.6688C36.7541 10.2997 36.9175 10.5484 37.0738 10.7899C37.152 10.8681 37.3154 10.9533 37.4006 10.9533C37.564 10.9533 37.6422 10.8752 37.7274 10.7899C37.969 10.5484 38.0542 10.2997 38.1324 10.0582H38.6226H39.0275V6.39935C38.8641 6.39935 38.7007 6.4775 38.6226 6.6409C38.2887 6.96771 38.1253 7.61421 38.1253 8.02627ZM36.0081 6.8043C36.0863 6.8043 36.1715 6.9677 36.2497 7.13111C36.3278 7.37266 36.4131 7.78472 36.4131 8.11153V8.43833C36.3278 8.51648 36.2497 8.60173 36.2497 8.67988C36.1715 8.67988 36.1715 8.75803 36.1715 8.84329H36.0081V6.8043ZM36.6617 9.8166H36.2568H36.0152V9.08484H36.1786C36.1786 9.08484 36.1786 9.17009 36.2568 9.24824C36.3349 9.3335 36.4983 9.41165 36.6617 9.4898C36.6617 9.56795 36.6617 9.73135 36.6617 9.8166ZM37.3082 10.4631L37.223 10.5413C37.1448 10.4631 37.1448 10.4631 37.0596 10.3779C36.9743 10.2997 36.9743 10.2144 36.9743 10.051H37.0596H37.3011V10.4631H37.3082ZM37.3082 9.8166H37.0667H36.9033C36.9033 9.73845 36.9033 9.57505 36.9814 9.4898L37.0667 9.56794C37.1448 9.56794 37.2301 9.64609 37.3082 9.64609V9.8166ZM37.0667 9.32639C37.0667 9.24114 37.0667 9.24114 37.0667 9.16299C37.1448 8.99958 37.3083 8.83618 37.3935 8.67278H37.4788C37.4788 8.83618 37.6422 8.99958 37.7203 9.16299C37.7203 9.24114 37.7985 9.24114 37.7985 9.32639H37.7203C37.6422 9.32639 37.4788 9.40454 37.3935 9.4898C37.3083 9.40454 37.2301 9.32639 37.0667 9.32639ZM37.7203 10.385C37.7203 10.4631 37.6422 10.4631 37.6422 10.5484L37.5569 10.4702V10.0653H37.7203H37.8837C37.7985 10.2216 37.7985 10.2997 37.7203 10.385ZM37.8837 9.8166H37.7203H37.5569V9.6532C37.5569 9.6532 37.6422 9.57505 37.7203 9.57505C37.7985 9.57505 37.7985 9.4969 37.8837 9.4969C37.8837 9.56794 37.8837 9.73135 37.8837 9.8166ZM38.7789 9.8166H38.6155H38.2105C38.2105 9.73845 38.1253 9.57505 38.1253 9.4898C38.2887 9.41165 38.4521 9.32639 38.6155 9.24824C38.6155 9.17009 38.6155 9.08484 38.6936 9.08484H38.7718V9.8166H38.7789ZM38.7789 8.83618H38.7007C38.6226 8.75803 38.6226 8.67278 38.6226 8.67278C38.5444 8.50938 38.4592 8.50938 38.381 8.43123V8.10442C38.381 7.77762 38.4592 7.37266 38.6226 7.12401C38.7007 6.9606 38.7007 6.7972 38.786 6.7972V8.83618H38.7789Z" fill="white"/>
<path d="M39.7528 5.58234H38.6161H37.7209H37.3941H37.0673H36.2503H35.0283V9.9729C35.0283 10.2997 35.1917 10.6265 35.4333 10.8681C35.6748 11.0315 35.9235 11.1949 36.2503 11.3583C36.4918 11.5217 36.8186 11.6851 37.0673 11.8485C37.2307 11.8485 37.3089 11.9337 37.3941 12.0119L37.7209 11.8485C38.0477 11.6851 38.2893 11.5217 38.6161 11.3583C38.8576 11.1949 39.1063 11.0315 39.3478 10.8681C39.5894 10.6265 39.7528 10.3779 39.7528 9.9729V5.58234ZM39.426 9.98C39.426 10.3068 39.3478 10.4702 39.1844 10.5484C39.021 10.7118 38.8576 10.7899 38.6161 10.9533C38.2893 11.1167 37.9625 11.3583 37.7209 11.4435C37.6428 11.5217 37.4794 11.6069 37.3941 11.6069C37.316 11.6069 37.2307 11.5288 37.0673 11.4435C36.8258 11.2801 36.4989 11.1167 36.2503 10.9533C36.0087 10.7899 35.7601 10.7118 35.5967 10.5484C35.4333 10.4702 35.3551 10.2216 35.3551 9.98V5.90914H36.2503H37.0673H37.3941H37.7209H38.6161H39.426V9.98Z" fill="white"/>
<path d="M36.8253 50.3334C36.9105 50.7384 37.1521 51.0652 37.3936 51.3138C37.6352 51.0723 37.8838 50.7455 37.962 50.3334C38.1254 49.6017 36.6619 49.6017 36.8253 50.3334Z" fill="white"/>
<path d="M19.1639 26.7395C19.242 27.3078 19.242 27.8762 19.1639 28.4516C19.1639 28.7784 19.0857 29.1834 19.0005 29.5883C19.0786 29.5883 19.0786 29.5883 19.1639 29.5883C19.5688 29.5102 19.8956 29.1834 20.059 28.9347C20.464 28.3664 20.059 27.798 20.3859 27.3078C20.6274 27.4712 20.6274 27.7128 20.7127 27.9614C21.1176 27.3931 20.9542 26.9029 20.6345 26.4127C20.3077 25.8443 20.0662 25.0273 20.3077 24.4589C20.3077 24.4589 20.4711 25.5175 20.7979 26.0858C21.0395 26.3274 21.3663 26.7395 21.6931 26.9029C22.0199 25.6027 20.8761 25.1907 21.0395 24.3808C21.281 24.6223 21.5297 24.7076 21.6931 24.7857C21.6149 23.5638 20.9613 23.4003 20.5564 22.6686C20.6416 22.6686 21.1247 22.7538 21.3663 23.0735C21.4515 22.6686 21.2029 22.3418 21.0395 22.1784C21.2029 22.1784 21.6078 22.3418 21.8565 22.6686C22.098 22.015 21.9346 21.5319 21.7712 21.2832C21.5297 20.793 20.9613 20.6296 20.7979 20.0612C20.9613 20.0612 21.1247 19.976 21.3663 20.0612C21.2881 19.6563 20.9613 19.4076 20.6345 19.2442C20.1443 19.0027 19.5759 18.8393 19.171 18.4343C19.171 18.4343 19.0928 18.3491 19.0928 18.2709C18.8513 17.9441 18.8513 17.5392 19.171 17.4539H19.2491C19.5759 17.3829 19.5759 17.8731 19.7393 18.1146C19.9027 18.4414 20.2296 18.5196 20.6345 18.5196C20.4711 18.1928 20.3077 18.0294 20.393 17.6244C20.7979 17.7026 20.8832 18.5196 21.8565 18.3562C21.9346 17.056 20.5564 17.3758 20.6345 16.4877C20.8761 16.4877 21.0395 16.5729 21.4444 16.8145C21.6078 15.7559 20.7127 15.8412 20.6345 15.4291C20.8761 15.4291 21.4444 15.4291 21.8565 15.1876C21.5297 15.1094 21.0395 14.8608 20.7979 14.534C21.3663 14.4558 21.7712 14.3706 22.0199 13.9656C21.0466 13.8875 20.2296 13.0704 20.1514 12.2605C19.988 11.2872 20.1514 10.7118 20.6416 10.0652C21.3734 9.33348 22.5101 9.00668 23.4905 9.57503C24.1441 9.90184 24.4638 10.5483 24.3075 11.202C24.1441 11.9337 23.4124 12.3387 22.7587 12.3387C21.3734 12.1753 21.7783 10.3849 22.5172 10.5483C22.027 10.9533 22.2756 11.8485 23.0856 11.8485C23.6539 11.7703 23.9026 11.1949 23.8173 10.7117C23.6397 10.0581 23.0713 9.73133 22.503 9.73133C21.6078 9.73133 21.0395 10.5412 21.0395 11.3583C21.0395 12.3316 21.8565 12.9852 22.7516 13.0633C24.0518 13.2267 25.0322 12.09 25.1103 10.9462C25.1103 9.39742 23.5616 8.42411 22.098 8.50936C20.9613 8.50936 19.9809 8.83617 19.171 9.40453C17.3025 10.7046 16.2439 13.1486 16.1587 15.5854V16.4024C16.1587 17.2195 16.3221 17.9512 16.5636 18.683C17.537 21.5319 18.9223 23.9687 19.1639 26.7395ZM19.1639 10.2997C19.4054 10.0581 19.7322 9.89474 19.9809 9.80948C19.6541 10.1363 19.4125 10.4631 19.1639 10.868C18.7589 11.5998 18.5955 12.5731 18.6737 13.5535C18.6737 14.3706 18.9152 15.1023 19.1639 15.6707C19.4907 16.3243 19.8956 16.8074 20.1372 16.9708C19.8104 16.9708 19.4836 16.7292 19.1639 16.4024C18.6737 15.7488 18.2687 14.6903 18.1906 13.4754C18.1124 12.3387 18.5174 11.0315 19.1639 10.2997ZM17.132 15.2657C17.2102 14.6974 17.2954 13.9656 17.6222 13.8022C17.537 14.2924 17.4588 14.7826 17.4588 15.2657C17.3807 16.0756 17.4588 16.8926 17.7004 17.6244C17.9419 18.5977 18.5174 19.2513 19.1639 19.8197C19.4054 19.9831 19.5688 20.1465 19.8175 20.3099C20.3077 20.6367 20.9542 20.9635 21.0395 21.61C20.6345 21.2051 20.0662 20.8783 19.5759 20.5515C19.4978 20.4733 19.3344 20.3881 19.171 20.3099C18.354 19.6563 17.7075 19.0098 17.3807 17.9512C17.0539 17.0561 16.9686 16.1609 17.132 15.2657Z" fill="white"/>
<path d="M55.2118 39.5133C56.2703 36.6644 54.9702 35.5277 55.6167 34.1423C54.3948 34.4691 54.5582 36.0961 54.5582 36.4229C54.2313 36.3447 53.9898 35.9327 53.8264 35.6911C53.1728 36.5863 54.48 37.6448 54.3948 38.4548C54.3948 39.1084 53.4143 39.2718 53.5777 38.3766C53.663 38.0498 53.7411 37.6448 53.663 37.3962C53.5777 37.5596 53.3362 37.8011 53.1728 37.8864C53.0946 37.5596 53.2509 37.0765 52.9312 36.6715C52.8531 36.9983 52.6044 37.2399 52.441 37.318C52.5192 36.8278 52.3629 36.4229 51.8727 36.3447C52.1142 36.9131 51.8727 37.4814 51.7093 38.0498C51.4677 39.2718 51.8727 39.5986 52.0361 40.4085C52.1142 41.3818 50.9775 41.3818 51.0556 40.4085C51.0556 40.0035 51.3824 39.5915 51.1338 39.1084C50.9704 39.3499 50.807 39.3499 50.6436 39.5986C50.6436 39.357 50.4802 39.0302 50.3168 38.8668C49.99 39.357 50.1534 40.1669 50.2386 40.6571C50.0752 40.4937 49.8337 40.4156 49.585 40.4156C49.99 40.8205 50.3949 41.6376 50.3168 42.5327C50.1534 43.506 49.4998 43.9181 48.768 44.0815C49.4998 43.5131 49.6632 43.1082 49.585 42.5327C49.4216 42.7743 49.2582 43.0229 48.9314 43.1863C49.3364 42.4546 49.2582 42.0496 49.0948 41.801C48.768 42.618 47.7094 43.1011 47.2263 43.7547C46.4093 44.5646 46.3312 45.3816 45.7628 46.1134C44.7824 47.2501 43.5675 47.7403 42.6724 49.7722C42.1822 49.6088 41.6138 49.2038 41.287 48.9623C41.1236 49.4525 40.9602 50.099 40.4771 50.5892C40.0721 50.4258 39.4185 50.0208 39.2551 49.7722C38.9283 50.7455 38.2747 51.8041 37.3866 52.0527C36.4915 51.8112 35.7597 50.7526 35.5182 49.7722C35.3547 50.0137 34.7011 50.4258 34.218 50.5892C33.8131 50.099 33.6497 49.4525 33.401 48.9623C33.1595 49.2038 32.584 49.6159 32.1009 49.7722C31.2057 47.7403 29.9056 47.2501 29.0105 46.1134C28.3568 45.3816 28.2787 44.5646 27.5469 43.7547C27.0567 43.1011 25.9982 42.618 25.6785 41.801C25.515 42.0425 25.4369 42.4546 25.8419 43.1863C25.4369 43.0229 25.3516 42.7814 25.1882 42.5327C25.103 43.1011 25.2664 43.506 25.9982 44.0815C25.1882 43.9181 24.6128 43.5131 24.4494 42.5327C24.3712 41.6376 24.7762 40.8276 25.1811 40.4156C24.9325 40.4156 24.6909 40.4937 24.5275 40.6571C24.6057 40.1669 24.7691 39.357 24.3641 38.8668C24.286 39.0302 24.1226 39.357 24.1226 39.5986C23.881 39.357 23.7176 39.357 23.6324 39.1084C23.3908 39.5986 23.6324 40.0035 23.7105 40.4085C23.7887 41.3818 22.5738 41.3818 22.7372 40.4085C22.9006 39.5915 23.3056 39.2718 23.064 38.0498C22.9006 37.4814 22.659 36.9131 22.9006 36.3447C22.4104 36.4229 22.247 36.8349 22.3322 37.318C22.0907 37.2399 21.9273 36.9912 21.842 36.6715C21.4371 37.0765 21.6005 37.5667 21.6005 37.8864C21.4371 37.8082 21.1955 37.5596 21.1103 37.3962C20.9469 37.6377 21.1103 38.0498 21.1103 38.3766C21.3518 39.2718 20.3785 39.1084 20.2933 38.4548C20.2933 37.6448 21.5152 36.5863 20.8616 35.6911C20.7764 35.9327 20.5348 36.3447 20.208 36.4229C20.1299 36.0961 20.3714 34.4691 19.1494 34.1423C19.8031 35.5277 18.4958 36.6644 19.5544 39.5133C20.0446 40.8134 20.6911 41.6305 21.6715 42.4404C21.3447 41.3036 21.43 39.4281 22.0765 38.5329C21.7497 39.5915 21.7497 41.6233 22.2399 43.094C22.7301 43.5842 23.2985 44.0673 23.8668 44.3941C23.3766 43.5842 23.2985 41.872 23.945 41.3036C23.6182 42.4404 23.945 43.7405 24.6767 44.8843C26.872 46.2697 30.7795 47.243 31.6746 50.7384C32.1648 50.575 32.655 50.2482 33.06 50.0066C33.3087 50.4968 33.5502 50.9018 33.9552 51.4702C34.4454 51.3068 34.8503 51.0652 35.1771 50.8165C35.5821 51.8751 36.5625 52.5287 37.3724 52.8484C38.1894 52.5216 39.1627 51.8751 39.4896 50.8165C39.8164 51.0581 40.3066 51.3068 40.7897 51.4702C41.1946 50.9018 41.4433 50.4968 41.6848 50.0066C42.0116 50.2482 42.58 50.575 43.0702 50.7384C43.9654 47.243 47.7876 46.2626 49.99 44.8843C50.807 43.7476 51.1267 42.4404 50.807 41.3036C51.4606 41.872 51.3753 43.5842 50.8851 44.3941C51.4535 44.0673 52.0219 43.5842 52.5121 43.094C53.0023 41.6305 52.917 39.5915 52.6755 38.5329C53.3291 39.4281 53.4072 41.3036 53.0804 42.4404C54.0751 41.6305 54.7216 40.8134 55.2118 39.5133Z" fill="white"/>
<path d="M54.154 28.2811C52.0369 32.7569 54.2322 35.684 54.2322 35.6058C54.2322 35.0375 54.3103 34.6254 54.6371 34.3057C53.8201 32.6006 54.2322 30.8885 54.8005 29.5031C54.4027 29.1763 54.154 29.02 54.154 28.2811Z" fill="white"/>
<path d="M51.9576 13.0704C52.9309 12.9923 53.7479 12.3387 53.7479 11.3654C53.7479 10.5483 53.1796 9.73844 52.2844 9.73844C51.6308 9.73844 51.0625 10.0652 50.9843 10.7117C50.8991 11.202 51.1477 11.7703 51.7161 11.8485C52.5331 11.8485 52.7746 10.9533 52.2063 10.5483C53.0162 10.3849 53.4282 12.1753 51.9647 12.3387C51.3111 12.3387 50.5794 11.9337 50.5012 11.202C50.3378 10.5483 50.6646 9.90184 51.3182 9.57503C52.2134 9.00667 53.4354 9.33348 54.1671 10.0652C54.6573 10.7189 54.8207 11.2872 54.6573 12.2605C54.4939 13.0704 53.684 13.8874 52.7888 13.9656C53.0304 14.3706 53.4425 14.4558 54.0108 14.534C53.7693 14.8608 53.2791 15.1023 52.9523 15.1876C53.2791 15.4291 53.9327 15.4291 54.1742 15.4291C54.0961 15.8341 53.2009 15.7559 53.3643 16.8145C53.7693 16.5729 53.9327 16.4877 54.1742 16.4877C54.2524 17.3829 52.8741 17.056 52.9523 18.3562C53.9327 18.5196 53.9327 17.7026 54.4158 17.6244C54.4158 18.0294 54.3376 18.1928 54.1742 18.5196C54.5792 18.5196 54.906 18.4414 54.9912 18.1146C55.2328 17.8731 55.2328 17.3829 55.5596 17.461H55.6448C55.9716 17.5392 55.9716 17.9512 55.723 18.278C55.723 18.3562 55.6448 18.4414 55.6448 18.4414C55.2399 18.8464 54.5863 19.0098 54.1813 19.2513C53.7764 19.4147 53.5277 19.6563 53.3714 20.0683C53.6982 19.9831 53.8616 20.0683 53.9398 20.0683C53.8545 20.6367 53.208 20.8001 52.9594 21.2903C52.7959 21.5319 52.7178 22.0221 52.8812 22.6757C53.208 22.3489 53.5348 22.1855 53.7764 22.1855C53.613 22.3489 53.3714 22.6757 53.4496 23.0806C53.6911 22.7538 54.1813 22.6757 54.2666 22.6757C53.8616 23.4075 53.208 23.5709 53.1299 24.7928C53.2933 24.7076 53.5348 24.6294 53.6982 24.3879C53.9398 25.2049 52.7249 25.6098 53.1299 26.91C53.4567 26.7466 53.7835 26.3416 53.9469 26.0929C54.3518 25.5246 54.5152 24.466 54.5152 24.466C54.7568 25.0344 54.5152 25.8514 54.1884 26.4197C53.8616 26.91 53.6982 27.3931 54.1103 27.9685C54.1884 27.727 54.1884 27.4783 54.4371 27.3149C54.6786 27.8051 54.3589 28.3735 54.7639 28.9418C54.9273 29.1834 55.2541 29.5102 55.6591 29.5954C55.6591 29.5954 55.7372 29.5954 55.8225 29.5954C55.7443 29.1905 55.6591 28.7784 55.6591 28.3735C55.5738 27.8833 55.5738 27.3149 55.6591 26.7466C55.9006 23.9829 57.286 21.539 58.2593 18.6901C58.5008 17.9583 58.5861 17.2266 58.6642 16.4095V15.5925C58.5861 13.1486 57.5275 10.6265 55.6519 9.41163C54.8349 8.84327 53.8616 8.51647 52.7249 8.51647C51.2614 8.43832 49.7126 9.41163 49.7126 10.9533C49.6771 12.09 50.6575 13.2338 51.9576 13.0704ZM57.1652 13.8022C57.492 13.9656 57.5702 14.6974 57.6554 15.2657C57.8188 16.1609 57.6554 17.056 57.4139 17.9512C57.0871 19.0098 56.4334 19.6563 55.6235 20.3099C55.4601 20.388 55.2967 20.4733 55.1333 20.5515C54.7284 20.8783 54.1529 21.2051 53.7479 21.61C53.8261 20.9564 54.4797 20.6367 54.9699 20.3099C55.2115 20.1465 55.3749 19.9831 55.6235 19.8197C56.27 19.2513 56.7603 18.5977 57.0871 17.6244C57.3286 16.8926 57.3286 16.0756 57.3286 15.2657C57.2434 14.7755 57.2434 14.2924 57.1652 13.8022ZM55.6164 10.2997C56.2629 11.0315 56.5897 12.3316 56.5897 13.4754C56.5116 14.6974 56.0995 15.7559 55.6164 16.4024C55.2896 16.7292 54.9628 16.9708 54.636 16.9708C54.7994 16.8074 55.2044 16.3172 55.6164 15.6707C55.858 15.1023 56.1066 14.3706 56.1066 13.5535C56.1919 12.5802 56.0285 11.5998 55.6164 10.868C55.3678 10.4631 55.1262 10.1363 54.7213 9.80948C55.0481 9.89473 55.3749 10.0581 55.6164 10.2997Z" fill="white"/>
<path d="M54.5584 48.1381L53.7485 47.3211L53.5069 47.5627L54.2387 48.3797C54.4021 48.5431 54.6436 48.7847 54.4802 48.9481C54.2387 49.1896 53.99 48.9481 53.8266 48.7847L53.0948 47.8895L53.0167 47.9676L52.7751 48.2092V48.2873L53.0167 48.5289L53.5069 49.0973C53.9119 49.4241 54.2387 49.6656 54.6436 49.2607L54.7218 49.1825C55.0486 48.8557 54.8852 48.6141 54.7218 48.3655C54.6436 48.3015 54.5584 48.2163 54.5584 48.1381Z" fill="white"/>
<path d="M59.3609 40.0035L58.9559 39.7549L58.7073 40.1669L59.3609 40.4866L60.0926 40.8987L60.5829 41.055L60.7463 40.65L60.0926 40.3232L59.3609 40.0035Z" fill="white"/>
<path d="M59.7662 41.467C59.681 41.3036 59.6028 41.2255 59.4394 41.1402H59.3613C59.1978 41.055 58.9563 40.9768 58.7929 40.9768C58.7076 40.9768 58.6295 40.9768 58.4661 41.055C58.3027 41.1402 58.1393 41.3036 58.0611 41.4599L57.8196 41.8649L58.4732 42.2698L59.3613 42.7671L59.6028 42.9305L59.8444 42.4403C60.0078 42.1988 60.0859 42.0354 60.0078 41.7867C59.9296 41.7086 59.9296 41.5452 59.7662 41.467ZM59.5247 42.3622L59.3613 42.2769L58.4661 41.7867L58.3879 41.7086C58.3879 41.6233 58.4661 41.5452 58.4661 41.467C58.5513 41.3818 58.6295 41.3818 58.7929 41.3818C58.871 41.3818 59.0344 41.467 59.1978 41.5452C59.276 41.6233 59.276 41.6233 59.3613 41.7086C59.4394 41.7086 59.4394 41.7867 59.5247 41.7867C59.6881 41.9501 59.6099 42.1135 59.5247 42.3622Z" fill="white"/>
<path d="M56.1071 46.6746L55.8656 46.9162C56.1071 47.1577 56.1071 47.3211 56.029 47.4064C55.9437 47.4845 55.8656 47.5698 55.7874 47.4845C55.624 47.4845 55.5459 47.4064 55.2972 47.243C55.1338 47.0014 54.9704 46.838 54.9704 46.7528C54.8852 46.6746 54.9704 46.5894 54.9704 46.5112C55.1338 46.3478 55.2972 46.426 55.5388 46.5894L55.7803 46.2626C55.3754 45.9358 55.0486 45.9358 54.7218 46.2626C54.5584 46.426 54.4802 46.6675 54.5584 46.8309C54.5584 46.9943 54.6365 47.1577 54.7218 47.2359C54.7999 47.314 54.8852 47.3993 54.9633 47.5627C55.2049 47.7261 55.4535 47.8895 55.6951 47.8895C55.8585 47.8895 56.0219 47.8895 56.1 47.8042C56.1853 47.719 56.1853 47.719 56.2634 47.6408C56.4268 47.4774 56.4268 47.314 56.4268 47.1506C56.4268 46.9872 56.3487 46.8238 56.1853 46.6604H56.1071V46.6746Z" fill="white"/>
<path d="M56.6759 44.799L56.1076 44.6356V44.5504L55.7808 44.9553L56.1076 45.3603L56.6759 46.0921L57.0027 46.6604L57.3295 46.3336L57.0027 46.0068L57.4077 45.5166L57.7345 45.7581L58.0613 45.3532L57.4077 45.1116L56.6759 44.799ZM56.8393 45.6942L56.6759 45.5308L56.271 45.0406L56.6759 45.204L57.0809 45.4455L56.8393 45.6942Z" fill="white"/>
<path d="M61.0727 38.5329C60.7458 38.3695 60.5043 38.6181 60.2627 38.7744C60.1846 38.9378 60.0993 38.9378 60.0993 39.016C60.0993 39.016 60.0993 39.016 60.0141 39.016C59.8507 39.1012 59.7725 38.9378 59.7725 38.7744C59.8507 38.611 59.9359 38.611 60.0993 38.611C60.0993 38.611 60.0993 38.611 60.1775 38.611V38.2061C60.0993 38.2061 60.0993 38.2061 60.0993 38.2061C59.7725 38.2061 59.6091 38.2842 59.4457 38.611C59.3676 38.9378 59.4457 39.3428 59.7725 39.421C59.9359 39.5062 60.0141 39.5062 60.0993 39.5062C60.2627 39.5062 60.4261 39.3428 60.5895 39.1012C60.6677 39.016 60.7529 39.016 60.8311 38.9378C61.0727 38.9378 61.1579 39.1012 61.0727 39.2647C60.9945 39.4281 60.8311 39.5062 60.6677 39.5062L60.5895 39.9112C60.9945 39.9112 61.2432 39.8259 61.4066 39.421C61.5558 39.1084 61.4776 38.6963 61.0727 38.5329Z" fill="white"/>
<path d="M57.4923 42.5256L57.4071 42.689L57.2436 42.8524L57.4071 42.9306L58.3022 43.4989L57.4071 43.3355L57.0021 43.2574L56.6753 43.6623L57.4071 44.1525L58.3875 44.799L58.4656 44.6356L58.629 44.5575L58.4656 44.4793L57.4071 43.7476L58.4656 43.9039L58.9558 43.9891L59.1974 43.6623L58.4656 43.2574L57.4923 42.5256Z" fill="white"/>
<path d="M53.0171 49.4382L52.939 49.3601C52.939 49.2748 52.8608 49.1967 52.7756 49.1967C52.6974 49.1114 52.6122 49.0333 52.4488 48.9551C52.2854 48.8699 52.0438 48.8699 51.7952 49.0333C51.7099 49.0333 51.7099 49.1114 51.6318 49.1114L51.5536 49.1967L51.2268 49.4382L51.5536 49.8432L51.7952 50.2481L52.4488 51.0652L52.7756 50.8236L52.939 50.7384C52.939 50.6602 52.939 50.6602 53.0171 50.6602C53.2587 50.4187 53.3439 50.17 53.1805 49.765C53.1805 49.6869 53.0953 49.5235 53.0171 49.4382ZM52.7756 50.3334L52.6974 50.4187L52.6193 50.4968L51.8023 49.5235V49.4382H51.8804C51.9586 49.2748 52.122 49.2748 52.2854 49.3601C52.3706 49.4382 52.4488 49.5235 52.6122 49.6016C52.6903 49.765 52.7756 49.8432 52.7756 50.0066C52.8537 50.17 52.8537 50.2553 52.7756 50.3334Z" fill="white"/>
<path d="M51.6317 51.1504L51.5536 51.2286L51.0633 51.6335L50.7365 51.2286L51.2268 50.9018L50.9852 50.5821L50.495 50.987L50.2463 50.5821L50.8999 50.0919L50.6584 49.8432L49.678 50.5821L50.8999 52.209L51.5536 51.7188L51.7951 51.4701H51.8733L51.7951 51.392L51.6317 51.1504Z" fill="white"/>
<path d="M18.0266 44.3159L18.2753 44.6356L18.595 44.3941L17.9485 43.5842L17.7851 43.3355L17.4582 43.5842L17.6998 43.9039L16.8046 44.5575L16.3215 44.8843L16.5631 45.2892L16.8046 45.1258L17.9485 44.3159H18.0266Z" fill="white"/>
<path d="M22.0125 48.2163L21.7709 47.9748L21.6075 47.8966L21.1173 48.1382L20.7123 48.3797L19.7319 48.9481L20.0587 49.2749L20.3855 49.0333L20.7123 49.2749L20.8758 49.4383L20.7123 49.6017L20.6342 49.8432L20.7123 49.9214L20.9539 50.1629L21.1173 49.9214L21.7709 48.536L22.0125 48.2163ZM21.1173 48.9552L21.0392 49.1186L20.7123 48.7918L21.1173 48.5502L21.4441 48.3087L21.1173 48.9552Z" fill="white"/>
<path d="M19.2491 46.5112C19.3343 46.426 19.3343 46.426 19.3343 46.426C19.7393 46.0992 19.6612 45.7724 19.4125 45.4527L19.2491 45.2893L19.0075 44.9625L18.8441 45.0477L17.949 45.7795L17.3806 46.2697L17.6222 46.6746L17.949 46.3478L18.2758 46.1063L18.4392 46.2697L17.949 47.0015L18.2758 47.4064L18.766 46.5112L18.8512 46.5894C19.0075 46.5894 19.0857 46.5894 19.2491 46.5112ZM18.6807 46.021L18.5173 45.8576L18.8441 45.6161L19.0075 45.5308L19.0857 45.6161C19.2491 45.7795 19.2491 45.9429 19.0857 46.021C19.0075 46.0992 18.9223 46.1844 18.8441 46.1844C18.7589 46.1844 18.7589 46.1063 18.6807 46.021Z" fill="white"/>
<path d="M14.936 41.2255C15.0994 41.467 15.2628 41.6304 15.5043 41.6304C15.5825 41.6304 15.7459 41.6304 15.9093 41.5523C16.3143 41.3107 16.3143 40.9839 16.0727 40.5719L15.8311 40.0035L15.5043 40.1669L13.9556 40.9839L14.1971 41.3889L14.8507 41.0621L14.936 41.2255ZM15.5043 40.7353L15.7459 40.5719L15.8311 40.7353C15.9093 40.8987 15.8311 41.0621 15.6677 41.1402C15.5896 41.1402 15.5896 41.1402 15.5043 41.1402C15.4262 41.2255 15.3409 41.1402 15.2628 40.9768L15.1846 40.8916L15.5043 40.7353Z" fill="white"/>
<path d="M16.8051 43.0087L17.2953 42.5185L16.9685 42.1135L16.8051 42.1988L16.3149 42.284L15.4979 42.5256L14.8442 42.689L15.0858 43.0939L15.4907 42.9305L15.8176 43.4207L15.4907 43.7476L15.8176 44.1525L16.3078 43.5842L16.8051 43.0087ZM16.0733 43.1721L15.9099 42.8453L16.3149 42.6819L16.7198 42.5185L16.3149 42.9234L16.0733 43.1721Z" fill="white"/>
<path d="M20.7127 46.9162L20.3859 46.5894L19.2492 47.7332L18.8442 48.0529L19.1639 48.3797H19.2492L20.7127 47.0014V46.9162Z" fill="white"/>
<path d="M21.7713 50.4187L21.6079 50.6602L21.7713 50.8236L22.5812 51.4701L22.8299 51.1504L22.1763 50.6602L22.5031 50.2553L22.9933 50.6602L23.2348 50.4187L22.7446 50.0066L23.0714 49.6017L23.725 50.0919L23.8884 49.8432L22.908 49.0333L21.7713 50.4187Z" fill="white"/>
<path d="M35.0354 58.2265L35.5185 58.3118L35.6819 56.1946L35.277 56.1094L35.0354 58.2265Z" fill="white"/>
<path d="M26.3248 53.6725L25.998 53.5091H25.9198L25.0247 55.3847L25.5149 55.6263C25.6783 55.7115 25.8417 55.7115 26.0051 55.7115C26.41 55.7115 26.6587 55.3847 26.8221 55.0579C27.0565 54.4043 26.9784 53.9922 26.3248 53.6725ZM26.3248 54.8092C26.2466 55.0508 26.1614 55.2142 25.998 55.2995C25.9198 55.2995 25.7564 55.3847 25.593 55.2995L25.998 54.2409L26.1614 53.9993C26.5734 54.1556 26.5734 54.4043 26.3248 54.8092Z" fill="white"/>
<path d="M30.0695 55.0508C29.5011 54.8874 29.1743 55.3776 29.0109 55.8607C28.8475 56.3509 28.8475 56.9974 29.4159 57.1608C29.9061 57.2461 30.2329 56.9974 30.3963 56.5925L29.9913 56.4291C29.9132 56.7559 29.7498 56.834 29.5864 56.7559C29.2596 56.6777 29.423 56.2657 29.5011 56.0241C29.5011 55.8607 29.6645 55.3705 29.9913 55.4558C30.1547 55.4558 30.2329 55.6973 30.1547 55.946L30.5597 56.0241C30.6378 55.541 30.4744 55.2142 30.0695 55.0508Z" fill="white"/>
<path d="M28.7691 55.0508L28.9325 54.7311L27.7105 54.3191L26.9788 56.2728L28.2007 56.6849L28.2789 56.3581L27.5471 56.1094L27.7105 55.6263L28.2789 55.7897L28.4423 55.4629L27.8739 55.2142L28.0373 54.8093L28.7691 55.0508Z" fill="white"/>
<path d="M31.9449 55.541C31.8597 55.541 31.7815 55.541 31.7034 55.541C31.3766 55.541 31.135 55.8678 30.9716 56.4362C30.8935 56.9264 30.8935 57.5729 31.4618 57.6582C31.54 57.7434 31.6252 57.7434 31.7034 57.7434C32.1083 57.6582 32.357 57.4166 32.5204 56.763C32.5914 56.2728 32.5133 55.7044 31.9449 55.541ZM32.0231 56.6848C32.0231 56.8482 31.9449 57.175 31.6963 57.3384C31.6963 57.3384 31.6181 57.3384 31.5329 57.3384C31.2913 57.2603 31.3695 56.7701 31.4547 56.6067C31.4547 56.4433 31.5329 56.0383 31.6963 55.9602C31.7815 55.9602 31.7815 55.9602 31.8597 55.9602C32.1865 56.0312 32.1012 56.5214 32.0231 56.6848Z" fill="white"/>
<path d="M33.8918 55.946H33.8065L33.2382 55.8607L32.9114 57.9779H33.4016L33.565 57.1608L33.7284 57.2461L33.8065 57.651L33.8918 58.056L34.382 58.1342L34.1405 57.1537C34.382 57.0756 34.5454 56.9122 34.5454 56.6635C34.6307 56.1946 34.3039 56.0312 33.8918 55.946ZM33.8136 56.9264C33.8136 56.9264 33.8136 56.9264 33.8136 56.8411H33.5721L33.6502 56.2728H33.8136C34.0552 56.358 34.1405 56.4362 34.1405 56.5996C34.0552 56.763 33.977 56.9264 33.8136 56.9264Z" fill="white"/>
<path d="M45.1236 55.946C45.287 55.8607 45.3652 55.7044 45.287 55.4558C45.2089 55.2142 45.0455 55.0508 44.8821 55.0508C44.7187 55.0508 44.6405 55.0508 44.4771 55.129L43.8235 55.2924L44.3918 57.3243L44.8821 57.2461L45.1236 57.1608C45.4504 56.9974 45.7772 56.834 45.6138 56.3509C45.5286 56.1094 45.3652 56.0312 45.1236 55.946ZM44.3066 55.541L44.47 55.4629C44.6334 55.4629 44.7968 55.4629 44.875 55.6263V55.7115C44.875 55.7115 44.875 55.7115 44.875 55.7968C44.875 55.8749 44.7115 55.9602 44.6334 55.9602L44.47 56.0383L44.3066 55.541ZM44.9602 56.8411H44.8821L44.7187 56.9264L44.5553 56.358L44.7968 56.2728C44.7968 56.2728 44.7968 56.2728 44.875 56.2728C45.0384 56.2728 45.1165 56.2728 45.1165 56.4362C45.2018 56.5996 45.1236 56.763 44.9602 56.8411Z" fill="white"/>
<path d="M48.7048 54.4043C48.5414 54.4043 48.2998 54.4895 48.2146 54.319C48.2146 54.1556 48.2146 54.0775 48.378 53.9922C48.4561 53.9922 48.6195 53.9922 48.7048 54.1556L49.0316 53.8288C48.79 53.5873 48.5414 53.502 48.2146 53.6654C47.973 53.7507 47.8878 53.907 47.8096 54.0704C47.7315 54.3972 47.8949 54.8021 48.2146 54.8874C48.378 54.8874 48.5414 54.8874 48.7048 54.8874C48.8682 54.8874 49.0316 54.8874 49.1097 54.9655C49.1879 55.1289 49.0316 55.2924 48.9463 55.2924C48.7829 55.3776 48.6195 55.3776 48.4561 55.1289L48.2146 55.4558C48.4561 55.7826 48.8682 55.8607 49.1879 55.6192C49.5147 55.3776 49.5928 55.0508 49.5147 54.724C49.3513 54.4043 49.0316 54.4043 48.7048 54.4043Z" fill="white"/>
<path d="M42.6794 55.6263L43.1697 57.6582L43.6599 57.58L43.1697 55.4629L42.6794 55.6263Z" fill="white"/>
<path d="M47.077 54.2409L46.6721 54.3191L47.1623 55.4558C47.1623 55.6192 47.2404 55.7826 47.2404 55.7826C47.2404 55.946 47.1623 56.0241 47.077 56.1094C46.9136 56.1946 46.8355 56.1094 46.7502 56.0312C46.665 55.9531 46.665 55.8678 46.5868 55.7044L46.1819 54.5677L45.6917 54.7311L46.1819 55.8678C46.26 56.1094 46.3453 56.2728 46.4234 56.358C46.5868 56.5996 46.9136 56.5996 47.1552 56.5214C47.3967 56.358 47.6454 56.1946 47.6454 55.8678C47.6454 55.7044 47.5601 55.541 47.482 55.2995L47.077 54.2409Z" fill="white"/>
<path d="M41.7844 57.4166L41.216 55.8678L40.7258 55.946L41.621 57.9849L42.1112 57.8997L42.2746 55.7044L41.8697 55.7897L41.7844 57.4166Z" fill="white"/>
<path d="M39.8306 56.1094L40.0792 58.2265L40.5623 58.1484L40.3208 56.0312L39.8306 56.1094Z" fill="white"/>
<path d="M38.6158 56.5996C38.7792 56.5214 38.8574 56.6848 38.9426 57.0045L39.3476 56.9264C39.2624 56.4362 39.0208 56.1946 38.5306 56.1946C38.289 56.1946 38.1256 56.358 37.9622 56.5214C37.8841 56.6848 37.7988 57.0116 37.7988 57.3313C37.877 57.6581 37.9622 57.8997 38.1256 58.1483C38.2109 58.3117 38.4524 58.3899 38.694 58.3899C38.9355 58.3046 39.0989 58.2265 39.1842 58.1483C39.3476 57.9849 39.3476 57.7434 39.3476 57.58H38.9426C38.9426 57.8215 38.8645 57.9849 38.7011 57.9849C38.6229 57.9849 38.5377 57.9849 38.4595 57.8215C38.3814 57.7363 38.3814 57.58 38.2961 57.3313C38.2961 57.0045 38.2961 56.8411 38.3814 56.763C38.4524 56.5996 38.4524 56.5996 38.6158 56.5996Z" fill="white"/>
<path d="M61.4779 36.6644C60.9877 35.684 60.4194 34.7888 59.6876 33.8937C58.4656 37.7159 56.8387 41.4599 54.2385 44.6356C52.2066 47.1577 49.7626 49.1115 46.9137 50.4116C46.0967 50.8165 45.2868 51.1433 44.4698 51.4702C44.6332 52.2019 44.7966 52.9337 45.0382 53.5873C40.3208 55.2142 34.4596 55.2142 29.7422 53.5873C29.9056 52.9337 30.1472 52.2019 30.3106 51.4702C29.0105 50.9799 27.7032 50.4116 26.4884 49.758C24.2078 48.4579 22.2541 46.7457 20.549 44.6356L20.3856 44.4722C17.8635 41.2965 16.3148 37.6377 15.0146 33.8937C14.361 34.7888 13.7927 35.684 13.3025 36.6644C12.3291 36.0108 11.434 35.4424 10.5388 34.7888C11.1072 37.1475 11.8389 39.4281 12.8975 41.6233C14.6878 45.3674 17.2099 48.6213 20.3856 51.3068C21.4442 52.2019 22.6662 53.0971 23.8881 53.8288C23.5613 54.4825 23.1564 55.2924 22.9148 55.6192C24.0515 56.4362 25.2735 57.0045 26.4955 57.5729C29.9127 58.9583 33.8202 59.6048 37.4008 59.6048C40.4913 59.6048 43.8304 59.1146 46.9208 58.0631C48.7112 57.4095 50.3381 56.6777 51.8016 55.6192C51.6382 55.2924 51.148 54.4825 50.8283 53.8288C55.7091 50.9799 59.4531 46.6675 61.8118 41.6233C62.8704 39.4281 63.6022 37.1475 64.1705 34.7888C63.2682 35.4424 62.3731 36.0179 61.4779 36.6644ZM20.3856 50.6602C17.4586 48.0529 15.0999 44.9625 13.3877 41.3818C12.5778 39.6696 11.9242 37.8864 11.3558 36.0108C12.0876 36.501 12.8194 36.9841 13.5511 37.3962C13.9561 36.5792 14.3681 35.7693 14.8512 34.9522C16.1514 38.6963 17.7783 42.1136 20.137 44.9624L20.3785 45.2893C22.0907 47.3211 24.0373 49.0333 26.4813 50.3334C27.3764 50.8236 28.3568 51.3139 29.3302 51.6336L26.4813 51.7117H25.0177L24.1226 53.4168C22.8296 52.614 21.5294 51.6336 20.3856 50.6602ZM29.5788 52.209L29.252 53.5091C28.3568 53.1823 27.3835 52.7774 26.4884 52.3724C26.325 52.2872 26.2468 52.2872 26.0834 52.209H26.4884H29.5788ZM51.1409 55.4629C49.7555 56.2799 48.3773 56.9264 46.9137 57.4947C43.9014 58.6315 40.6476 59.1217 37.3937 59.1217C33.6497 59.1217 29.9056 58.4752 26.4884 56.9264C25.5151 56.5214 24.5346 56.0312 23.6395 55.4629C24.2078 54.4043 24.698 53.431 25.2664 52.3724C25.6714 52.614 26.0834 52.7774 26.4884 52.9408C33.401 55.8678 39.994 56.0312 46.9137 53.5091C47.8089 53.1823 48.6188 52.7774 49.514 52.3724C50.0042 53.4239 50.5725 54.4043 51.1409 55.4629ZM45.1234 52.209H46.9137H48.7041C48.1357 52.4506 47.4821 52.6992 46.9137 52.9408C46.4235 53.1042 46.0186 53.3457 45.5284 53.5091L45.1234 52.209ZM61.3927 41.3818C59.034 46.3478 55.2899 50.575 50.5725 53.4239L49.6774 51.7188H46.9137L45.4502 51.6407C45.9404 51.4773 46.4235 51.2357 46.9137 51.0723C50.0894 49.6088 52.6115 47.4916 54.6434 44.9696C56.924 42.1207 58.629 38.7034 59.851 34.9593C60.4194 35.7764 60.8314 36.5863 61.2364 37.4033C61.9681 36.9983 62.6999 36.5081 63.3535 36.0179C62.8633 37.8864 62.2097 39.6767 61.3927 41.3818Z" fill="white"/>
<path d="M29.6641 8.18966C29.9056 8.02626 30.7226 8.02626 31.3691 8.02626C31.2057 7.78471 30.8789 7.53605 30.6374 7.53605C30.8008 7.37265 31.3691 7.37265 31.8593 7.4579C31.7812 7.1311 31.5325 6.88954 31.3691 6.88954C31.5325 6.80429 32.0227 6.72614 32.7545 6.88954C32.6764 6.72614 32.4277 6.48459 32.2643 6.32118C32.3424 6.24303 32.9179 6.07963 33.1595 5.99438C32.9961 5.91623 32.9961 5.75283 32.9961 5.66757C31.5325 5.99438 29.4154 7.86285 28.5984 9.08482C29.1667 8.75802 30.0619 8.67987 30.6303 8.59462C30.3177 8.35307 30.1543 8.26781 29.6641 8.18966Z" fill="white"/>
<path d="M42.1115 6.88243C42.7651 6.71903 43.3335 6.79718 43.4969 6.88243C43.2553 6.88243 43.0067 7.12399 42.9285 7.45079C43.4187 7.36554 43.9871 7.36554 44.2287 7.52894C43.9871 7.52894 43.575 7.7776 43.4969 8.01915C44.0653 8.01915 44.8823 8.01915 45.1238 8.18255C44.6336 8.2607 44.4702 8.34596 44.2287 8.58751C44.7189 8.66566 45.614 8.75091 46.1824 9.07772C45.4506 7.85575 43.3335 5.98727 41.7918 5.66046C41.7918 5.73861 41.7918 5.90202 41.6284 5.98727C41.9552 6.06542 42.5236 6.22882 42.6017 6.31408C42.3531 6.47748 42.1115 6.72613 42.1115 6.88243Z" fill="white"/>
<path d="M43.9863 11.2801C44.3913 12.5803 45.94 12.7437 47.0768 12.5803C47.9719 12.5021 48.8671 12.2534 49.4355 11.9266C49.272 11.5217 49.2721 11.1949 49.2721 10.8681C48.7818 11.273 47.8867 11.5998 46.9915 11.7632C45.9329 12.0048 44.8744 11.8414 44.5476 11.0315C44.3842 10.6265 44.6257 10.2145 44.9525 9.97291C45.1941 9.8095 45.5209 9.8095 45.8477 9.97291C46.3379 10.2997 46.0892 10.9462 45.7695 10.7899C45.9329 10.2997 45.4427 10.1363 45.2012 10.2216C45.0378 10.2997 44.9596 10.5484 44.9596 10.7118C44.9596 11.202 45.3646 11.4435 45.7766 11.4435C46.345 11.5217 46.8352 11.0386 46.75 10.3068C46.6647 9.65321 46.0182 9.33351 45.4498 9.33351C44.3913 9.3264 43.6595 10.2216 43.9863 11.2801Z" fill="white"/>
<path d="M27.7105 12.5802C28.9325 12.7436 30.4813 12.5802 30.801 11.2801C31.1278 10.2215 30.396 9.32639 29.4156 9.32639C28.762 9.32639 28.1936 9.65319 28.0302 10.2997C27.945 11.0315 28.4352 11.5217 29.0035 11.4364C29.4085 11.4364 29.8205 11.1949 29.8205 10.7047C29.8987 10.5413 29.8205 10.2997 29.6571 10.2144C29.3303 10.1363 28.8401 10.2926 29.0888 10.7828C28.762 10.9462 28.4352 10.2926 28.9254 9.96579C29.2522 9.80239 29.6571 9.80239 29.9058 9.96579C30.2326 10.2073 30.396 10.6194 30.2326 11.0244C29.9058 11.8343 28.8472 11.9977 27.7887 11.7561C26.8935 11.5927 25.9983 11.2659 25.5081 10.8609C25.5863 11.1878 25.5081 11.5146 25.3447 11.9195C25.9202 12.2534 26.9006 12.5021 27.7105 12.5802Z" fill="white"/>
<path d="M33.7353 5.98728C33.9768 5.98728 34.2255 5.74573 34.2255 5.49707C34.2255 5.17026 33.9839 4.92871 33.7353 4.92871C33.4937 4.92871 33.3303 5.17026 33.3303 5.49707C33.3232 5.74573 33.4866 5.98728 33.7353 5.98728Z" fill="white"/>
<path d="M41.0527 5.98728C41.2942 5.98728 41.5429 5.74573 41.5429 5.49707C41.5429 5.17026 41.3013 4.92871 41.0527 4.92871C40.8111 4.92871 40.6477 5.17026 40.6477 5.49707C40.6477 5.74573 40.8111 5.98728 41.0527 5.98728Z" fill="white"/>
<path d="M35.1987 5.01394C36.2573 4.44558 38.5378 4.44558 39.5893 5.01394C39.9161 5.09209 40.2429 5.25549 40.726 4.77239C38.9357 3.87722 35.9234 3.87722 34.1331 4.77239C34.5451 5.25549 34.8719 5.09209 35.1987 5.01394Z" fill="white"/>
<path d="M33.0813 26.0077C32.9179 26.8177 33.5715 27.0663 34.218 26.8177C34.623 26.6542 34.9498 26.3274 35.44 26.2493C35.5182 26.2493 35.6034 26.2493 35.6816 26.2493C35.7597 26.3274 35.845 26.3274 35.9231 26.3274C36.0865 26.3274 36.1647 26.4056 36.3281 26.4908C36.2499 26.2493 36.0865 26.0859 35.9231 26.0006C35.7597 25.9225 35.5963 25.9225 35.4329 25.9225C35.3547 25.9225 35.2695 25.9225 35.2695 25.9225C34.8645 26.0006 34.3743 26.2493 34.1328 26.3274C33.8131 26.4127 33.3229 26.3345 33.0813 26.0077Z" fill="white"/>
<path d="M37.0673 31.13C37.2307 30.9666 37.3089 30.8032 37.3941 30.4764C37.6357 30.718 37.7991 30.718 37.9625 31.0448C37.9625 31.0448 38.1259 30.8032 38.204 30.5546C38.2822 30.3912 38.3674 30.1496 38.3674 29.9862C38.8576 30.2278 38.8576 30.4764 39.0992 30.718C39.3407 30.4764 39.426 30.0644 39.2626 29.6594C39.426 29.6594 39.5894 29.7447 39.6675 29.8228C39.9091 29.9862 40.0725 30.1496 40.1578 30.2278C40.3212 29.5742 39.831 29.496 39.6675 29.0911C39.6675 29.0911 39.6675 29.0911 39.6675 29.0129C39.9944 29.2545 40.2359 29.4179 40.5627 29.4179C40.1578 28.9277 40.1578 28.5227 39.9091 28.1959C39.8238 28.274 39.7457 28.274 39.6675 28.3593C39.5894 28.5227 39.5041 28.6861 39.426 29.0129C39.2626 28.7714 39.2626 28.608 38.8576 28.4445C38.9358 28.6861 39.021 29.0129 38.6942 29.5813C38.5308 29.4179 38.3674 29.3397 38.204 29.1763C38.1188 29.1763 37.9625 29.0911 37.9625 29.0911C38.0406 29.4179 37.9625 29.8228 37.7991 30.2278C37.5575 29.9862 37.1455 29.8228 36.8258 29.8228C36.911 29.9862 36.9892 30.313 36.6624 30.6398C36.9039 30.8032 36.9892 30.9666 37.0673 31.13Z" fill="white"/>
<path d="M38.2037 24.2955C38.2819 24.2174 38.4453 24.1321 38.4453 23.9687C38.3671 23.9687 38.2819 23.9687 38.2037 23.9687C38.1185 23.9687 38.0403 23.9687 37.9622 23.9687C37.9622 24.054 38.0474 24.2174 38.2037 24.2955Z" fill="white"/>
<path d="M39.6744 24.8639H39.7526C39.9941 24.942 40.1575 24.942 40.4843 24.7005C40.1575 24.7005 39.916 24.4589 39.6673 24.2955C39.6673 24.2955 39.6673 24.2955 39.5892 24.2955C39.4258 24.2174 39.1842 24.2955 38.9355 24.5371C39.2624 24.6223 39.511 24.7857 39.6744 24.8639Z" fill="white"/>
<path d="M36.9035 24.7857C36.8183 24.7005 36.7401 24.7005 36.6549 24.6223C36.5767 24.5442 36.4915 24.5442 36.4915 24.4589C36.4133 24.5371 36.4133 24.6223 36.4133 24.7005C36.4133 24.7005 36.5767 24.7005 36.6549 24.7857C36.7401 24.7857 36.8254 24.7857 36.9035 24.7857Z" fill="white"/>
<path d="M35.0357 25.4394C35.121 25.3541 35.2773 25.3541 35.4407 25.3541C35.6041 25.3541 35.7675 25.3541 35.9309 25.3541C36.2577 25.4394 36.4993 25.6809 36.6627 25.9225C36.7479 26.0859 36.7479 26.3274 36.6627 26.4908C36.6627 26.569 36.5845 26.6542 36.4993 26.7324C36.4211 26.8958 36.1725 26.8958 35.9309 26.8958C35.7675 26.8958 35.6041 26.8176 35.4407 26.8176C35.1991 26.7395 35.0357 26.6542 34.9505 26.5761C34.7871 27.0663 34.8723 27.4712 35.4407 27.5494H35.5188C35.6822 27.5494 35.8456 27.4712 35.9238 27.386C36.009 27.3078 36.0872 27.3078 36.3287 27.2226C36.414 27.2226 36.5703 27.3007 36.6556 27.3007C36.7408 27.3789 36.819 27.3789 36.9042 27.4641C36.819 26.9739 37.1458 26.569 37.3092 26.4056C37.3873 26.4056 37.5507 26.569 37.636 26.6471C37.7141 26.2422 37.8775 25.9154 37.9628 25.752C38.0409 25.8372 38.1262 25.9154 38.2043 25.9935C38.2825 26.0717 38.3677 26.1569 38.4459 26.2351C38.6093 25.8301 38.4459 25.7448 38.6874 25.3399C38.6874 25.4251 38.8508 25.8301 39.2558 25.9935C39.341 25.7519 39.4192 25.5885 39.4192 25.3399C39.4192 25.3399 39.4973 25.5033 39.6607 25.5814C39.9876 25.7448 40.3925 25.9082 40.7193 25.5033C40.3925 25.5033 39.9876 25.3399 39.6607 25.1765C39.4973 25.0131 39.3339 24.9349 39.2558 24.8497C39.1776 25.0131 39.1776 25.1765 39.0142 25.2546C39.0142 25.2546 39.0924 25.0131 38.8508 24.7644C38.6093 24.8426 38.6093 25.1694 38.1972 25.3328H38.112C38.1972 25.3328 38.1972 25.3328 38.1972 25.2546C38.3606 25.0912 38.4388 24.601 38.8508 24.4376C39.0924 24.1108 39.0924 23.7059 38.7727 23.4643C38.6093 23.3009 38.3677 23.3009 38.2043 23.3009C37.9628 23.3791 37.7994 23.4643 37.5507 23.5425C37.3092 23.3791 36.9824 23.3791 36.6556 23.4643C36.414 23.5425 36.1653 23.6277 35.9238 23.7059H35.8456C35.6822 23.7059 35.5188 23.784 35.4407 23.784C35.1991 23.784 34.9505 23.8693 34.7089 23.9474C34.2187 24.3524 34.4674 24.4376 34.7089 24.8426C34.8723 25.1125 34.8723 25.1125 35.0357 25.4394ZM38.2043 23.7272C38.3677 23.7272 38.5311 23.7272 38.6093 23.7272C38.7727 24.1321 38.3677 24.2955 38.2043 24.6223C37.9628 24.4589 37.636 24.054 37.7141 23.7272C37.8846 23.7272 38.048 23.7272 38.2043 23.7272ZM36.1725 24.7076C36.1725 24.5442 36.1725 24.3026 36.2506 24.2174C36.0872 24.1392 36.0872 23.9758 36.1725 23.8124C36.3359 23.9758 36.4993 24.1392 36.6627 24.3026C36.8261 24.466 36.9895 24.6294 37.231 24.7076C37.3944 24.7928 37.231 25.0344 37.0676 25.0344C36.9824 24.9491 36.8261 24.9491 36.6627 24.9491C36.4211 24.9491 36.0943 24.9491 35.9309 25.0344C35.9309 24.8639 36.009 24.7857 36.1725 24.7076Z" fill="white"/>
<path d="M39.6747 25.8443C39.6747 25.759 39.5966 25.759 39.5966 25.759C39.5966 25.9224 39.5184 26.0858 39.355 26.3274C39.0282 26.164 38.8648 26.0006 38.7014 25.759C38.7014 26.2492 38.3746 26.7323 38.3746 26.7323C38.2893 26.6542 38.2893 26.4908 38.2112 26.4055C38.1259 26.3345 38.0478 26.3345 38.0478 26.2492C37.8062 26.576 37.721 26.8176 37.5576 27.386C37.5576 27.0592 37.4794 26.8176 37.316 26.7323C37.1526 26.9739 37.0745 27.3007 37.2308 27.7909C37.0674 27.7057 36.904 27.7057 36.7406 27.6275L36.6553 27.7057C36.3285 27.8691 36.087 28.274 36.087 28.274C36.0088 28.0325 36.0088 27.7838 36.3285 27.5423C36.1651 27.5423 36.0017 27.6204 35.9236 27.6204C35.7602 27.6986 35.682 27.7838 35.5968 27.862C35.4333 28.1888 35.4333 28.4303 35.4333 28.9205C35.5968 28.8424 35.7602 28.7571 35.9236 28.679C36.1651 28.5156 36.4138 28.274 36.4919 28.1106C36.4919 28.1106 36.5772 28.6008 36.4919 28.9276C36.4919 29.1692 36.4919 29.4178 36.6553 29.7375V29.6523C36.7406 28.9205 37.1455 28.5156 36.7406 28.0254C36.7406 28.0254 37.4723 28.1888 37.7991 28.1106C37.721 27.457 38.1259 26.9739 38.1259 26.9739L38.2112 27.0592C38.538 27.3007 38.4528 27.3007 38.6162 27.386C38.6943 26.8176 38.8577 26.8176 38.943 26.4126C39.1845 26.6542 39.4332 26.9029 39.6747 27.0663C39.5113 27.2297 39.1845 26.981 39.0211 26.9029C39.0211 27.0663 38.8577 27.3078 38.943 27.6346C38.6162 27.7128 38.4528 27.5565 38.2112 27.3931H38.1259C38.0478 27.7199 38.1259 27.9614 38.2112 28.3664C37.8844 28.3664 37.5576 28.4516 37.2308 28.3664C37.5576 29.02 36.9892 29.1834 36.904 29.5883C37.1455 29.5883 37.4723 29.6665 37.6357 29.8299C37.7991 29.4249 37.7139 29.0981 37.6357 28.7713C37.8773 28.7713 38.0407 28.8495 38.2041 28.9347C38.3675 29.0129 38.4456 29.0129 38.6091 29.1763C38.7725 28.7713 38.6872 28.3593 38.5309 27.9543C39.0211 28.1177 39.1845 28.1959 39.4261 28.6079C39.831 27.9543 39.0993 27.8762 39.3479 27.3078C39.4261 27.5494 39.5113 27.7128 39.6747 27.8762C39.7529 27.8762 39.8381 27.8762 39.8381 27.9614C40.2431 27.3078 39.8381 26.9029 39.8381 26.4979C40.2431 26.8247 40.3283 27.2297 40.2431 27.7199C40.4065 27.8833 40.8967 27.9614 41.2164 27.8833C40.8896 27.5565 40.8114 27.3149 40.5628 26.7466C40.3212 26.2492 40.0797 26.0077 39.6747 25.8443Z" fill="white"/>
<path d="M35.8448 29.9933C35.8448 30.1567 35.7595 30.3201 35.6814 30.3983C35.7595 30.3983 35.8448 30.3983 35.9229 30.3983C36.1645 30.3983 36.3279 30.4764 36.5766 30.5617C36.335 30.3983 36.0864 30.2349 35.9229 30.0715L35.8448 29.9933Z" fill="white"/>
<path d="M34.6302 28.4445C34.3887 28.4445 34.2252 28.4445 34.0618 28.203C33.735 28.6932 34.3034 29.2615 34.7936 28.9347C34.7936 29.3397 34.6302 29.5884 34.5521 29.7447C34.8789 29.8228 35.1204 29.6594 35.2057 29.4178C35.3691 29.496 35.3691 29.6594 35.4472 29.8228C35.4472 29.9862 35.4472 30.1496 35.5254 30.313C35.7669 30.0715 35.7669 29.8228 35.8522 29.4178C35.8522 29.4178 35.8522 29.496 35.9303 29.496C36.0937 29.901 36.3353 29.9862 36.5839 30.2278C36.5839 29.901 36.4205 29.7375 36.3424 29.496C36.2642 29.1692 36.3424 28.9276 36.3424 28.6008C36.179 28.7642 36.1008 28.9276 35.9374 29.0058C35.774 29.0839 35.6106 29.0839 35.4472 29.1692C35.3691 29.1692 35.2838 29.1692 35.2057 29.1692C35.3691 28.679 35.2057 28.6008 35.2909 28.1106C35.0352 28.3664 34.8718 28.4445 34.6302 28.4445Z" fill="white"/>
<path d="M38.3671 38.2913C38.6087 37.9645 38.6939 37.5596 38.6939 37.1546C38.5305 36.9912 38.3671 36.9131 38.2037 36.8278C38.289 37.318 37.9621 37.8011 38.3671 38.2913Z" fill="white"/>
<path d="M41.0526 30.2349C40.8892 30.5617 41.0526 31.0519 40.8892 31.4568C41.216 31.2934 41.3794 31.0519 41.3794 30.8885C41.216 30.5617 41.1378 30.4835 41.0526 30.2349Z" fill="white"/>
<path d="M41.0528 29.8299C41.2944 30.5617 42.0261 31.0519 41.6212 32.0252C42.2748 31.8618 42.2748 31.13 42.0261 30.7251C41.7846 30.2349 41.5359 29.908 41.4578 29.5883C41.4578 29.2615 41.543 28.6079 41.8627 28.3664C41.6993 28.6932 41.6212 29.1834 41.6993 29.5031C41.7775 29.8299 41.9409 30.1567 42.1895 30.4764C42.4311 30.718 42.6798 30.8814 42.5945 31.2082C42.9213 30.8032 42.7579 30.3911 42.4311 29.8228C42.9213 30.313 43.0847 30.3911 43.0847 31.0448C43.5749 30.5546 43.3334 30.0714 43.0066 29.7446C42.9213 29.7446 42.9213 29.6594 42.8432 29.5812C42.5164 29.3397 42.2748 29.3397 42.4382 28.6008C42.5164 28.8424 42.6016 29.091 42.6798 29.1692C42.9213 29.4107 43.3334 29.3326 43.4968 29.0839C43.2552 29.0839 43.0918 28.9205 43.0066 28.679C42.6016 27.6204 44.5553 27.3788 44.6335 28.8424C44.7116 29.7375 43.9017 30.6327 43.6602 31.1229C43.3334 31.6131 43.17 32.0962 43.2552 32.7498C43.3405 33.3182 43.6602 34.05 43.9088 34.5402C44.1504 35.3501 44.9674 37.6306 43.4186 37.7159C42.5235 37.794 42.2819 36.8988 41.9551 36.0889C41.6283 35.279 41.1381 34.867 40.7331 34.2986C40.1648 33.4887 39.838 32.4301 40.0014 31.535C40.0795 30.9666 40.1648 30.5617 39.5964 30.0714C39.5183 30.5617 39.433 30.8032 39.0281 31.13C38.8647 30.8032 38.7012 30.6398 38.5378 30.4764C38.4597 30.8814 38.3744 31.0448 37.8842 31.6984C37.7208 31.3716 37.5574 31.13 37.4793 31.0448C37.394 31.2863 37.1525 31.6131 36.8257 31.6984C36.8257 31.2082 36.7475 30.9666 36.3355 30.8032C34.7867 30.6398 33.7352 31.2934 32.3498 31.3716C31.1279 31.4497 30.318 31.2082 29.6644 30.2348C29.2594 29.7446 28.6058 29.5812 28.3642 30.313C28.8544 30.2348 29.2594 30.3911 29.2594 30.8814C28.9326 30.4764 28.2008 30.2277 28.0374 30.9595C28.4424 30.7961 29.1741 31.1229 29.2594 31.6913C28.9326 31.3645 28.6058 31.1229 28.3642 31.2011C28.2008 31.2011 28.0374 31.2792 27.874 31.4426C28.2008 31.5208 28.2008 31.7694 28.3642 31.9328C28.6058 32.2596 29.0178 32.3378 29.4228 32.1744C29.5862 32.011 29.8278 31.8476 30.0764 31.8476C30.318 31.8476 30.4814 32.0891 30.2398 32.2525C30.0764 32.3307 29.8349 32.3307 29.5862 32.3307C29.7496 32.7356 30.4814 33.0624 30.8082 32.5722C31.7886 32.899 32.8401 33.0624 33.5789 32.9772C33.8205 33.3821 33.9057 33.7089 33.7423 34.1139C33.9839 34.0357 34.0691 33.8723 34.2325 33.5455C34.3178 33.9505 34.5593 34.0357 34.7227 34.1139C34.6446 33.4603 34.7227 33.2969 34.8861 32.8919C34.9643 33.3821 35.0495 33.6237 35.2911 33.8652C35.3692 33.4603 35.4545 33.1335 35.7813 32.8919C35.7813 33.2969 35.7813 33.5455 35.9447 34.0286C36.03 33.7871 36.3497 33.375 36.5983 33.2116C36.5131 34.4336 37.0033 34.8386 37.9837 35.4922C38.957 36.3092 38.957 36.3873 38.8789 37.524C38.8789 38.0924 38.7155 38.3411 38.5521 38.4974C38.0618 38.8242 37.9837 39.151 38.1471 39.7193C38.3105 40.0461 38.6373 40.4511 38.3886 40.856C38.7155 40.856 38.957 40.4511 39.1204 40.2024C39.1204 40.6926 39.2057 40.9342 39.362 41.1828C39.362 40.7779 39.6035 40.5292 39.8522 40.3658C39.8522 40.3658 39.9374 40.9342 40.3424 41.3391C40.5058 41.0123 40.6692 40.8489 40.9107 40.7708C40.9889 41.0976 41.1523 41.261 41.4009 41.4244C41.0741 42.5611 41.5644 43.8683 41.8059 44.188C41.5644 44.5148 41.2375 44.1028 40.996 43.8612C40.6692 43.6978 40.2642 43.6197 39.9374 43.8612C39.6959 44.1028 39.5325 44.593 40.0156 44.8417C40.0156 44.3514 40.3424 44.188 40.5839 44.2733C40.179 44.5149 40.0937 45.0051 40.5839 45.2466C40.6692 45.0051 40.6692 44.4367 41.1523 44.593C40.9107 44.6783 40.8255 45.0832 40.9107 45.3248C41.3157 45.4029 42.2961 45.2395 42.8645 44.6711C42.9426 44.1028 42.8645 43.6126 42.7792 43.371C42.8645 43.371 43.106 43.4492 43.1842 43.5344C43.0989 43.1295 42.7792 42.8027 42.5306 42.7174C42.7721 42.6322 43.1842 42.8808 43.1842 42.8808C43.0989 42.3906 42.694 42.1491 42.5306 41.9857C42.694 42.0638 43.2623 42.1491 43.4257 41.8223C43.0989 41.8223 42.8574 41.737 42.7721 41.4954C42.9355 41.4102 43.1771 41.2539 43.2623 41.0052C43.0989 41.0905 43.0208 41.0052 42.8574 41.0052C43.1842 40.0319 42.5306 39.7833 42.0404 39.6199C41.3867 39.4565 40.7402 38.9663 40.8184 38.3197C40.8965 38.3979 41.1452 38.7247 41.5501 38.5613C40.8965 37.2612 41.4649 37.1759 41.6283 36.2026C41.7917 36.366 41.6283 37.183 41.6283 37.2612C41.9551 37.8295 42.6869 38.1563 43.3405 38.2416C44.804 38.0782 44.804 36.7781 44.6406 35.7977C44.5624 35.144 44.5624 34.4123 44.804 34.0073C44.5624 33.9221 44.3138 34.3341 44.3138 34.3341C44.1504 33.6805 44.7187 33.439 44.6406 32.7854C44.5624 33.0269 44.2356 33.1122 44.0722 33.1903C44.0722 32.9488 44.804 32.5367 44.804 31.9683C44.5624 32.2099 44.399 32.1317 44.1504 32.2951C44.4772 31.9683 44.8821 31.5634 44.7187 30.9098C44.5553 31.3147 44.2285 31.3147 43.9088 31.8049C43.987 30.995 45.0455 29.9294 45.0455 28.7926C45.0455 28.3024 44.8821 27.8975 44.5553 27.6559C43.8236 27.0094 42.765 27.0876 41.948 27.5778C41.2162 28.0396 40.726 29.02 41.0528 29.8299Z" fill="white"/>
<path d="M38.1257 38.4547C37.5573 37.723 38.2891 36.906 37.9623 36.501C38.2891 36.501 38.5306 36.7426 38.6159 36.8278C38.694 36.2595 37.9623 36.0179 37.7989 35.9326C36.9819 36.9912 36.0085 37.1546 35.0352 37.5596C34.0619 37.8864 34.545 39.1084 33.5717 39.4281C33.8985 39.5133 34.1401 39.5133 34.7084 39.4281C34.3035 39.7549 34.0548 39.6696 33.8133 40.2451C34.0548 40.1669 34.3035 40.1669 34.545 40.1669C34.545 40.2451 34.3035 40.4937 34.1401 40.8205C34.3816 40.8205 34.6303 40.8205 34.9571 40.5719C35.0352 40.8987 34.4669 40.8987 34.6303 41.6304C34.7937 41.3036 35.1205 41.2255 35.362 41.2255C35.1986 41.3107 35.0352 41.467 35.0352 41.7938C35.1986 41.7157 35.5254 41.6304 35.6888 41.7157C35.2839 41.9572 35.1205 42.0425 34.8718 42.2841C34.2182 42.8524 34.8718 43.8328 34.1401 43.911C33.7351 43.9962 33.5717 43.6694 33.0815 43.5842C32.1863 43.3426 31.8595 44.3941 32.4279 44.6427C32.4279 44.3159 32.7547 44.1525 33.0815 44.2378C32.8399 44.323 32.2716 44.8061 32.9181 45.133C33.1596 44.728 33.4083 44.728 33.7351 44.728C33.2449 44.9695 33.0033 45.2963 33.5717 45.6232C34.0619 44.8914 35.0352 45.1329 35.5254 44.9695C35.6036 44.8061 35.767 44.2378 35.6036 43.5842C35.767 43.7476 35.9304 43.8257 36.0938 43.911C36.0156 43.7476 36.0156 43.4208 36.0938 43.3426C36.1719 43.506 36.3353 43.5842 36.584 43.6694C36.4988 43.2645 36.4988 42.9377 36.584 42.6109C36.7474 42.8524 36.8256 42.9377 37.0742 42.9377C36.9108 42.6109 37.1524 42.3693 37.1524 42.1206C37.1524 41.2255 36.2572 40.8205 37.2305 40.0035C36.989 39.9254 36.8256 39.8401 36.6622 39.4352C36.9108 39.6767 37.2305 39.762 37.6426 39.5986C37.2376 39.4352 37.0742 39.1936 36.9108 38.8668C37.0742 38.945 37.401 39.1936 37.806 39.1936C37.7989 38.8597 37.8841 38.6181 38.1257 38.4547Z" fill="white"/>
<path d="M20.5493 35.6058C20.5493 35.684 22.7446 32.7569 20.6346 28.2811C20.6346 29.0129 20.393 29.1763 19.981 29.5031C20.5493 30.8885 20.8761 32.5935 20.1444 34.3057C20.4712 34.6325 20.5493 35.0375 20.5493 35.6058Z" fill="white"/>
<path d="M28.7684 26.0077C28.6902 26.1711 28.9318 26.3345 29.1733 26.4127C29.4149 26.4908 29.6636 26.3345 29.7417 26.1711C29.7417 26.0077 29.5783 25.8443 29.3368 25.7662C29.0952 25.6809 28.7684 25.8443 28.7684 26.0077Z" fill="white"/>
<path d="M29.3376 26.4979C29.0961 26.4979 28.8474 26.576 28.8474 26.7394C28.7692 26.9029 28.9255 27.0663 29.1742 27.1444C29.4158 27.2297 29.6644 27.1444 29.7426 26.9028C29.7426 26.7394 29.5792 26.576 29.3376 26.4979Z" fill="white"/>
<path d="M29.3376 25.0273C29.0961 24.942 28.8474 25.0273 28.8474 25.1907C28.7692 25.4394 28.9255 25.5957 29.1742 25.5957C29.4158 25.6809 29.6644 25.5957 29.7426 25.4323C29.7426 25.276 29.5792 25.0273 29.3376 25.0273Z" fill="white"/>
<path d="M30.2322 27.1445V25.9225L29.742 25.8443C29.9835 26.0859 29.9835 26.3345 29.6638 26.4979C29.9054 26.6613 30.0688 26.9029 29.8272 27.1516H30.2322V27.1445Z" fill="white"/>
<path d="M32.8399 28.2812C32.6765 27.8762 32.6765 27.4712 32.435 27.1444C32.1082 26.6542 31.618 26.7395 31.213 26.2493C30.9715 26.0077 30.7228 25.5957 30.396 25.276C30.3178 25.1126 30.0692 25.0344 29.8276 25.1126C29.9058 25.276 29.991 25.5175 29.8276 25.6028L30.396 25.7662V26.8247C30.4812 27.6417 31.2912 27.3931 31.9448 27.4783L31.8595 28.2883H30.9644C30.9644 28.7785 31.5327 28.8566 31.2912 29.6736C31.5327 29.5955 31.6961 29.2687 31.7814 29.1053C32.1082 29.4321 31.7814 29.9223 31.618 30.1638C31.8595 30.1638 32.0229 30.0857 32.3497 29.837C32.4279 30.0857 32.1863 30.4054 32.0229 30.654C32.3497 30.654 32.6765 30.3272 32.7547 30.2491C32.9181 30.654 32.6765 30.8174 32.5131 31.1443C32.5913 31.0661 33.6498 30.8174 34.0619 30.654C34.3887 30.5688 34.7937 30.4906 35.2839 30.4125C35.1986 30.2491 35.1205 30.0857 35.1205 29.8441C34.8789 30.0075 34.4669 30.0928 34.0619 29.8441C34.2253 29.766 34.3035 29.6026 34.3887 29.4392C33.8914 29.2616 33.0815 28.7714 32.8399 28.2812Z" fill="white"/>
<path d="M27.874 28.1249H31.5328V27.7199H30.4743C30.4743 27.4783 30.3109 27.3149 30.1475 27.3149H29.1741C29.0107 27.3149 28.8473 27.4783 28.8473 27.7199H27.874V28.1249Z" fill="white"/>
<path d="M29.2589 23.7272H30.3175C30.4809 23.7272 30.7225 23.5638 30.7225 23.4004H28.854C28.8469 23.5638 29.0103 23.7272 29.2589 23.7272Z" fill="white"/>
<path d="M30.396 23.1588C30.5594 21.8587 29.991 21.0417 30.1545 19.905H29.3445C29.5861 21.0417 29.0177 21.8587 29.1811 23.1588H30.396Z" fill="white"/>
<path d="M30.0693 17.8731H29.501V19.7487H30.0693V17.8731Z" fill="white"/>
<path d="M29.6641 17.6244C29.586 17.3829 29.586 17.1342 29.7423 16.8074C29.9838 17.1342 29.9838 17.461 29.8204 17.6244C30.2325 17.5463 30.3177 17.2976 30.2325 16.9708C30.2325 16.7293 29.9909 16.4024 29.8275 16.239C29.6641 16.3243 29.4226 16.5658 29.3373 16.8927C29.2592 17.2195 29.2591 17.5463 29.6641 17.6244Z" fill="white"/>
<path d="M25.9982 23.7272H26.9716C27.135 23.7272 27.2984 23.5638 27.2984 23.4004H25.5862C25.5933 23.5638 25.7567 23.7272 25.9982 23.7272Z" fill="white"/>
<path d="M27.0572 23.1588C27.1424 21.8587 26.6522 21.5319 26.8156 20.3952H26.0839C26.2473 21.5319 25.7571 21.8587 25.8423 23.1588H27.0572Z" fill="white"/>
<path d="M26.7302 19.0098H26.1619V20.2318H26.7302V19.0098Z" fill="white"/>
<path d="M26.4106 18.7611C26.2472 18.5196 26.2472 18.2709 26.4887 17.9441C26.6521 18.2709 26.6521 18.5977 26.4887 18.7611C26.8937 18.683 26.979 18.4343 26.8937 18.1075C26.8084 17.866 26.6521 17.5392 26.4887 17.3758C26.3253 17.4539 26.0838 17.7026 25.9985 18.0294C25.9985 18.3562 25.9985 18.683 26.4106 18.7611Z" fill="white"/>
<path d="M32.5917 23.7272H33.5721C33.8136 23.7272 33.977 23.5638 33.977 23.4004H32.272C32.2648 23.5638 32.4283 23.7272 32.5917 23.7272Z" fill="white"/>
<path d="M33.7349 23.1588C33.8131 21.8587 33.33 21.5319 33.4934 20.3952H32.7616C32.925 21.5319 32.4348 21.8587 32.5201 23.1588H33.7349Z" fill="white"/>
<path d="M33.3298 19.0098H32.8396V20.2318H33.3298V19.0098Z" fill="white"/>
<path d="M33.003 18.7611C32.9249 18.5196 32.9249 18.2709 33.0812 17.9441C33.3298 18.2709 33.2446 18.5977 33.1664 18.7611C33.4932 18.683 33.5714 18.4343 33.5714 18.1075C33.4932 17.866 33.2446 17.5392 33.0812 17.3758C33.003 17.4539 32.7544 17.7026 32.6762 18.0294C32.5909 18.3562 32.6762 18.683 33.003 18.7611Z" fill="white"/>
<path d="M33.3231 24.2174V23.9758H32.9182V24.2174C32.9182 24.3808 32.84 24.4589 32.6766 24.4589H29.9911V23.9687H29.5862V24.4589H26.8154C26.7373 24.4589 26.652 24.3808 26.652 24.2174V23.9758H26.2471V24.2174C26.2471 24.6223 26.4886 24.871 26.9007 24.871C29.2594 24.871 30.2327 24.871 32.6766 24.871C33.0816 24.8639 33.3231 24.6223 33.3231 24.2174Z" fill="white"/>
<path d="M75.8151 29.8015C75.9856 29.6097 76.149 29.3965 76.3124 29.1692C76.4758 28.9419 76.625 28.6648 76.7742 28.3309C76.9163 27.997 77.0512 27.5991 77.172 27.1231C77.2928 26.6471 77.3994 26.0717 77.4988 25.3825C77.5983 24.7005 77.6764 23.8906 77.7333 22.9599C77.7901 22.0292 77.8327 20.9351 77.8611 19.6847L76.0566 19.1945V18.5622C76.6108 18.5835 77.0726 18.6048 77.4562 18.6048C77.8327 18.612 78.188 18.612 78.5219 18.612C78.8558 18.612 79.1968 18.612 79.552 18.612C79.9072 18.612 80.3335 18.612 80.8379 18.612C81.5839 18.612 82.3512 18.612 83.1469 18.612C83.9426 18.612 84.8733 18.5906 85.9389 18.5551V19.2585L84.2268 19.6705V29.837L85.9389 30.2491V30.9524H81.1079V30.3201L82.7135 29.837V19.706H78.9126C78.8984 21.5816 78.8203 23.237 78.6711 24.6721C78.5219 26.1143 78.2803 27.3149 77.9606 28.2883C77.6338 29.2616 77.2217 29.9933 76.7102 30.4906C76.1987 30.988 75.5806 31.2366 74.8417 31.2366C74.3586 31.2366 73.9679 31.13 73.6695 30.9098C73.3711 30.6967 73.2219 30.4196 73.2219 30.0786C73.2219 29.8512 73.2645 29.6381 73.3569 29.4463C73.4493 29.2545 73.5558 29.0911 73.6908 28.9561L75.8151 29.8015Z" fill="white"/>
<path d="M92.7593 23.3435C93.143 23.2583 93.5479 23.1943 93.9813 23.1446C94.4076 23.0949 94.8125 23.0736 95.2033 23.0736C95.9279 23.0736 96.5816 23.1659 97.1712 23.3506C97.7609 23.5354 98.2653 23.7982 98.6774 24.1463C99.0965 24.4874 99.4162 24.9065 99.6436 25.3896C99.8709 25.8727 99.9846 26.4269 99.9846 27.0379C99.9846 27.5636 99.8922 28.068 99.7146 28.544C99.537 29.02 99.2742 29.4321 98.926 29.7873C98.585 30.1425 98.1659 30.4267 97.6827 30.6327C97.1925 30.8459 96.6455 30.9453 96.0274 30.9453C95.4022 30.9453 94.7628 30.9382 94.1021 30.9169C93.4414 30.8956 92.7949 30.8885 92.1626 30.8885C91.7505 30.8885 91.3456 30.8885 90.9335 30.8885C90.5214 30.8885 90.1023 30.9027 89.6689 30.924L89.6121 30.2917L91.2319 29.7873V19.6847L89.6263 19.1803V18.5693L94.4573 18.5551V19.294L92.7451 19.6705V23.3435H92.7593ZM94.8907 24.1179C94.5212 24.1179 94.1589 24.1392 93.8179 24.1748C93.4769 24.2103 93.1217 24.2671 92.7665 24.3382V29.6381C92.9085 29.6878 93.0861 29.7305 93.2922 29.766C93.4982 29.8015 93.7042 29.837 93.9245 29.8654C94.1376 29.8939 94.3507 29.9152 94.5568 29.9294C94.7628 29.9436 94.9333 29.9507 95.0825 29.9507C95.7432 29.9507 96.2903 29.8726 96.7308 29.7091C97.1712 29.5457 97.5193 29.3326 97.7822 29.0626C98.0451 28.7927 98.2298 28.4872 98.3293 28.1462C98.4287 27.8051 98.4856 27.457 98.4856 27.0947C98.4856 26.6968 98.4216 26.3203 98.2937 25.9651C98.1659 25.6028 97.9598 25.2902 97.6827 25.0202C97.3986 24.7502 97.0291 24.5371 96.5745 24.3737C96.1127 24.2032 95.5514 24.1179 94.8907 24.1179Z" fill="white"/>
<path d="M103.828 19.1803L103.92 18.5338C104.212 18.548 104.503 18.5551 104.794 18.5622C105.085 18.5693 105.384 18.5693 105.689 18.5693C106.3 18.5693 106.94 18.5622 107.6 18.5551C108.261 18.5409 108.886 18.5338 109.476 18.5338C110.243 18.5338 110.869 18.6332 111.352 18.8393C111.835 19.0453 112.211 19.294 112.481 19.5995C112.751 19.8978 112.936 20.2104 113.028 20.5372C113.128 20.8641 113.17 21.1411 113.17 21.3685C113.17 21.7521 113.099 22.0931 112.957 22.3844C112.815 22.6757 112.63 22.9315 112.417 23.1517C112.204 23.3648 111.963 23.5424 111.693 23.6774C111.43 23.8124 111.167 23.8977 110.918 23.9474V24.0042C111.913 24.1463 112.673 24.5158 113.199 25.1125C113.725 25.7093 113.98 26.4482 113.98 27.3362C113.98 27.862 113.881 28.3522 113.675 28.7998C113.469 29.2473 113.192 29.6239 112.844 29.9436C112.495 30.2633 112.083 30.5119 111.607 30.6895C111.131 30.8672 110.62 30.9595 110.066 30.9595C109.441 30.9595 108.801 30.9524 108.147 30.9311C107.494 30.9098 106.847 30.9027 106.208 30.9027C105.803 30.9027 105.391 30.9027 104.979 30.9027C104.567 30.9027 104.148 30.9169 103.714 30.9382L103.657 30.3059L105.277 29.8015V19.6137L103.828 19.1803ZM108.247 23.6348C108.993 23.6206 109.59 23.5353 110.052 23.3648C110.506 23.1943 110.861 23.0025 111.103 22.7894C111.352 22.5762 111.515 22.3489 111.6 22.1215C111.686 21.8942 111.728 21.7095 111.728 21.5603C111.728 20.8356 111.458 20.317 110.925 19.9902C110.393 19.6634 109.654 19.5 108.716 19.5C108.645 19.5 108.531 19.5 108.375 19.5071C108.219 19.5142 108.048 19.5213 107.863 19.5284C107.679 19.5355 107.487 19.5497 107.295 19.5639C107.103 19.5852 106.94 19.5995 106.805 19.6279V29.631C106.947 29.6807 107.124 29.7233 107.33 29.7589C107.537 29.7944 107.743 29.8299 107.963 29.8583C108.176 29.8867 108.389 29.9081 108.595 29.9223C108.801 29.9365 108.972 29.9436 109.121 29.9436C110.272 29.9436 111.124 29.702 111.678 29.2189C112.233 28.7358 112.51 28.1035 112.51 27.322C112.51 26.9242 112.439 26.5618 112.304 26.2279C112.169 25.894 111.934 25.6027 111.6 25.3541C111.266 25.1054 110.833 24.9136 110.293 24.7715C109.753 24.6294 109.078 24.5513 108.275 24.5371L108.133 23.7769L108.247 23.6348Z" fill="white"/>
<path d="M123.138 30.2491V30.9524H118.307V30.3201L119.913 29.8299V19.6847L118.307 19.1945V18.5622H123.138V19.2655L121.426 19.6776V29.837L123.138 30.2491Z" fill="white"/>
<path d="M127.358 19.1803L127.451 18.5338C127.742 18.548 128.033 18.5551 128.324 18.5622C128.623 18.5693 128.914 18.5693 129.22 18.5693C129.831 18.5693 130.47 18.5622 131.131 18.5551C131.791 18.548 132.417 18.5338 133.006 18.5338C133.774 18.5338 134.399 18.6332 134.882 18.8393C135.365 19.0453 135.742 19.294 136.012 19.5995C136.281 19.8978 136.466 20.2104 136.559 20.5372C136.651 20.8641 136.701 21.1411 136.701 21.3685C136.701 21.7521 136.63 22.0931 136.488 22.3844C136.345 22.6757 136.161 22.9315 135.948 23.1517C135.734 23.3648 135.493 23.5424 135.223 23.6774C134.96 23.8124 134.697 23.8977 134.449 23.9474V24.0042C135.443 24.1463 136.203 24.5158 136.729 25.1125C137.255 25.7093 137.511 26.4482 137.511 27.3362C137.511 27.862 137.411 28.3522 137.205 28.7998C136.999 29.2473 136.722 29.6239 136.374 29.9436C136.026 30.2633 135.614 30.5119 135.138 30.6895C134.662 30.8672 134.15 30.9595 133.596 30.9595C132.971 30.9595 132.331 30.9524 131.678 30.9311C131.024 30.9098 130.378 30.9027 129.738 30.9027C129.333 30.9027 128.921 30.9027 128.509 30.9027C128.104 30.9027 127.678 30.9169 127.245 30.9382L127.188 30.3059L128.808 29.8015V19.6137L127.358 19.1803ZM131.777 23.6348C132.523 23.6206 133.12 23.5353 133.582 23.3648C134.036 23.1943 134.392 23.0025 134.633 22.7894C134.882 22.5762 135.045 22.3489 135.131 22.1215C135.216 21.8942 135.258 21.7095 135.258 21.5603C135.258 20.8356 134.988 20.317 134.456 19.9902C133.923 19.6634 133.184 19.5 132.246 19.5C132.175 19.5 132.061 19.5 131.905 19.5071C131.749 19.5142 131.578 19.5213 131.394 19.5284C131.209 19.5355 131.017 19.5497 130.825 19.5639C130.633 19.5852 130.47 19.5995 130.335 19.6279V29.631C130.477 29.6807 130.655 29.7233 130.861 29.7589C131.067 29.7944 131.273 29.8299 131.493 29.8583C131.706 29.8867 131.919 29.9081 132.125 29.9223C132.331 29.9365 132.502 29.9436 132.651 29.9436C133.802 29.9436 134.655 29.702 135.209 29.2189C135.763 28.7358 136.04 28.1035 136.04 27.322C136.04 26.9242 135.969 26.5618 135.834 26.2279C135.692 25.894 135.457 25.6027 135.131 25.3541C134.797 25.1054 134.363 24.9136 133.823 24.7715C133.283 24.6294 132.608 24.5513 131.806 24.5371L131.664 23.7769L131.777 23.6348Z" fill="white"/>
<path d="M141.837 25.006C141.837 24.2031 141.929 23.3932 142.107 22.5904C142.284 21.7876 142.59 21.063 143.016 20.4165C143.443 19.77 144.004 19.2513 144.693 18.8464C145.382 18.4414 146.242 18.2425 147.265 18.2425C147.684 18.2425 148.146 18.2851 148.643 18.3775C149.14 18.4698 149.68 18.6688 150.256 18.9814L150.632 18.2567H151.229L151.3 21.7521L150.618 21.8231L150.021 20.0399C149.673 19.7984 149.282 19.6208 148.856 19.5C148.43 19.3792 147.911 19.3224 147.314 19.3224C146.597 19.3224 145.986 19.4716 145.482 19.77C144.984 20.0683 144.579 20.4733 144.274 20.9777C143.968 21.4821 143.748 22.0718 143.613 22.7325C143.478 23.4003 143.414 24.0966 143.414 24.8354C143.414 25.4962 143.464 26.1427 143.556 26.7608C143.656 27.386 143.847 27.9472 144.139 28.4374C144.437 28.9276 144.856 29.3255 145.403 29.6239C145.95 29.9223 146.675 30.0714 147.577 30.0714C148.153 30.0714 148.735 30.0359 149.318 29.9649C149.9 29.8938 150.483 29.7517 151.073 29.5528L151.364 30.3982C150.774 30.6966 150.128 30.9098 149.425 31.0377C148.721 31.1655 148.025 31.2295 147.343 31.2295C145.553 31.2295 144.181 30.7037 143.244 29.6523C142.306 28.615 141.837 27.0591 141.837 25.006Z" fill="white"/>
<path d="M157.773 23.3435C158.156 23.2583 158.568 23.1943 158.995 23.1446C159.421 23.0949 159.826 23.0736 160.216 23.0736C160.941 23.0736 161.595 23.1659 162.184 23.3506C162.774 23.5354 163.279 23.7982 163.691 24.1463C164.11 24.4874 164.429 24.9065 164.657 25.3896C164.884 25.8727 164.998 26.4269 164.998 27.0379C164.998 27.5636 164.905 28.068 164.728 28.544C164.543 29.02 164.287 29.4321 163.939 29.7873C163.598 30.1425 163.179 30.4267 162.696 30.6327C162.206 30.8459 161.659 30.9453 161.041 30.9453C160.415 30.9453 159.776 30.9382 159.115 30.9169C158.462 30.8956 157.815 30.8885 157.176 30.8885C156.764 30.8885 156.359 30.8885 155.947 30.8885C155.535 30.8885 155.115 30.9027 154.682 30.924L154.625 30.2917L156.245 29.7873V19.6847L154.639 19.1803V18.5693L159.471 18.5551V19.294L157.758 19.6705V23.3435H157.773ZM159.897 24.1179C159.527 24.1179 159.165 24.1392 158.824 24.1748C158.483 24.2103 158.128 24.2671 157.773 24.3382V29.6381C157.915 29.6878 158.092 29.7305 158.298 29.766C158.504 29.8015 158.71 29.837 158.931 29.8654C159.144 29.8939 159.357 29.9152 159.563 29.9294C159.769 29.9436 159.939 29.9507 160.089 29.9507C160.749 29.9507 161.296 29.8726 161.737 29.7091C162.177 29.5457 162.525 29.3326 162.788 29.0626C163.051 28.7927 163.236 28.4872 163.335 28.1462C163.435 27.8051 163.485 27.457 163.485 27.0947C163.485 26.6968 163.421 26.3203 163.293 25.9651C163.165 25.6028 162.966 25.2902 162.682 25.0202C162.398 24.7502 162.028 24.5371 161.573 24.3737C161.119 24.2032 160.557 24.1179 159.897 24.1179Z" fill="white"/>
<path d="M173.509 30.2491V30.9524H168.678V30.3201L170.284 29.8299V19.6847L168.678 19.1945V18.5622H173.509V19.2656L171.797 19.6776V29.837L173.509 30.2491ZM172.444 24.5726V24.2458L176.244 19.5782L175.094 19.2158V18.5125H178.951V19.2869C178.518 19.4574 178.07 19.706 177.601 20.0328C177.133 20.3667 176.699 20.7575 176.301 21.2122L173.722 24.1534L179.797 30.4835L179.669 30.9737L178.262 31.2792L172.444 24.5726Z" fill="white"/>
<path d="M188.002 30.2491V30.9524H183.171V30.3201L184.777 29.8299V19.6847L183.171 19.1945V18.5622H188.002V19.2656L186.29 19.6776V27.6488L192.236 20.3454V19.6776L190.631 19.1874V18.5551H195.462V19.2585L193.75 19.6705V29.837L195.462 30.2491V30.9524H190.631V30.3201L192.236 29.8299V21.9226L186.304 29.1905L186.29 29.2118V29.8441L188.002 30.2491Z" fill="white"/>
<path d="M204.123 30.2491V30.9524H199.292V30.3201L200.897 29.8299V19.6847L199.292 19.1945V18.5622H204.123V19.2656L202.41 19.6776V27.6488L208.364 20.3454V19.6776L206.758 19.1874V18.5551H211.589V19.2585L209.877 19.6705V29.837L211.589 30.2491V30.9524H206.758V30.3201L208.364 29.8299V21.9226L202.432 29.1905L202.41 29.2118V29.8441L204.123 30.2491ZM202.95 15.6139L203.924 15.0384C204.044 15.2444 204.179 15.4362 204.336 15.621C204.492 15.8057 204.648 15.9691 204.812 16.097C204.975 16.2319 205.131 16.3314 205.281 16.4096C205.43 16.4877 205.565 16.5232 205.686 16.5232C205.792 16.5232 205.92 16.509 206.055 16.4806C206.19 16.4522 206.353 16.3882 206.538 16.303C206.723 16.2106 206.936 16.0827 207.17 15.9122C207.405 15.7417 207.661 15.5144 207.938 15.2302L208.463 15.6423C207.973 16.3527 207.476 16.8429 206.979 17.12C206.481 17.3971 206.012 17.5321 205.579 17.5321C205.288 17.5321 205.018 17.4823 204.762 17.3758C204.506 17.2763 204.258 17.1413 204.03 16.985C203.803 16.8287 203.597 16.6511 203.419 16.4522C203.242 16.2533 203.085 16.0543 202.95 15.8483V15.6139Z" fill="white"/>
<path d="M78.6288 44.8559H77.8189L74.3235 37.6093L73.1157 37.2825L73.1868 36.5792H75.9433C75.9646 36.842 76.0286 37.1404 76.1209 37.4743C76.2204 37.8082 76.334 38.1279 76.4832 38.4405L78.9698 43.9181H79.0266C79.2185 43.4705 79.4103 43.0229 79.6021 42.5753C79.7939 42.1278 79.9929 41.6518 80.1918 41.1615C80.3907 40.6713 80.6038 40.1456 80.8312 39.5844C81.0585 39.0231 81.3214 38.4192 81.6056 37.7727L79.9289 37.3607V36.5863H84.0921V37.3109C83.6943 37.4814 83.3106 37.7585 82.9412 38.1564C82.5718 38.5542 82.2521 39.0586 81.9892 39.6696L78.9414 46.5752C78.5933 47.4064 78.1741 48.0671 77.691 48.5644C77.2008 49.0617 76.6253 49.3104 75.9504 49.3104C75.4105 49.3104 74.9984 49.1896 74.7142 48.9552C74.4301 48.7207 74.288 48.4507 74.288 48.131C74.288 47.9534 74.3377 47.7687 74.4443 47.5911C74.5437 47.4135 74.7142 47.243 74.9416 47.0867L76.6537 47.989C76.8811 47.9037 77.1226 47.7048 77.3784 47.3922C77.6271 47.0796 77.8402 46.7244 78.0107 46.3265L78.6288 44.8559Z" fill="white"/>
<path d="M91.5373 48.2803V48.9836H86.7063V48.3513L88.3119 47.8682V37.7159L86.7063 37.2328V36.6005H91.5373V37.3038L89.8252 37.7159V42.0638H95.8071V37.7159L94.2015 37.2328V36.6005H99.0326V37.3038L97.3204 37.7159V47.8682L99.0326 48.2803V48.9836H94.2015V48.3513L95.8071 47.8682V43.0158H89.8252V47.8682L91.5373 48.2803Z" fill="white"/>
<path d="M107.473 48.2803V48.9836H102.642V48.3513L104.247 47.8682V37.7159L102.642 37.2328V36.6005H107.473V37.3038L105.761 37.7159V47.8682L107.473 48.2803Z" fill="white"/>
<path d="M111.153 37.2114L111.245 36.5649C111.536 36.5791 111.828 36.5862 112.119 36.5933C112.41 36.6005 112.709 36.6005 113.014 36.6005C113.625 36.6005 114.264 36.5934 114.925 36.5791C115.586 36.5649 116.211 36.5578 116.801 36.5578C117.568 36.5578 118.193 36.6573 118.676 36.8633C119.159 37.0694 119.536 37.318 119.806 37.6235C120.076 37.9219 120.261 38.2345 120.353 38.5613C120.445 38.8881 120.495 39.1652 120.495 39.3925C120.495 39.7762 120.424 40.1172 120.275 40.4085C120.133 40.7068 119.948 40.9555 119.735 41.1757C119.522 41.3889 119.28 41.5665 119.01 41.6944C118.747 41.8293 118.492 41.9146 118.236 41.9643V42.0212C119.231 42.1633 119.991 42.5327 120.516 43.1295C121.042 43.7262 121.298 44.4651 121.298 45.3532C121.298 45.886 121.198 46.3691 120.992 46.8167C120.786 47.2643 120.509 47.6408 120.161 47.9605C119.813 48.2802 119.401 48.5289 118.925 48.7065C118.449 48.8841 117.937 48.9765 117.383 48.9765C116.758 48.9765 116.119 48.9693 115.465 48.948C114.812 48.9267 114.165 48.9196 113.526 48.9196C113.121 48.9196 112.709 48.9196 112.297 48.9196C111.892 48.9196 111.465 48.9338 111.032 48.9551L110.975 48.3228L112.595 47.8184V37.6306L111.153 37.2114ZM115.565 41.6659C116.311 41.6517 116.907 41.5665 117.369 41.396C117.824 41.2255 118.179 41.0337 118.421 40.8205C118.669 40.6074 118.833 40.38 118.918 40.1527C119.003 39.9254 119.046 39.7406 119.046 39.5914C119.046 38.8668 118.776 38.3482 118.243 38.0214C117.71 37.6945 116.971 37.5311 116.033 37.5311C115.962 37.5311 115.849 37.5311 115.692 37.5382C115.536 37.5454 115.366 37.5525 115.181 37.5525C114.996 37.5596 114.804 37.5738 114.613 37.588C114.421 37.6093 114.257 37.6235 114.122 37.6519V47.6621C114.264 47.7119 114.442 47.7545 114.648 47.79C114.854 47.8255 115.06 47.8611 115.28 47.8895C115.494 47.9179 115.707 47.9392 115.913 47.9534C116.119 47.9676 116.289 47.9676 116.438 47.9676C117.589 47.9676 118.442 47.7261 118.996 47.243C119.55 46.7599 119.827 46.1276 119.827 45.3461C119.827 44.9482 119.756 44.5859 119.621 44.252C119.486 43.9181 119.252 43.6268 118.918 43.3781C118.584 43.1295 118.151 42.9377 117.611 42.7956C117.071 42.6535 116.396 42.5753 115.593 42.5611L115.451 41.8009L115.565 41.6659Z" fill="white"/>
<path d="M134.441 45.4314L134.008 48.7989L133.809 48.9765C133.376 48.9765 132.992 48.9765 132.665 48.9694C132.331 48.9623 132.005 48.9552 131.685 48.9481C131.358 48.941 131.017 48.9339 130.648 48.9268C130.278 48.9197 129.852 48.9197 129.362 48.9197C129.049 48.9197 128.701 48.9197 128.31 48.9197C127.919 48.9197 127.515 48.9197 127.102 48.9268C126.69 48.9339 126.271 48.941 125.859 48.9481C125.447 48.9552 125.063 48.9623 124.715 48.9765L124.644 48.3655L126.25 47.8611V37.6591L124.793 37.2257L124.886 36.5792C125.184 36.5934 125.554 36.6005 125.987 36.6076C126.42 36.6147 126.861 36.6147 127.301 36.6147C127.749 36.6147 128.161 36.6147 128.552 36.6147C128.942 36.6147 129.255 36.6147 129.497 36.6147C129.902 36.6147 130.264 36.6147 130.569 36.6076C130.875 36.6005 131.173 36.5934 131.465 36.5934C131.756 36.5863 132.047 36.5792 132.353 36.5721C132.658 36.565 133.02 36.5579 133.447 36.5437L133.646 36.6502L133.738 40.0249L132.999 40.1172L132.331 37.6662C132.161 37.6662 131.862 37.6662 131.436 37.6662C131.01 37.6662 130.555 37.6662 130.065 37.6591C129.582 37.652 129.12 37.652 128.687 37.652C128.253 37.652 127.948 37.652 127.77 37.652V42.071L132.658 41.9289V43.1153L127.77 42.9732V47.9108C127.983 47.9108 128.324 47.9108 128.786 47.9108C129.248 47.9108 129.738 47.9108 130.257 47.9037C130.775 47.8966 131.266 47.8895 131.727 47.8895C132.189 47.8824 132.53 47.8824 132.743 47.8824L133.88 45.2893L134.441 45.4314Z" fill="white"/>
<path d="M137.723 36.5578C137.88 36.5578 138.015 36.5578 138.128 36.5649C138.242 36.572 138.363 36.572 138.498 36.572C138.633 36.572 138.789 36.572 138.981 36.5792C139.173 36.5863 139.428 36.5863 139.741 36.5863C140.245 36.5863 140.793 36.5792 141.375 36.5578C141.958 36.5365 142.519 36.5294 143.059 36.5294C143.67 36.5294 144.238 36.5934 144.757 36.7283C145.275 36.8633 145.716 37.0694 146.092 37.3535C146.462 37.6377 146.753 38 146.966 38.4476C147.172 38.8952 147.279 39.4209 147.279 40.0319C147.279 40.5506 147.179 41.0408 146.988 41.5026C146.796 41.9643 146.505 42.3764 146.114 42.7316C145.723 43.0868 145.24 43.371 144.672 43.5771C144.103 43.7902 143.435 43.8897 142.682 43.8897C142.476 43.8897 142.192 43.8826 141.837 43.8612C141.475 43.8399 141.07 43.7831 140.608 43.6907V47.854L142.32 48.2518V48.9694H137.51V48.3371L139.095 47.854V37.6306L137.638 37.1972L137.723 36.5578ZM145.709 40.2237C145.709 39.7335 145.624 39.3144 145.46 38.9734C145.29 38.6323 145.055 38.3482 144.75 38.135C144.444 37.9219 144.075 37.7656 143.641 37.6661C143.208 37.5738 142.725 37.524 142.185 37.524C141.624 37.524 141.098 37.5809 140.615 37.6874V42.7529C140.906 42.8169 141.197 42.8524 141.496 42.8737C141.794 42.8879 142.014 42.9021 142.142 42.9021C142.874 42.9021 143.471 42.824 143.933 42.6677C144.394 42.5114 144.757 42.3054 145.027 42.0567C145.29 41.8009 145.474 41.5168 145.567 41.1971C145.659 40.8631 145.709 40.5434 145.709 40.2237Z" fill="white"/>
<path d="M150.703 43.03C150.703 42.2272 150.796 41.4173 150.973 40.6145C151.151 39.8117 151.456 39.0871 151.883 38.4405C152.309 37.8011 152.87 37.2754 153.559 36.8705C154.248 36.4655 155.108 36.2666 156.131 36.2666C156.55 36.2666 157.012 36.3092 157.509 36.4016C158.007 36.4939 158.547 36.6928 159.122 37.0054L159.499 36.2808H160.095L160.167 39.7762L159.484 39.8472L158.888 38.064C158.54 37.8225 158.149 37.6448 157.723 37.5241C157.296 37.4033 156.785 37.3465 156.181 37.3465C155.463 37.3465 154.852 37.4956 154.348 37.794C153.851 38.0924 153.446 38.4974 153.14 39.0018C152.835 39.5062 152.614 40.0959 152.479 40.7566C152.345 41.4244 152.281 42.1207 152.281 42.8595C152.281 43.5202 152.33 44.1667 152.423 44.7848C152.522 45.41 152.714 45.9713 153.012 46.4615C153.304 46.9517 153.73 47.3496 154.277 47.6479C154.824 47.9463 155.549 48.0955 156.451 48.0955C157.026 48.0955 157.609 48.06 158.191 47.989C158.774 47.9179 159.364 47.7758 159.946 47.5769L160.238 48.4223C159.648 48.7207 159.001 48.9339 158.298 49.0617C157.595 49.1896 156.898 49.2536 156.216 49.2536C154.426 49.2536 153.055 48.7278 152.117 47.6764C151.179 46.6249 150.703 45.0903 150.703 43.03Z" fill="white"/>
<path d="M167.904 48.2803V48.9836H163.073V48.3513L164.678 47.8682V37.7159L163.073 37.2328V36.6005H167.904V37.3038L166.192 37.7159V45.6871L172.138 38.3837V37.7159L170.532 37.2328V36.6005H175.364V37.3038L173.651 37.7159V47.8682L175.364 48.2803V48.9836H170.532V48.3513L172.138 47.8682V39.9538L166.206 47.2217L166.185 47.243V47.8753L167.904 48.2803Z" fill="white"/>
<path d="M184.13 47.8611L185.842 48.2731V48.9765H181.011V48.3442L182.617 47.854V37.6164H179.498L178.83 40.0888L178.091 39.9964L178.183 36.6431L178.382 36.5365C178.816 36.5507 179.221 36.5578 179.611 36.572C179.995 36.5863 180.379 36.5934 180.762 36.6005C181.146 36.6076 181.551 36.6076 181.97 36.6076C182.389 36.6076 182.858 36.6076 183.377 36.6076C183.831 36.6076 184.265 36.6076 184.677 36.6076C185.089 36.6076 185.487 36.6076 185.885 36.6005C186.283 36.5934 186.68 36.5863 187.085 36.572C187.49 36.5578 187.917 36.5507 188.371 36.5365L188.57 36.6431L188.663 39.9964L187.924 40.0888L187.256 37.6164H184.137V47.8611H184.13Z" fill="white"/>
<path d="M201.074 45.4314L200.641 48.7989L200.442 48.9765C200.008 48.9765 199.625 48.9765 199.298 48.9694C198.964 48.9623 198.637 48.9552 198.317 48.9481C197.991 48.941 197.65 48.9339 197.28 48.9268C196.911 48.9197 196.484 48.9197 195.994 48.9197C195.682 48.9197 195.334 48.9197 194.943 48.9197C194.552 48.9197 194.147 48.9197 193.735 48.9268C193.323 48.9339 192.904 48.941 192.492 48.9481C192.08 48.9552 191.696 48.9623 191.348 48.9765L191.277 48.3655L192.882 47.8611V37.6591L191.426 37.2257L191.518 36.5792C191.817 36.5934 192.186 36.6005 192.62 36.6076C193.053 36.6147 193.493 36.6147 193.934 36.6147C194.382 36.6147 194.794 36.6147 195.184 36.6147C195.575 36.6147 195.888 36.6147 196.129 36.6147C196.534 36.6147 196.896 36.6147 197.202 36.6076C197.507 36.6005 197.806 36.5934 198.097 36.5934C198.388 36.5863 198.687 36.5792 198.992 36.5721C199.298 36.565 199.66 36.5579 200.086 36.5437L200.285 36.6502L200.378 40.0249L199.639 40.1172L198.971 37.6662C198.801 37.6662 198.502 37.6662 198.076 37.6662C197.65 37.6662 197.195 37.6662 196.705 37.6591C196.222 37.652 195.76 37.652 195.326 37.652C194.893 37.652 194.588 37.652 194.41 37.652V42.071L199.298 41.9289V43.1153L194.41 42.9732V47.9108C194.623 47.9108 194.964 47.9108 195.426 47.9108C195.888 47.9108 196.378 47.9108 196.897 47.9037C197.415 47.8966 197.905 47.8895 198.367 47.8895C198.829 47.8824 199.17 47.8824 199.383 47.8824L200.52 45.2893L201.074 45.4314Z" fill="white"/>
<path d="M209.727 47.8611L211.439 48.2731V48.9765H206.608V48.3442L208.214 47.854V37.6164H205.095L204.427 40.0888L203.688 39.9964L203.781 36.6431L203.98 36.5365C204.413 36.5507 204.818 36.5578 205.209 36.572C205.592 36.5863 205.976 36.5934 206.36 36.6005C206.743 36.6076 207.148 36.6076 207.567 36.6076C207.986 36.6076 208.455 36.6076 208.974 36.6076C209.429 36.6076 209.862 36.6076 210.274 36.6076C210.679 36.6076 211.084 36.6076 211.482 36.6005C211.88 36.5934 212.278 36.5863 212.683 36.572C213.087 36.5578 213.514 36.5507 213.968 36.5365L214.167 36.6431L214.26 39.9964L213.521 40.0888L212.853 37.6164H209.734V47.8611H209.727Z" fill="white"/>
</svg>
