<svg width="2864" height="2605" viewBox="0 0 2864 2605" fill="none" xmlns="http://www.w3.org/2000/svg">
<path d="M735 67L594 365.5L844.5 477L896 461.5L1025.5 782L1419 627L2340 891.5V1239H1932V1516H2340V2053.5H2610V1009.5L2704 1003.5V629L2270 559L2254 584.5L1154.5 280L1161.5 255L735 67Z" fill="#23292E"/>
<path fill-rule="evenodd" clip-rule="evenodd" d="M1061.47 547.845L1057.68 538.924L1061.32 547.924L1061.47 547.845Z" fill="#525865"/>
<path fill-rule="evenodd" clip-rule="evenodd" d="M1068.76 564.988L1064.97 556.067L1068.61 565.067L1068.76 564.988Z" fill="#525865"/>
<path fill-rule="evenodd" clip-rule="evenodd" d="M1074.88 581.412L1071.08 572.491L1074.72 581.491L1074.88 581.412Z" fill="#525865"/>
<path d="M2508.5 1634.78H2489.5V1649.78H2508.5V1661.28H2532.5V1587.5H2508.5V1634.78Z" fill="#525865"/>
<path d="M2510 1998.28H2532.5V1893H2549V1879H2532.5V1714H2549V1701H2532.5V1686H2508.63L2509.5 1846.75H2495.5V1865.75H2510V1998.28Z" fill="#525865"/>
<path fill-rule="evenodd" clip-rule="evenodd" d="M884.5 472.5L848.5 487.5L575 370.5L727 49L1165.5 243L1180 249L1176.5 262.5L1175 268.5L1783 437.5L2254.5 567.5L2260 542.5L2719.5 616V1022L2620 1021V1998.28V2048.5V2067.78H2517.5H2325V1525.5H1920.5V1223.26H2326V895L2056.5 818L1491 661L1415 639.5L1017 798L884.5 472.5ZM2476 1311H2509L2509 1335H2532.5L2533 1207.5H2509.5L2509 1292.5H2476H2353V1251.28V1083H2376V1073.5H2353V1012H2376V1005H2353V900.5L2468.5 931L2508.86 975.5V1005H2428.5H2409.5V1012H2508.86V1026H2532.5V975.5L2502 942L2477.5 915C2461.92 910.454 2416.42 897.187 2358 880.232L2369.08 851.5L2363.33 850L2353 878.781C2307.74 865.648 2255.2 850.437 2203 835.406L2232 766.136L2377.5 810.5L2370.41 830.25L2376.59 832L2387 805L2184 743.5L2181.5 751L2223.6 763.575L2195 833.103C2152.09 820.753 2109.67 808.603 2072 797.91L2095.5 730.5L2146 742.5L2149 733.5L2068.5 713.357L2066 721.357L2086 727L2063.5 795.5C2021.51 783.599 1972.9 769.83 1923 755.782L1942.5 690.5L2023 710.5L2026.5 701.5L1841 652.5L1838 662.182L1929 687L1910.13 752.161C1863.02 738.913 1815.15 725.537 1770.96 713.357L1787.69 650.352L1801.69 653.852L1804.5 644L1726.5 622.5L1723 633L1779.5 648.5L1762.5 711.458C1736.81 704.381 1714.53 698.33 1693.03 692.491L1692.97 692.474L1692.84 692.439L1692.84 692.438L1692.8 692.428C1677.51 688.277 1662.62 684.232 1647.17 680L1666.42 617.5L1693.5 625L1696.5 614.5L1574.5 580.5L1571.57 590.5L1657 614.5L1637.5 677.352C1555.47 654.892 1498.82 639.5 1498.82 639.5L1519.5 577.5L1541 583L1543.5 573.5L1514 566L1491 636.748L1415 610L1300.5 570.337L1295.5 582L1408.5 619.5L1273.5 669.5L1226 557L1272.5 574.364L1277.5 562.369L1180.18 529.5L1176.54 539.086L1212.5 552L1260.5 675L1195 702.5L1122 519.5L1154.02 531L1157.5 522L1109 504L1088.12 510L1091 517.5L1109 513.5L1130.5 573.5L1079.36 592.529L1074.72 581.491L1053.5 531L1071 524L1068.61 516L1047.5 524L1035.94 504L1027.44 508.5L1038 529.5L1010 541.434L1013.5 548.681L1045.5 534L1069.86 596.134L1043.86 606L1047.64 613.5L1134.6 582L1184.43 706.5L1029.5 768.5L974.431 639.566L1013 625L1009.36 618L971.362 632.5L949.555 576.5L985.5 560.862L982 553.369L946.5 568.5L926.744 515.5L1014.45 483L1018.36 490.5L1026.36 486.5L1022.45 479L1013.5 468L962.55 443.5L959.625 450L1009.58 474.5L924 508L899.5 452.5L909.269 425.5L936.269 440L939.02 433L911.5 418.5L919 394.5L891.5 382L887.5 391.5L906 400.5L887.5 455L856 466.5L806.462 444.5L842 374L864.5 383L869 374L689.5 296.5L694 288L685.5 284L676.5 302L831.39 369.5L795.5 439.565L683.188 389L611 356.5L663.064 244L697.038 259.5L694 266L702.5 270L706 263.589L725.5 272.486L732.161 259.5L671 230L738.5 81L825.5 122L955 180.5L883.5 326L766.5 272.486L759 285.5L990 386L995.5 374L895.5 330.5L967 186L1145 258.5L1079.5 406.5L1031 386L1025.5 399.5L1087 423L1224 473.5L1227.5 464L1192.5 450L1214.5 397.459L1204.69 393L1182 446.5L1092 413L1150 290.573L1237.85 313.644L1216.14 365.603L1226 369.5L1247.98 316.618L1329.39 338.349L1281 483.129L1253.5 473.5L1250 483.129L1330.5 513.017L1333 503.017L1291 486.5L1338.5 341L1431.5 365.603L1376 517.5L1358.5 511.5L1355.89 521.415L1405.5 536.702L1409 527.97L1385.5 520.5L1441.5 368.268L1555.5 398.653L1524.64 503.899L1482.5 491.5L1461 544.5L1435 536.235L1432 544.869L1466.5 555.5L1488.5 502L1553.5 521L1556 513L1533.64 506.899L1565.51 401.255L1739 448L1707.5 554L1592 523L1589.5 531L1818.5 594L1822 586.5L1716.5 556.5L1747.5 450.5L1929.37 503.509L1902 608L1855.13 596.276L1852.5 603L2040.5 655.5L2043 648L1910.13 610.509L1937 506.235L2136.5 559.147L2105.63 664.534L2089.13 660.034L2086 667.534L2146 684L2149 676.5L2114.63 667.534L2146.5 561.89L2248.5 591L2219.63 697L2195 689.5L2192.5 697L2303.5 730L2306 722.5L2235.13 700.5L2270 571L2291.5 574.5L2428.87 596.5L2411.37 669.5L2392.5 746L2337.5 730L2335.5 738L2449.5 771.861L2452.5 763.575L2398.63 747.5L2418.5 671L2436.5 598L2585 624L2567.5 684.5L2575 686.5L2593 626L2690 640.5V752.775H2596.5L2559.5 743L2565.5 719.5L2558.5 718.275L2540.5 788L2488.5 773.556L2486 782.2L2596.5 813.5V853.5V881.275V944.775H2619.5V909.5L2619.49 898.5L2619.5 888.612V878.781V868.894V859.031V849.394V829.394V818.894V771.275H2690V818.894V829.394V839.394V849.394V859.031V868.894V878.781V888.612V898.5V909.5V991H2620V975.5H2596.5V1277.27V1422.5V1428.5V1501.28H2580V1519.28H2596.5V1701H2580V1714H2596.5V1879H2580V1893H2596.5V2048.5H2532.5V2031.36H2510L2509.5 2048.5H2353V1956.5V1865.75H2467V1846.75H2353V1649.78H2465.5V1634.86L2353 1635.28V1519.28H2479H2508.5V1557H2532.5V1519.28H2549V1501.28H2532.5V1477.5H2509.5V1501.28H2479.27H2479H2353.77V1477.5H2325V1501.28H2202H2111V1477.5H2099V1501.28H1941V1427.28H1958V1409.78H1941V1251.28H2063.5V1325.5V1409.78H1997.5V1427.28H2099V1447H2111V1427.28H2129V1409.78H2078V1325.5V1251.28H2201.5V1409.78H2176V1427.28H2243V1409.78H2218V1251.28H2325V1409.78H2290.5V1427.28H2325V1447H2353.77V1427.28H2370V1409.78H2353.77V1399.89V1390V1380.14V1370.5V1350.5V1340V1311H2427L2427.2 1350.5L2427.25 1360.5L2427.35 1380.14L2427.4 1390L2427.45 1399.89L2427.5 1409.78H2417V1428.5H2509.5V1447H2532.5V1427.28V1359.5H2509.5V1409.78H2442V1311H2476Z" fill="#525865"/>
<path d="M2508.86 1162.5H2532.5V1126V1060.5H2508.86V1073.5H2409.5V1083H2508.86V1126V1162.5Z" fill="#525865"/>
<path d="M2479.27 1501.28H2353.77M2479.27 1501.28H2509.5M2479.27 1501.28H2479M2353.77 1501.28H2479M2353.77 1501.28V1477.5H2325V1501.28M2479 1501.28H2509.5M2509.5 1501.28V1477.5H2532.5V1501.28H2549V1519.28H2532.5V1557H2508.5V1519.28H2479H2353V1635.28L2465.5 1634.86V1649.78H2353V1846.75H2467V1865.75H2353V1956.5V2048.5H2509.5L2510 2031.36H2532.5V2048.5H2596.5V1893H2580V1879H2596.5V1714H2580V1701H2596.5V1519.28H2580V1501.28H2596.5V1428.5V1422.5V1277.27V975.5H2620V991H2690V909.5M2619.5 771.275H2690M2619.5 771.275V909.5M2619.5 771.275V818.894M2690 771.275V818.894M2690 771.275V829.394M2325 1501.28H2202H2111M2325 1501.28H2111M2111 1501.28V1477.5H2099V1501.28H1941V1427.28H1958V1409.78H1941V1251.28H2063.5V1325.5V1409.78H1997.5V1427.28H2099V1447H2111V1427.28H2129V1409.78H2078V1325.5V1251.28H2201.5V1409.78H2176V1427.28H2243V1409.78H2218V1251.28H2325V1409.78H2290.5V1427.28H2325V1447H2353.77V1427.28H2370V1409.78H2353.77V1399.89V1390V1380.14M1053.5 531L1079.36 592.529M1053.5 531L1071 524L1068.61 516L1047.5 524L1035.94 504L1027.44 508.5L1038 529.5L1010 541.434L1013.5 548.681L1045.5 534L1069.86 596.134L1043.86 606L1047.64 613.5L1134.6 582L1184.43 706.5L1029.5 768.5L974.431 639.566L1013 625L1009.36 618L971.362 632.5L949.555 576.5L985.5 560.862L982 553.369L946.5 568.5L926.744 515.5L1014.45 483L1018.36 490.5L1026.36 486.5L1022.45 479L1013.5 468L962.55 443.5L959.625 450L1009.58 474.5L924 508L899.5 452.5L909.269 425.5L936.269 440L939.02 433L911.5 418.5L919 394.5L891.5 382L887.5 391.5L906 400.5L887.5 455L856 466.5L806.462 444.5L842 374L864.5 383L869 374L689.5 296.5L694 288L685.5 284L676.5 302L831.39 369.5L795.5 439.565L683.188 389L611 356.5L663.064 244L697.038 259.5L694 266L702.5 270L706 263.589L725.5 272.486L732.161 259.5L671 230L738.5 81L825.5 122L955 180.5L883.5 326L766.5 272.486L759 285.5L990 386L995.5 374L895.5 330.5L967 186L1145 258.5L1079.5 406.5L1031 386L1025.5 399.5L1087 423L1224 473.5L1227.5 464L1192.5 450L1214.5 397.459L1204.69 393L1182 446.5L1092 413L1150 290.573L1237.85 313.644L1216.14 365.603L1226 369.5L1247.98 316.618L1329.39 338.349L1281 483.129L1253.5 473.5L1250 483.129L1330.5 513.017L1333 503.017L1291 486.5L1338.5 341L1431.5 365.603L1376 517.5L1358.5 511.5L1355.89 521.415L1405.5 536.702L1409 527.97L1385.5 520.5L1441.5 368.268L1555.5 398.653L1524.64 503.899L1482.5 491.5L1461 544.5L1435 536.235L1432 544.869L1466.5 555.5L1488.5 502L1553.5 521L1556 513L1533.64 506.899L1565.51 401.255L1739 448L1707.5 554L1592 523L1589.5 531L1818.5 594L1822 586.5L1716.5 556.5L1747.5 450.5L1929.37 503.509L1902 608L1855.13 596.276L1852.5 603L2040.5 655.5L2043 648L1910.13 610.509L1937 506.235L2136.5 559.147L2105.63 664.534L2089.13 660.034L2086 667.534L2146 684L2149 676.5L2114.63 667.534L2146.5 561.89L2248.5 591L2219.63 697L2195 689.5L2192.5 697L2303.5 730L2306 722.5L2235.13 700.5L2270 571L2291.5 574.5L2428.87 596.5L2411.37 669.5L2392.5 746L2337.5 730L2335.5 738L2449.5 771.861L2452.5 763.575L2398.63 747.5L2418.5 671L2436.5 598L2585 624L2567.5 684.5L2575 686.5L2593 626L2690 640.5V752.775H2596.5L2559.5 743L2565.5 719.5L2558.5 718.275L2540.5 788L2488.5 773.556L2486 782.2L2596.5 813.5V853.5V881.275V944.775H2619.5V909.5M1053.5 531L1074.72 581.491M1079.36 592.529L1130.5 573.5L1109 513.5L1091 517.5L1088.12 510L1109 504L1157.5 522L1154.02 531L1122 519.5L1195 702.5L1260.5 675L1212.5 552L1176.54 539.086L1180.18 529.5L1277.5 562.369L1272.5 574.364L1226 557L1273.5 669.5L1408.5 619.5L1295.5 582L1300.5 570.337L1415 610L1491 636.748L1514 566L1543.5 573.5L1541 583L1519.5 577.5L1498.82 639.5C1498.82 639.5 1555.47 654.892 1637.5 677.352L1657 614.5L1571.57 590.5L1574.5 580.5L1696.5 614.5L1693.5 625L1666.42 617.5L1647.17 680C1662.62 684.232 1677.51 688.277 1692.8 692.428M1079.36 592.529L1074.72 581.491M1057.68 538.924L1069.11 534.019C1071.21 533.117 1073.65 533.974 1074.72 535.991C1075.88 538.154 1075.04 540.844 1072.86 541.969L1061.47 547.845M1057.68 538.924L1061.32 547.924L1061.47 547.845M1057.68 538.924L1061.47 547.845M1064.97 556.067L1076.39 551.162C1078.49 550.26 1080.93 551.117 1082.01 553.133C1083.16 555.297 1082.33 557.987 1080.15 559.112L1068.76 564.988M1064.97 556.067L1068.61 565.067L1068.76 564.988M1064.97 556.067L1068.76 564.988M1064.97 556.067L1061.47 547.845M1061.47 547.845L1068.76 564.988M1071.08 572.491L1082.51 567.586C1084.61 566.684 1087.05 567.541 1088.12 569.557C1089.28 571.721 1088.44 574.411 1086.26 575.536L1074.88 581.412M1071.08 572.491L1074.72 581.491M1071.08 572.491L1074.88 581.412M1074.72 581.491L1074.88 581.412M2353.77 1350.5V1340V1311H2427L2427.2 1350.5M2353.77 1350.5V1380.14M2353.77 1350.5V1370.5V1380.14M2427.2 1350.5L2427.35 1380.14M2427.2 1350.5L2427.25 1360.5L2427.35 1380.14M2427.35 1380.14L2427.4 1390L2427.45 1399.89L2427.5 1409.78H2417V1428.5H2509.5V1447H2532.5V1427.28V1359.5H2509.5V1409.78H2442V1311H2476H2509L2509 1335H2532.5L2533 1207.5H2509.5L2509 1292.5H2476H2353V1251.28V1083H2376V1073.5H2353V1012H2376V1005H2353V900.5L2468.5 931L2508.86 975.5V1005H2428.5H2409.5V1012H2508.86V1026H2532.5V975.5L2502 942L2477.5 915C2461.92 910.454 2416.42 897.187 2358 880.232L2369.08 851.5L2363.33 850L2353 878.781C2307.74 865.648 2255.2 850.437 2203 835.406L2232 766.136L2377.5 810.5L2370.41 830.25L2376.59 832L2387 805L2184 743.5L2181.5 751L2223.6 763.575L2195 833.103C2152.09 820.753 2109.67 808.603 2072 797.91L2095.5 730.5L2146 742.5L2149 733.5L2068.5 713.357L2066 721.357L2086 727L2063.5 795.5C2021.51 783.599 1972.9 769.83 1923 755.782L1942.5 690.5L2023 710.5L2026.5 701.5L1841 652.5L1838 662.182L1929 687L1910.13 752.161C1863.02 738.913 1815.15 725.537 1770.96 713.357L1787.69 650.352L1801.69 653.852L1804.5 644L1726.5 622.5L1723 633L1779.5 648.5L1762.5 711.458C1736.81 704.381 1714.53 698.33 1693.03 692.491M2619.5 818.894V829.394M2619.5 818.894H2654.5M2690 818.894H2654.5M2690 818.894V829.394M2619.5 829.394V859.031M2619.5 829.394H2654.57M2619.5 829.394V849.394M2690.14 829.394H2690M2619.55 839.394H2654.62M2690.19 839.394H2690M2619.5 849.394V859.031M2619.5 849.394H2654.69M2690.14 849.394H2690M2619.5 859.031V868.894V878.781M2690.29 859.031H2690M2690.34 868.894H2690M2619.5 878.781V888.612M2619.5 878.781H2654.69M2690.39 878.781H2690M2654.5 818.894L2654.57 829.394M2654.57 829.394L2654.62 839.394M2654.57 829.394H2690M2654.62 839.394L2654.57 849.394M2654.62 839.394H2690M2654.57 849.394L2654.64 859.031M2654.57 849.394H2690M2654.64 859.031L2654.67 868.894M2654.64 859.031H2690M2654.64 859.031H2619.45M2654.67 868.894L2654.69 878.781M2654.67 868.894H2690M2654.69 878.781L2654.67 888.612M2654.69 878.781H2690M2619.5 888.612L2619.49 898.5M2619.5 888.612C2633.3 888.612 2641.03 888.612 2654.83 888.612M2690.34 888.612H2690M2619.49 898.5C2633.24 898.5 2640.94 898.5 2654.69 898.5M2619.49 898.5L2619.5 909.5M2690.39 898.5H2690M2654.67 888.612L2654.69 898.5M2654.67 888.612H2690M2654.69 898.5L2654.69 909.5M2654.69 898.5H2690M2619.5 909.5H2654.69M2690 909.5H2654.69M2690 909.5V898.5M2690 829.394V839.394M2690 839.394V849.394M2690 849.394V859.031M2690 859.031V868.894M2690 868.894V878.781M2690 878.781V888.612M2690 888.612V898.5M1692.84 692.438L1692.8 692.428M1692.84 692.438L1692.84 692.439M1692.84 692.438C1692.82 692.435 1692.81 692.431 1692.8 692.428M1692.84 692.439L1692.97 692.474M1692.84 692.439C1692.88 692.451 1692.93 692.462 1692.97 692.474M1692.97 692.474L1693.03 692.491M1692.97 692.474C1692.99 692.479 1693.01 692.485 1693.03 692.491M2619.64 868.894H2654.83M2532.5 1162.5H2508.86V1126V1083H2409.5V1073.5H2508.86V1060.5H2532.5V1126V1162.5ZM1017 798L1415 639.5L1491 661L2056.5 818L2326 895V1223.26H1920.5V1525.5H2325V2067.78H2517.5H2620V2048.5V1998.28V1021L2719.5 1022V616L2260 542.5L2254.5 567.5L1783 437.5L1175 268.5L1176.5 262.5L1180 249L1165.5 243L727 49L575 370.5L848.5 487.5L884.5 472.5L1017 798ZM2508.5 1634.78H2489.5V1649.78H2508.5V1661.28H2532.5V1587.5H2508.5V1634.78ZM2510 1998.28H2532.5V1893H2549V1879H2532.5V1714H2549V1701H2532.5V1686H2508.63L2509.5 1846.75H2495.5V1865.75H2510V1998.28Z" stroke="#BBBFCA" stroke-width="2"/>
<path d="M2635.61 623.34L2658.88 626.611C2661.62 626.995 2664.15 625.09 2664.53 622.355C2664.92 619.621 2663.01 617.092 2660.28 616.708L2637.01 613.437C2634.27 613.053 2631.74 614.958 2631.36 617.693C2630.97 620.427 2632.88 622.956 2635.61 623.34Z" fill="#9FDCFF"/>
<path d="M2535.64 607.042L2558.91 610.312C2561.65 610.696 2564.18 608.791 2564.56 606.057C2564.94 603.322 2563.04 600.794 2560.3 600.409L2537.03 597.139C2534.3 596.754 2531.77 598.66 2531.39 601.394C2531 604.129 2532.91 606.657 2535.64 607.042Z" fill="#9FDCFF"/>
<path d="M2472.23 595.27L2495.51 598.54C2498.24 598.924 2500.77 597.019 2501.15 594.285C2501.54 591.55 2499.63 589.022 2496.9 588.638L2473.63 585.367C2470.89 584.983 2468.36 586.888 2467.98 589.622C2467.6 592.357 2469.5 594.885 2472.23 595.27Z" fill="#9FDCFF"/>
<path d="M2373.68 579.206L2396.95 582.477C2399.68 582.861 2402.21 580.956 2402.6 578.221C2402.98 575.487 2401.08 572.958 2398.34 572.574L2375.07 569.304C2372.33 568.919 2369.81 570.824 2369.42 573.559C2369.04 576.294 2370.94 578.822 2373.68 579.206Z" fill="#9FDCFF"/>
<path d="M2296.23 567.435L2319.5 570.706C2322.24 571.09 2324.76 569.185 2325.15 566.45C2325.53 563.716 2323.63 561.187 2320.89 560.803L2297.62 557.533C2294.89 557.148 2292.36 559.053 2291.97 561.788C2291.59 564.523 2293.49 567.051 2296.23 567.435Z" fill="#9FDCFF"/>
<path d="M2081.42 537.315L2104.12 543.397C2106.78 544.112 2109.52 542.529 2110.24 539.862C2110.95 537.195 2109.37 534.453 2106.7 533.738L2095.35 530.697L2084 527.656C2081.34 526.941 2078.6 528.524 2077.88 531.191C2077.17 533.859 2078.75 536.6 2081.42 537.315Z" fill="#9FDCFF"/>
<path d="M2081.42 537.315L2104.12 543.397C2106.78 544.112 2109.52 542.529 2110.24 539.862C2110.95 537.195 2109.37 534.453 2106.7 533.738L2095.35 530.697L2084 527.656C2081.34 526.941 2078.6 528.524 2077.88 531.191C2077.17 533.859 2078.75 536.6 2081.42 537.315Z" fill="#9FDCFF"/>
<path d="M2081.42 537.315L2104.12 543.397C2106.78 544.112 2109.52 542.529 2110.24 539.862C2110.95 537.195 2109.37 534.453 2106.7 533.738L2095.35 530.697L2084 527.656C2081.34 526.941 2078.6 528.524 2077.88 531.191C2077.17 533.859 2078.75 536.6 2081.42 537.315Z" fill="#9FDCFF"/>
<path d="M2081.42 537.315L2104.12 543.397C2106.78 544.112 2109.52 542.529 2110.24 539.862C2110.95 537.195 2109.37 534.453 2106.7 533.738L2095.35 530.697L2084 527.656C2081.34 526.941 2078.6 528.524 2077.88 531.191C2077.17 533.859 2078.75 536.6 2081.42 537.315Z" fill="#9FDCFF"/>
<path d="M2188 567.435L2210.7 573.518C2213.37 574.232 2216.11 572.649 2216.82 569.982C2217.54 567.315 2215.95 564.573 2213.29 563.858L2190.59 557.776C2187.92 557.061 2185.18 558.644 2184.46 561.312C2183.75 563.979 2185.33 566.721 2188 567.435Z" fill="#9FDCFF"/>
<path d="M1989.58 511.812L2012.28 517.894C2014.94 518.608 2017.69 517.026 2018.4 514.358C2019.12 511.691 2017.53 508.949 2014.87 508.235L1992.17 502.152C1989.5 501.438 1986.76 503.02 1986.04 505.688C1985.33 508.355 1986.91 511.097 1989.58 511.812Z" fill="#9FDCFF"/>
<path d="M1868.44 479.264L1891.14 485.346C1893.81 486.061 1896.55 484.478 1897.26 481.811C1897.98 479.144 1896.4 476.402 1893.73 475.687L1871.03 469.605C1868.36 468.89 1865.62 470.473 1864.91 473.14C1864.19 475.808 1865.77 478.549 1868.44 479.264Z" fill="#9FDCFF"/>
<path d="M1782.26 453.805L1804.96 459.887C1807.63 460.602 1810.37 459.019 1811.09 456.351C1811.8 453.684 1810.22 450.942 1807.55 450.228L1784.85 444.145C1782.18 443.431 1779.44 445.014 1778.73 447.681C1778.01 450.348 1779.6 453.09 1782.26 453.805Z" fill="#9FDCFF"/>
<path d="M1467.06 367.719L1489.76 373.801C1492.43 374.516 1495.17 372.933 1495.89 370.265C1496.6 367.598 1495.02 364.856 1492.35 364.142L1481 361.1L1469.65 358.059C1466.98 357.345 1464.24 358.928 1463.53 361.595C1462.81 364.262 1464.4 367.004 1467.06 367.719Z" fill="#9FDCFF"/>
<path d="M1467.06 367.719L1489.76 373.801C1492.43 374.516 1495.17 372.933 1495.89 370.265C1496.6 367.598 1495.02 364.856 1492.35 364.142L1481 361.1L1469.65 358.059C1466.98 357.345 1464.24 358.928 1463.53 361.595C1462.81 364.262 1464.4 367.004 1467.06 367.719Z" fill="#9FDCFF"/>
<path d="M1467.06 367.719L1489.76 373.801C1492.43 374.516 1495.17 372.933 1495.89 370.265C1496.6 367.598 1495.02 364.856 1492.35 364.142L1481 361.1L1469.65 358.059C1466.98 357.345 1464.24 358.928 1463.53 361.595C1462.81 364.262 1464.4 367.004 1467.06 367.719Z" fill="#9FDCFF"/>
<path d="M1467.06 367.719L1489.76 373.801C1492.43 374.516 1495.17 372.933 1495.89 370.265C1496.6 367.598 1495.02 364.856 1492.35 364.142L1481 361.1L1469.65 358.059C1466.98 357.345 1464.24 358.928 1463.53 361.595C1462.81 364.262 1464.4 367.004 1467.06 367.719Z" fill="#9FDCFF"/>
<path d="M1517.15 380.618L1539.85 386.7C1542.52 387.415 1545.26 385.832 1545.97 383.165C1546.69 380.497 1545.11 377.756 1542.44 377.041L1519.74 370.959C1517.07 370.244 1514.33 371.827 1513.62 374.494C1512.9 377.162 1514.48 379.903 1517.15 380.618Z" fill="#9FDCFF"/>
<path d="M1377.41 344.053L1400.11 350.135C1402.78 350.85 1405.52 349.267 1406.24 346.6C1406.95 343.933 1405.37 341.191 1402.7 340.476L1380 334.394C1377.33 333.679 1374.59 335.262 1373.88 337.929C1373.16 340.597 1374.74 343.338 1377.41 344.053Z" fill="#9FDCFF"/>
<path d="M1279.16 316.106L1301.86 322.188C1304.53 322.903 1307.27 321.32 1307.98 318.652C1308.7 315.985 1307.11 313.243 1304.45 312.529L1281.75 306.446C1279.08 305.732 1276.34 307.315 1275.62 309.982C1274.91 312.649 1276.49 315.391 1279.16 316.106Z" fill="#9FDCFF"/>
<path d="M1191.68 290.453L1214.38 296.536C1217.04 297.25 1219.78 295.667 1220.5 293C1221.21 290.333 1219.63 287.591 1216.96 286.876L1194.26 280.794C1191.6 280.079 1188.86 281.662 1188.14 284.33C1187.43 286.997 1189.01 289.739 1191.68 290.453Z" fill="#9FDCFF"/>
<path d="M887.414 127.185L865.782 118.003C863.24 116.924 860.305 118.11 859.226 120.652C858.147 123.194 859.333 126.129 861.874 127.208L872.69 131.799L883.507 136.39C886.048 137.469 888.984 136.283 890.063 133.741C891.142 131.199 889.956 128.264 887.414 127.185Z" fill="#9FDCFF"/>
<path d="M887.414 127.185L865.782 118.003C863.24 116.924 860.305 118.11 859.226 120.652C858.147 123.194 859.333 126.129 861.874 127.208L872.69 131.799L883.507 136.39C886.048 137.469 888.984 136.283 890.063 133.741C891.142 131.199 889.956 128.264 887.414 127.185Z" fill="#9FDCFF"/>
<path d="M887.414 127.185L865.782 118.003C863.24 116.924 860.305 118.11 859.226 120.652C858.147 123.194 859.333 126.129 861.874 127.208L872.69 131.799L883.507 136.39C886.048 137.469 888.984 136.283 890.063 133.741C891.142 131.199 889.956 128.264 887.414 127.185Z" fill="#9FDCFF"/>
<path d="M887.414 127.185L865.782 118.003C863.24 116.924 860.305 118.11 859.226 120.652C858.147 123.194 859.333 126.129 861.874 127.208L872.69 131.799L883.507 136.39C886.048 137.469 888.984 136.283 890.063 133.741C891.142 131.199 889.956 128.264 887.414 127.185Z" fill="#9FDCFF"/>
<path d="M799.947 88.581L778.315 79.3988C775.773 78.3198 772.838 79.5058 771.759 82.0477C770.68 84.5896 771.866 87.5248 774.408 88.6038L796.039 97.7861C798.581 98.8651 801.517 97.6791 802.596 95.1372C803.674 92.5953 802.488 89.66 799.947 88.581Z" fill="#9FDCFF"/>
<path d="M970.352 164.031L948.72 154.849C946.178 153.77 943.243 154.956 942.164 157.498C941.085 160.04 942.271 162.975 944.813 164.054L966.444 173.237C968.986 174.316 971.922 173.13 973.001 170.588C974.08 168.046 972.894 165.11 970.352 164.031Z" fill="#9FDCFF"/>
<path d="M1055.14 199.793L1033.51 190.611C1030.96 189.532 1028.03 190.718 1026.95 193.26C1025.87 195.802 1027.06 198.737 1029.6 199.816L1051.23 208.998C1053.77 210.077 1056.71 208.891 1057.79 206.35C1058.87 203.808 1057.68 200.872 1055.14 199.793Z" fill="#9FDCFF"/>
<path d="M1139.69 238.033L1118.06 228.851C1115.51 227.772 1112.58 228.958 1111.5 231.5C1110.42 234.042 1111.61 236.977 1114.15 238.056L1135.78 247.238C1138.32 248.317 1141.26 247.131 1142.34 244.589C1143.41 242.048 1142.23 239.112 1139.69 238.033Z" fill="#9FDCFF"/>
<path d="M751.125 429.795L729.493 420.613C726.951 419.534 724.016 420.72 722.937 423.262C721.858 425.803 723.044 428.739 725.586 429.818L736.402 434.409L747.218 439C749.76 440.079 752.695 438.893 753.774 436.351C754.853 433.809 753.667 430.874 751.125 429.795Z" fill="#9FDCFF"/>
<path d="M751.125 429.795L729.493 420.613C726.951 419.534 724.016 420.72 722.937 423.262C721.858 425.803 723.044 428.739 725.586 429.818L736.402 434.409L747.218 439C749.76 440.079 752.695 438.893 753.774 436.351C754.853 433.809 753.667 430.874 751.125 429.795Z" fill="#9FDCFF"/>
<path d="M751.125 429.795L729.493 420.613C726.951 419.534 724.016 420.72 722.937 423.262C721.858 425.803 723.044 428.739 725.586 429.818L736.402 434.409L747.218 439C749.76 440.079 752.695 438.893 753.774 436.351C754.853 433.809 753.667 430.874 751.125 429.795Z" fill="#9FDCFF"/>
<path d="M751.125 429.795L729.493 420.613C726.951 419.534 724.016 420.72 722.937 423.262C721.858 425.803 723.044 428.739 725.586 429.818L736.402 434.409L747.218 439C749.76 440.079 752.695 438.893 753.774 436.351C754.853 433.809 753.667 430.874 751.125 429.795Z" fill="#9FDCFF"/>
<path d="M667.188 391.328L645.556 382.146C643.014 381.067 640.079 382.253 639 384.795C637.921 387.337 639.107 390.272 641.649 391.351L663.28 400.533C665.822 401.612 668.758 400.426 669.837 397.884C670.916 395.342 669.73 392.407 667.188 391.328Z" fill="#9FDCFF"/>
<path d="M842.241 467.626L820.609 458.444C818.067 457.365 815.132 458.551 814.053 461.093C812.974 463.635 814.16 466.57 816.702 467.649L838.334 476.831C840.876 477.91 843.811 476.724 844.89 474.182C845.969 471.64 844.783 468.705 842.241 467.626Z" fill="#9FDCFF"/>
<path d="M893.562 478.404L902.365 500.193C903.4 502.753 906.314 503.99 908.874 502.956C911.435 501.921 912.672 499.007 911.637 496.447L907.236 485.553L902.834 474.658C901.8 472.098 898.885 470.861 896.325 471.895C893.765 472.93 892.528 475.844 893.562 478.404Z" fill="#9FDCFF"/>
<path d="M893.562 478.404L902.365 500.193C903.4 502.753 906.314 503.99 908.874 502.956C911.435 501.921 912.672 499.007 911.637 496.447L907.236 485.553L902.834 474.658C901.8 472.098 898.885 470.861 896.325 471.895C893.765 472.93 892.528 475.844 893.562 478.404Z" fill="#9FDCFF"/>
<path d="M893.562 478.404L902.365 500.193C903.4 502.753 906.314 503.99 908.874 502.956C911.435 501.921 912.672 499.007 911.637 496.447L907.236 485.553L902.834 474.658C901.8 472.098 898.885 470.861 896.325 471.895C893.765 472.93 892.528 475.844 893.562 478.404Z" fill="#9FDCFF"/>
<path d="M893.562 478.404L902.365 500.193C903.4 502.753 906.314 503.99 908.874 502.956C911.435 501.921 912.672 499.007 911.637 496.447L907.236 485.553L902.834 474.658C901.8 472.098 898.885 470.861 896.325 471.895C893.765 472.93 892.528 475.844 893.562 478.404Z" fill="#9FDCFF"/>
<path d="M917.203 535.948L926.006 557.737C927.041 560.297 929.955 561.534 932.515 560.5C935.075 559.466 936.312 556.551 935.278 553.991L926.475 532.202C925.44 529.642 922.526 528.405 919.966 529.439C917.405 530.474 916.169 533.388 917.203 535.948Z" fill="#9FDCFF"/>
<path d="M2020.25 1241.35H2043.75C2046.51 1241.35 2048.75 1239.11 2048.75 1236.35C2048.75 1233.59 2046.51 1231.35 2043.75 1231.35H2032H2020.25C2017.49 1231.35 2015.25 1233.59 2015.25 1236.35C2015.25 1239.11 2017.49 1241.35 2020.25 1241.35Z" fill="#9FDCFF"/>
<path d="M2020.25 1241.35H2043.75C2046.51 1241.35 2048.75 1239.11 2048.75 1236.35C2048.75 1233.59 2046.51 1231.35 2043.75 1231.35H2032H2020.25C2017.49 1231.35 2015.25 1233.59 2015.25 1236.35C2015.25 1239.11 2017.49 1241.35 2020.25 1241.35Z" fill="#9FDCFF"/>
<path d="M2020.25 1241.35H2043.75C2046.51 1241.35 2048.75 1239.11 2048.75 1236.35C2048.75 1233.59 2046.51 1231.35 2043.75 1231.35H2032H2020.25C2017.49 1231.35 2015.25 1233.59 2015.25 1236.35C2015.25 1239.11 2017.49 1241.35 2020.25 1241.35Z" fill="#9FDCFF"/>
<path d="M2020.25 1241.35H2043.75C2046.51 1241.35 2048.75 1239.11 2048.75 1236.35C2048.75 1233.59 2046.51 1231.35 2043.75 1231.35H2032H2020.25C2017.49 1231.35 2015.25 1233.59 2015.25 1236.35C2015.25 1239.11 2017.49 1241.35 2020.25 1241.35Z" fill="#9FDCFF"/>
<path d="M2261.5 1241.35H2285C2287.76 1241.35 2290 1239.11 2290 1236.35C2290 1233.59 2287.76 1231.35 2285 1231.35H2273.25H2261.5C2258.74 1231.35 2256.5 1233.59 2256.5 1236.35C2256.5 1239.11 2258.74 1241.35 2261.5 1241.35Z" fill="#9FDCFF"/>
<path d="M2261.5 1241.35H2285C2287.76 1241.35 2290 1239.11 2290 1236.35C2290 1233.59 2287.76 1231.35 2285 1231.35H2273.25H2261.5C2258.74 1231.35 2256.5 1233.59 2256.5 1236.35C2256.5 1239.11 2258.74 1241.35 2261.5 1241.35Z" fill="#9FDCFF"/>
<path d="M2261.5 1241.35H2285C2287.76 1241.35 2290 1239.11 2290 1236.35C2290 1233.59 2287.76 1231.35 2285 1231.35H2273.25H2261.5C2258.74 1231.35 2256.5 1233.59 2256.5 1236.35C2256.5 1239.11 2258.74 1241.35 2261.5 1241.35Z" fill="#9FDCFF"/>
<path d="M2261.5 1241.35H2285C2287.76 1241.35 2290 1239.11 2290 1236.35C2290 1233.59 2287.76 1231.35 2285 1231.35H2273.25H2261.5C2258.74 1231.35 2256.5 1233.59 2256.5 1236.35C2256.5 1239.11 2258.74 1241.35 2261.5 1241.35Z" fill="#9FDCFF"/>
<path d="M2263.14 871.059L2285.84 877.141C2288.51 877.856 2291.25 876.273 2291.96 873.606C2292.68 870.938 2291.09 868.197 2288.43 867.482L2265.73 861.4C2263.06 860.685 2260.32 862.268 2259.6 864.935C2258.89 867.603 2260.47 870.344 2263.14 871.059Z" fill="#9FDCFF"/>
<path d="M2182.03 847.639L2204.73 853.721C2207.39 854.436 2210.14 852.853 2210.85 850.186C2211.57 847.518 2209.98 844.777 2207.31 844.062L2184.62 837.98C2181.95 837.265 2179.21 838.848 2178.49 841.515C2177.78 844.183 2179.36 846.924 2182.03 847.639Z" fill="#9FDCFF"/>
<path d="M2107.65 825.512L2130.35 831.594C2133.02 832.309 2135.76 830.726 2136.47 828.059C2137.19 825.391 2135.61 822.65 2132.94 821.935L2110.24 815.853C2107.57 815.138 2104.83 816.721 2104.12 819.388C2103.4 822.056 2104.98 824.797 2107.65 825.512Z" fill="#9FDCFF"/>
<path d="M1302.82 676.808L1324.61 668.005C1327.17 666.97 1328.41 664.056 1327.37 661.496C1326.34 658.935 1323.43 657.698 1320.86 658.733L1309.97 663.134L1299.08 667.536C1296.52 668.57 1295.28 671.485 1296.31 674.045C1297.35 676.605 1300.26 677.842 1302.82 676.808Z" fill="#9FDCFF"/>
<path d="M1302.82 676.808L1324.61 668.005C1327.17 666.97 1328.41 664.056 1327.37 661.496C1326.34 658.935 1323.43 657.698 1320.86 658.733L1309.97 663.134L1299.08 667.536C1296.52 668.57 1295.28 671.485 1296.31 674.045C1297.35 676.605 1300.26 677.842 1302.82 676.808Z" fill="#9FDCFF"/>
<path d="M1302.82 676.808L1324.61 668.005C1327.17 666.97 1328.41 664.056 1327.37 661.496C1326.34 658.935 1323.43 657.698 1320.86 658.733L1309.97 663.134L1299.08 667.536C1296.52 668.57 1295.28 671.485 1296.31 674.045C1297.35 676.605 1300.26 677.842 1302.82 676.808Z" fill="#9FDCFF"/>
<path d="M1302.82 676.808L1324.61 668.005C1327.17 666.97 1328.41 664.056 1327.37 661.496C1326.34 658.935 1323.43 657.698 1320.86 658.733L1309.97 663.134L1299.08 667.536C1296.52 668.57 1295.28 671.485 1296.31 674.045C1297.35 676.605 1300.26 677.842 1302.82 676.808Z" fill="#9FDCFF"/>
<path d="M1351.94 657.652L1373.73 648.849C1376.29 647.814 1377.53 644.9 1376.49 642.34C1375.46 639.779 1372.55 638.543 1369.99 639.577L1348.2 648.38C1345.64 649.415 1344.4 652.329 1345.43 654.889C1346.47 657.45 1349.38 658.686 1351.94 657.652Z" fill="#9FDCFF"/>
<path d="M1229.51 706.69L1251.3 697.887C1253.86 696.852 1255.09 693.938 1254.06 691.378C1253.03 688.817 1250.11 687.58 1247.55 688.615L1225.76 697.418C1223.2 698.453 1221.97 701.367 1223 703.927C1224.03 706.487 1226.95 707.724 1229.51 706.69Z" fill="#9FDCFF"/>
<path d="M1145.41 739.763L1167.2 730.96C1169.76 729.925 1170.99 727.011 1169.96 724.451C1168.92 721.89 1166.01 720.653 1163.45 721.688L1152.56 726.089L1141.66 730.491C1139.1 731.525 1137.86 734.44 1138.9 737C1139.93 739.56 1142.85 740.797 1145.41 739.763Z" fill="#9FDCFF"/>
<path d="M1145.41 739.763L1167.2 730.96C1169.76 729.925 1170.99 727.011 1169.96 724.451C1168.92 721.89 1166.01 720.653 1163.45 721.688L1152.56 726.089L1141.66 730.491C1139.1 731.525 1137.86 734.44 1138.9 737C1139.93 739.56 1142.85 740.797 1145.41 739.763Z" fill="#9FDCFF"/>
<path d="M1145.41 739.763L1167.2 730.96C1169.76 729.925 1170.99 727.011 1169.96 724.451C1168.92 721.89 1166.01 720.653 1163.45 721.688L1152.56 726.089L1141.66 730.491C1139.1 731.525 1137.86 734.44 1138.9 737C1139.93 739.56 1142.85 740.797 1145.41 739.763Z" fill="#9FDCFF"/>
<path d="M1145.41 739.763L1167.2 730.96C1169.76 729.925 1170.99 727.011 1169.96 724.451C1168.92 721.89 1166.01 720.653 1163.45 721.688L1152.56 726.089L1141.66 730.491C1139.1 731.525 1137.86 734.44 1138.9 737C1139.93 739.56 1142.85 740.797 1145.41 739.763Z" fill="#9FDCFF"/>
<path d="M1059.09 773.263L1080.88 764.46C1083.44 763.425 1084.68 760.511 1083.64 757.951C1082.61 755.39 1079.69 754.153 1077.13 755.188L1055.35 763.991C1052.78 765.025 1051.55 767.94 1052.58 770.5C1053.62 773.06 1056.53 774.297 1059.09 773.263Z" fill="#9FDCFF"/>
<path d="M1445.21 639.577L1467.91 645.659C1470.58 646.374 1473.32 644.791 1474.03 642.124C1474.75 639.456 1473.17 636.715 1470.5 636L1447.8 629.918C1445.13 629.203 1442.39 630.786 1441.68 633.453C1440.96 636.121 1442.54 638.862 1445.21 639.577Z" fill="#9FDCFF"/>
<path d="M2332.98 1978.82V2019.38C2332.98 2022.71 2335.68 2025.4 2339 2025.4C2342.32 2025.4 2345.01 2022.71 2345.01 2019.38V1978.82C2345.01 1975.49 2342.32 1972.8 2339 1972.8C2335.68 1972.8 2332.98 1975.49 2332.98 1978.82Z" fill="#9FDCFF"/>
<path d="M2345.01 1936.85V1897.02C2345.01 1893.69 2342.32 1891 2339 1891C2335.68 1891 2332.98 1893.69 2332.98 1897.02V1936.85C2332.98 1940.18 2335.68 1942.87 2339 1942.87C2342.32 1942.87 2345.01 1940.18 2345.01 1936.85Z" fill="#9FDCFF"/>
<path d="M2345.01 1762.86V1795.12C2345.01 1798.44 2342.32 1801.14 2339 1801.14C2335.68 1801.14 2332.98 1798.44 2332.98 1795.12V1762.86C2332.98 1759.54 2335.68 1756.84 2339 1756.84C2342.32 1756.84 2345.01 1759.54 2345.01 1762.86Z" fill="#9FDCFF"/>
<path d="M2332.98 1679.22V1715.19C2332.98 1718.51 2335.68 1721.21 2339 1721.21C2342.32 1721.21 2345.01 1718.51 2345.01 1715.19V1679.22C2345.01 1675.9 2342.32 1673.21 2339 1673.21C2335.68 1673.21 2332.98 1675.9 2332.98 1679.22Z" fill="#9FDCFF"/>
<path d="M2345.01 1563.06V1601.03C2345.01 1604.35 2342.32 1607.04 2339 1607.04C2335.68 1607.04 2332.98 1604.35 2332.98 1601.03V1582.04V1563.06C2332.98 1559.74 2335.68 1557.04 2339 1557.04C2342.32 1557.04 2345.01 1559.74 2345.01 1563.06Z" fill="#9FDCFF"/>
<path d="M2333.66 1163.05V1199C2333.66 1202.32 2336.35 1205.02 2339.68 1205.02C2343 1205.02 2345.69 1202.32 2345.69 1199V1163.05C2345.69 1159.72 2343 1157.03 2339.68 1157.03C2336.35 1157.03 2333.66 1159.72 2333.66 1163.05Z" fill="#9FDCFF"/>
<path d="M2333.98 1062.97V1105.38C2333.98 1108.7 2336.68 1111.39 2340 1111.39C2343.32 1111.39 2346.01 1108.7 2346.01 1105.38V1062.97C2346.01 1059.64 2343.32 1056.95 2340 1056.95C2336.68 1056.95 2333.98 1059.64 2333.98 1062.97Z" fill="#9FDCFF"/>
<path d="M2333.66 937.894V978C2333.66 981.322 2336.35 984.015 2339.68 984.015C2343 984.015 2345.69 981.322 2345.69 978V937.894C2345.69 934.572 2343 931.879 2339.68 931.879C2336.35 931.879 2333.66 934.572 2333.66 937.894Z" fill="#9FDCFF"/>
<path d="M2611.5 2011.6V1983.6C2611.5 1981.8 2610.04 1980.35 2608.25 1980.35C2606.45 1980.35 2605 1981.8 2605 1983.6V2011.6C2605 2013.39 2606.45 2014.85 2608.25 2014.85C2610.04 2014.85 2611.5 2013.39 2611.5 2011.6Z" fill="#9FDCFF"/>
<path d="M2605 1893.6V1926.1C2605 1927.89 2606.45 1929.35 2608.25 1929.35C2610.04 1929.35 2611.5 1927.89 2611.5 1926.1V1893.6C2611.5 1891.8 2610.04 1890.35 2608.25 1890.35C2606.45 1890.35 2605 1891.8 2605 1893.6Z" fill="#9FDCFF"/>
<path d="M2611.25 1808.75V1840.75C2611.25 1842.54 2609.79 1844 2608 1844C2606.2 1844 2604.75 1842.54 2604.75 1840.75V1808.75C2604.75 1806.96 2606.2 1805.5 2608 1805.5C2609.79 1805.5 2611.25 1806.96 2611.25 1808.75Z" fill="#9FDCFF"/>
<path d="M2605.49 1697.5V1727.5C2605.49 1729.29 2606.94 1730.75 2608.74 1730.75C2610.53 1730.75 2611.99 1729.29 2611.99 1727.5V1697.5C2611.99 1695.71 2610.53 1694.25 2608.74 1694.25C2606.94 1694.25 2605.49 1695.71 2605.49 1697.5Z" fill="#9FDCFF"/>
<path d="M2605.49 1592.5V1623.5C2605.49 1625.29 2606.94 1626.75 2608.74 1626.75C2610.53 1626.75 2611.99 1625.29 2611.99 1623.5V1592.5C2611.99 1590.71 2610.53 1589.25 2608.74 1589.25C2606.94 1589.25 2605.49 1590.71 2605.49 1592.5Z" fill="#9FDCFF"/>
<path d="M2605 1482.1V1512.6C2605 1514.39 2606.45 1515.85 2608.25 1515.85C2610.04 1515.85 2611.5 1514.39 2611.5 1512.6V1482.1C2611.5 1480.3 2610.04 1478.85 2608.25 1478.85C2606.45 1478.85 2605 1480.3 2605 1482.1Z" fill="#9FDCFF"/>
<path d="M2604.75 1327V1362C2604.75 1363.8 2606.2 1365.25 2608 1365.25C2609.79 1365.25 2611.25 1363.8 2611.25 1362V1327C2611.25 1325.21 2609.79 1323.75 2608 1323.75C2606.2 1323.75 2604.75 1325.21 2604.75 1327Z" fill="#9FDCFF"/>
<path d="M2604.75 1202V1237C2604.75 1238.8 2606.2 1240.25 2608 1240.25C2609.79 1240.25 2611.25 1238.8 2611.25 1237V1202C2611.25 1200.21 2609.79 1198.75 2608 1198.75C2606.2 1198.75 2604.75 1200.21 2604.75 1202Z" fill="#9FDCFF"/>
<path d="M2604.75 1097.25V1136.25C2604.75 1138.04 2606.2 1139.5 2608 1139.5C2609.79 1139.5 2611.25 1138.04 2611.25 1136.25V1097.25C2611.25 1095.46 2609.79 1094 2608 1094C2606.2 1094 2604.75 1095.46 2604.75 1097.25Z" fill="#9FDCFF"/>
<path d="M2604.75 1021V1060C2604.75 1061.79 2606.2 1063.25 2608 1063.25C2609.79 1063.25 2611.25 1061.79 2611.25 1060V1021C2611.25 1019.2 2609.79 1017.75 2608 1017.75C2606.2 1017.75 2604.75 1019.2 2604.75 1021Z" fill="#9FDCFF"/>
<path d="M2646 1011H2669.5C2672.26 1011 2674.5 1008.76 2674.5 1006C2674.5 1003.24 2672.26 1001 2669.5 1001H2657.75H2646C2643.24 1001 2641 1003.24 2641 1006C2641 1008.76 2643.24 1011 2646 1011Z" fill="#9FDCFF"/>
<path d="M2646 1011H2669.5C2672.26 1011 2674.5 1008.76 2674.5 1006C2674.5 1003.24 2672.26 1001 2669.5 1001H2657.75H2646C2643.24 1001 2641 1003.24 2641 1006C2641 1008.76 2643.24 1011 2646 1011Z" fill="#9FDCFF"/>
<path d="M2646 1011H2669.5C2672.26 1011 2674.5 1008.76 2674.5 1006C2674.5 1003.24 2672.26 1001 2669.5 1001H2657.75H2646C2643.24 1001 2641 1003.24 2641 1006C2641 1008.76 2643.24 1011 2646 1011Z" fill="#9FDCFF"/>
<path d="M2646 1011H2669.5C2672.26 1011 2674.5 1008.76 2674.5 1006C2674.5 1003.24 2672.26 1001 2669.5 1001H2657.75H2646C2643.24 1001 2641 1003.24 2641 1006C2641 1008.76 2643.24 1011 2646 1011Z" fill="#9FDCFF"/>
<path d="M2032.52 803.706L2055.22 809.788C2057.89 810.503 2060.63 808.92 2061.35 806.253C2062.06 803.586 2060.48 800.844 2057.81 800.129L2035.11 794.047C2032.44 793.332 2029.7 794.915 2028.99 797.583C2028.27 800.25 2029.86 802.992 2032.52 803.706Z" fill="#9FDCFF"/>
<path d="M1951.4 782.833L1974.1 788.915C1976.77 789.63 1979.51 788.047 1980.22 785.38C1980.94 782.712 1979.35 779.971 1976.69 779.256L1953.99 773.174C1951.32 772.459 1948.58 774.042 1947.86 776.709C1947.15 779.377 1948.73 782.118 1951.4 782.833Z" fill="#9FDCFF"/>
<path d="M1877.03 760.751L1899.73 766.833C1902.4 767.548 1905.14 765.965 1905.86 763.298C1906.57 760.63 1904.99 757.889 1902.32 757.174L1879.62 751.092C1876.96 750.377 1874.21 751.96 1873.5 754.627C1872.78 757.294 1874.37 760.036 1877.03 760.751Z" fill="#9FDCFF"/>
<path d="M1809.83 742.912L1832.53 748.994C1835.19 749.709 1837.93 748.126 1838.65 745.459C1839.36 742.792 1837.78 740.05 1835.11 739.335L1812.41 733.253C1809.75 732.538 1807.01 734.121 1806.29 736.788C1805.58 739.456 1807.16 742.198 1809.83 742.912Z" fill="#9FDCFF"/>
<path d="M1740.06 722.533L1762.76 728.616C1765.43 729.331 1768.17 727.748 1768.89 725.08C1769.6 722.413 1768.02 719.671 1765.35 718.956L1742.65 712.874C1739.98 712.159 1737.24 713.742 1736.53 716.41C1735.81 719.077 1737.4 721.819 1740.06 722.533Z" fill="#9FDCFF"/>
<path d="M1665.68 702.953L1688.37 709.035C1691.04 709.75 1693.78 708.167 1694.5 705.5C1695.21 702.832 1693.63 700.091 1690.96 699.376L1668.26 693.294C1665.6 692.579 1662.85 694.162 1662.14 696.829C1661.43 699.497 1663.01 702.238 1665.68 702.953Z" fill="#9FDCFF"/>
<path d="M1602.92 684.74L1625.62 690.822C1628.29 691.537 1631.03 689.954 1631.75 687.286C1632.46 684.619 1630.88 681.877 1628.21 681.163L1605.51 675.08C1602.84 674.366 1600.1 675.949 1599.39 678.616C1598.67 681.283 1600.26 684.025 1602.92 684.74Z" fill="#9FDCFF"/>
<path d="M1528.53 665.159L1551.23 671.242C1553.9 671.956 1556.64 670.373 1557.36 667.706C1558.07 665.039 1556.49 662.297 1553.82 661.582L1531.12 655.5C1528.46 654.785 1525.71 656.368 1525 659.036C1524.28 661.703 1525.87 664.445 1528.53 665.159Z" fill="#9FDCFF"/>
<path d="M2135.75 1241.35H2159.25C2162.01 1241.35 2164.25 1239.11 2164.25 1236.35C2164.25 1233.59 2162.01 1231.35 2159.25 1231.35H2147.5H2135.75C2132.99 1231.35 2130.75 1233.59 2130.75 1236.35C2130.75 1239.11 2132.99 1241.35 2135.75 1241.35Z" fill="#9FDCFF"/>
<path d="M2135.75 1241.35H2159.25C2162.01 1241.35 2164.25 1239.11 2164.25 1236.35C2164.25 1233.59 2162.01 1231.35 2159.25 1231.35H2147.5H2135.75C2132.99 1231.35 2130.75 1233.59 2130.75 1236.35C2130.75 1239.11 2132.99 1241.35 2135.75 1241.35Z" fill="#9FDCFF"/>
<path d="M2135.75 1241.35H2159.25C2162.01 1241.35 2164.25 1239.11 2164.25 1236.35C2164.25 1233.59 2162.01 1231.35 2159.25 1231.35H2147.5H2135.75C2132.99 1231.35 2130.75 1233.59 2130.75 1236.35C2130.75 1239.11 2132.99 1241.35 2135.75 1241.35Z" fill="#9FDCFF"/>
<path d="M2135.75 1241.35H2159.25C2162.01 1241.35 2164.25 1239.11 2164.25 1236.35C2164.25 1233.59 2162.01 1231.35 2159.25 1231.35H2147.5H2135.75C2132.99 1231.35 2130.75 1233.59 2130.75 1236.35C2130.75 1239.11 2132.99 1241.35 2135.75 1241.35Z" fill="#9FDCFF"/>
<path d="M2005 1519.5H2028.5C2031.26 1519.5 2033.5 1517.26 2033.5 1514.5C2033.5 1511.74 2031.26 1509.5 2028.5 1509.5H2016.75H2005C2002.24 1509.5 2000 1511.74 2000 1514.5C2000 1517.26 2002.24 1519.5 2005 1519.5Z" fill="#9FDCFF"/>
<path d="M2005 1519.5H2028.5C2031.26 1519.5 2033.5 1517.26 2033.5 1514.5C2033.5 1511.74 2031.26 1509.5 2028.5 1509.5H2016.75H2005C2002.24 1509.5 2000 1511.74 2000 1514.5C2000 1517.26 2002.24 1519.5 2005 1519.5Z" fill="#9FDCFF"/>
<path d="M2005 1519.5H2028.5C2031.26 1519.5 2033.5 1517.26 2033.5 1514.5C2033.5 1511.74 2031.26 1509.5 2028.5 1509.5H2016.75H2005C2002.24 1509.5 2000 1511.74 2000 1514.5C2000 1517.26 2002.24 1519.5 2005 1519.5Z" fill="#9FDCFF"/>
<path d="M2005 1519.5H2028.5C2031.26 1519.5 2033.5 1517.26 2033.5 1514.5C2033.5 1511.74 2031.26 1509.5 2028.5 1509.5H2016.75H2005C2002.24 1509.5 2000 1511.74 2000 1514.5C2000 1517.26 2002.24 1519.5 2005 1519.5Z" fill="#9FDCFF"/>
<path d="M2243.87 1519.5H2267.37C2270.14 1519.5 2272.37 1517.26 2272.37 1514.5C2272.37 1511.74 2270.14 1509.5 2267.37 1509.5H2255.62H2243.87C2241.11 1509.5 2238.87 1511.74 2238.87 1514.5C2238.87 1517.26 2241.11 1519.5 2243.87 1519.5Z" fill="#9FDCFF"/>
<path d="M2243.87 1519.5H2267.37C2270.14 1519.5 2272.37 1517.26 2272.37 1514.5C2272.37 1511.74 2270.14 1509.5 2267.37 1509.5H2255.62H2243.87C2241.11 1509.5 2238.87 1511.74 2238.87 1514.5C2238.87 1517.26 2241.11 1519.5 2243.87 1519.5Z" fill="#9FDCFF"/>
<path d="M2243.87 1519.5H2267.37C2270.14 1519.5 2272.37 1517.26 2272.37 1514.5C2272.37 1511.74 2270.14 1509.5 2267.37 1509.5H2255.62H2243.87C2241.11 1509.5 2238.87 1511.74 2238.87 1514.5C2238.87 1517.26 2241.11 1519.5 2243.87 1519.5Z" fill="#9FDCFF"/>
<path d="M2243.87 1519.5H2267.37C2270.14 1519.5 2272.37 1517.26 2272.37 1514.5C2272.37 1511.74 2270.14 1509.5 2267.37 1509.5H2255.62H2243.87C2241.11 1509.5 2238.87 1511.74 2238.87 1514.5C2238.87 1517.26 2241.11 1519.5 2243.87 1519.5Z" fill="#9FDCFF"/>
<path d="M2178 1519.5H2201.5C2204.26 1519.5 2206.5 1517.26 2206.5 1514.5C2206.5 1511.74 2204.26 1509.5 2201.5 1509.5H2189.75H2178C2175.24 1509.5 2173 1511.74 2173 1514.5C2173 1517.26 2175.24 1519.5 2178 1519.5Z" fill="#9FDCFF"/>
<path d="M2178 1519.5H2201.5C2204.26 1519.5 2206.5 1517.26 2206.5 1514.5C2206.5 1511.74 2204.26 1509.5 2201.5 1509.5H2189.75H2178C2175.24 1509.5 2173 1511.74 2173 1514.5C2173 1517.26 2175.24 1519.5 2178 1519.5Z" fill="#9FDCFF"/>
<path d="M2178 1519.5H2201.5C2204.26 1519.5 2206.5 1517.26 2206.5 1514.5C2206.5 1511.74 2204.26 1509.5 2201.5 1509.5H2189.75H2178C2175.24 1509.5 2173 1511.74 2173 1514.5C2173 1517.26 2175.24 1519.5 2178 1519.5Z" fill="#9FDCFF"/>
<path d="M2178 1519.5H2201.5C2204.26 1519.5 2206.5 1517.26 2206.5 1514.5C2206.5 1511.74 2204.26 1509.5 2201.5 1509.5H2189.75H2178C2175.24 1509.5 2173 1511.74 2173 1514.5C2173 1517.26 2175.24 1519.5 2178 1519.5Z" fill="#9FDCFF"/>
<path d="M1682.8 426.472L1705.5 432.554C1708.17 433.269 1710.91 431.686 1711.63 429.018C1712.34 426.351 1710.76 423.609 1708.09 422.895L1685.39 416.812C1682.73 416.098 1679.98 417.681 1679.27 420.348C1678.55 423.015 1680.14 425.757 1682.8 426.472Z" fill="#9FDCFF"/>
<path d="M1625.03 410.159L1647.73 416.242C1650.4 416.956 1653.14 415.373 1653.86 412.706C1654.57 410.039 1652.99 407.297 1650.32 406.582L1627.62 400.5C1624.96 399.785 1622.21 401.368 1621.5 404.036C1620.78 406.703 1622.37 409.445 1625.03 410.159Z" fill="#9FDCFF"/>
<path d="M2635.61 623.34L2658.88 626.611C2661.62 626.995 2664.15 625.09 2664.53 622.355C2664.92 619.621 2663.01 617.092 2660.28 616.708L2637.01 613.437C2634.27 613.053 2631.74 614.958 2631.36 617.693C2630.97 620.427 2632.88 622.956 2635.61 623.34Z" stroke="#00CDF9" stroke-width="3"/>
<path d="M2535.64 607.042L2558.91 610.312C2561.65 610.696 2564.18 608.791 2564.56 606.057C2564.94 603.322 2563.04 600.794 2560.3 600.409L2537.03 597.139C2534.3 596.754 2531.77 598.66 2531.39 601.394C2531 604.129 2532.91 606.657 2535.64 607.042Z" stroke="#00CDF9" stroke-width="3"/>
<path d="M2472.23 595.27L2495.51 598.54C2498.24 598.924 2500.77 597.019 2501.15 594.285C2501.54 591.55 2499.63 589.022 2496.9 588.638L2473.63 585.367C2470.89 584.983 2468.36 586.888 2467.98 589.622C2467.6 592.357 2469.5 594.885 2472.23 595.27Z" stroke="#00CDF9" stroke-width="3"/>
<path d="M2373.68 579.206L2396.95 582.477C2399.68 582.861 2402.21 580.956 2402.6 578.221C2402.98 575.487 2401.08 572.958 2398.34 572.574L2375.07 569.304C2372.33 568.919 2369.81 570.824 2369.42 573.559C2369.04 576.294 2370.94 578.822 2373.68 579.206Z" stroke="#00CDF9" stroke-width="3"/>
<path d="M2296.23 567.435L2319.5 570.706C2322.24 571.09 2324.76 569.185 2325.15 566.45C2325.53 563.716 2323.63 561.187 2320.89 560.803L2297.62 557.533C2294.89 557.148 2292.36 559.053 2291.97 561.788C2291.59 564.523 2293.49 567.051 2296.23 567.435Z" stroke="#00CDF9" stroke-width="3"/>
<path d="M2081.42 537.315L2104.12 543.397C2106.78 544.112 2109.52 542.529 2110.24 539.862C2110.95 537.195 2109.37 534.453 2106.7 533.738L2095.35 530.697L2084 527.656C2081.34 526.941 2078.6 528.524 2077.88 531.191C2077.17 533.859 2078.75 536.6 2081.42 537.315Z" stroke="#00CDF9" stroke-width="3"/>
<path d="M2081.42 537.315L2104.12 543.397C2106.78 544.112 2109.52 542.529 2110.24 539.862C2110.95 537.195 2109.37 534.453 2106.7 533.738L2095.35 530.697L2084 527.656C2081.34 526.941 2078.6 528.524 2077.88 531.191C2077.17 533.859 2078.75 536.6 2081.42 537.315Z" stroke="#00CDF9" stroke-width="3"/>
<path d="M2081.42 537.315L2104.12 543.397C2106.78 544.112 2109.52 542.529 2110.24 539.862C2110.95 537.195 2109.37 534.453 2106.7 533.738L2095.35 530.697L2084 527.656C2081.34 526.941 2078.6 528.524 2077.88 531.191C2077.17 533.859 2078.75 536.6 2081.42 537.315Z" stroke="#00CDF9" stroke-width="3"/>
<path d="M2081.42 537.315L2104.12 543.397C2106.78 544.112 2109.52 542.529 2110.24 539.862C2110.95 537.195 2109.37 534.453 2106.7 533.738L2095.35 530.697L2084 527.656C2081.34 526.941 2078.6 528.524 2077.88 531.191C2077.17 533.859 2078.75 536.6 2081.42 537.315Z" stroke="#00CDF9" stroke-width="3"/>
<path d="M2188 567.435L2210.7 573.518C2213.37 574.232 2216.11 572.649 2216.82 569.982C2217.54 567.315 2215.95 564.573 2213.29 563.858L2190.59 557.776C2187.92 557.061 2185.18 558.644 2184.46 561.312C2183.75 563.979 2185.33 566.721 2188 567.435Z" stroke="#00CDF9" stroke-width="3"/>
<path d="M1989.58 511.812L2012.28 517.894C2014.94 518.608 2017.69 517.026 2018.4 514.358C2019.12 511.691 2017.53 508.949 2014.87 508.235L1992.17 502.152C1989.5 501.438 1986.76 503.02 1986.04 505.688C1985.33 508.355 1986.91 511.097 1989.58 511.812Z" stroke="#00CDF9" stroke-width="3"/>
<path d="M1868.44 479.264L1891.14 485.346C1893.81 486.061 1896.55 484.478 1897.26 481.811C1897.98 479.144 1896.4 476.402 1893.73 475.687L1871.03 469.605C1868.36 468.89 1865.62 470.473 1864.91 473.14C1864.19 475.808 1865.77 478.549 1868.44 479.264Z" stroke="#00CDF9" stroke-width="3"/>
<path d="M1782.26 453.805L1804.96 459.887C1807.63 460.602 1810.37 459.019 1811.09 456.351C1811.8 453.684 1810.22 450.942 1807.55 450.228L1784.85 444.145C1782.18 443.431 1779.44 445.014 1778.73 447.681C1778.01 450.348 1779.6 453.09 1782.26 453.805Z" stroke="#00CDF9" stroke-width="3"/>
<path d="M1467.06 367.719L1489.76 373.801C1492.43 374.516 1495.17 372.933 1495.89 370.265C1496.6 367.598 1495.02 364.856 1492.35 364.142L1481 361.1L1469.65 358.059C1466.98 357.345 1464.24 358.928 1463.53 361.595C1462.81 364.262 1464.4 367.004 1467.06 367.719Z" stroke="#00CDF9" stroke-width="3"/>
<path d="M1467.06 367.719L1489.76 373.801C1492.43 374.516 1495.17 372.933 1495.89 370.265C1496.6 367.598 1495.02 364.856 1492.35 364.142L1481 361.1L1469.65 358.059C1466.98 357.345 1464.24 358.928 1463.53 361.595C1462.81 364.262 1464.4 367.004 1467.06 367.719Z" stroke="#00CDF9" stroke-width="3"/>
<path d="M1467.06 367.719L1489.76 373.801C1492.43 374.516 1495.17 372.933 1495.89 370.265C1496.6 367.598 1495.02 364.856 1492.35 364.142L1481 361.1L1469.65 358.059C1466.98 357.345 1464.24 358.928 1463.53 361.595C1462.81 364.262 1464.4 367.004 1467.06 367.719Z" stroke="#00CDF9" stroke-width="3"/>
<path d="M1467.06 367.719L1489.76 373.801C1492.43 374.516 1495.17 372.933 1495.89 370.265C1496.6 367.598 1495.02 364.856 1492.35 364.142L1481 361.1L1469.65 358.059C1466.98 357.345 1464.24 358.928 1463.53 361.595C1462.81 364.262 1464.4 367.004 1467.06 367.719Z" stroke="#00CDF9" stroke-width="3"/>
<path d="M1517.15 380.618L1539.85 386.7C1542.52 387.415 1545.26 385.832 1545.97 383.165C1546.69 380.497 1545.11 377.756 1542.44 377.041L1519.74 370.959C1517.07 370.244 1514.33 371.827 1513.62 374.494C1512.9 377.162 1514.48 379.903 1517.15 380.618Z" stroke="#00CDF9" stroke-width="3"/>
<path d="M1377.41 344.053L1400.11 350.135C1402.78 350.85 1405.52 349.267 1406.24 346.6C1406.95 343.933 1405.37 341.191 1402.7 340.476L1380 334.394C1377.33 333.679 1374.59 335.262 1373.88 337.929C1373.16 340.597 1374.74 343.338 1377.41 344.053Z" stroke="#00CDF9" stroke-width="3"/>
<path d="M1279.16 316.106L1301.86 322.188C1304.53 322.903 1307.27 321.32 1307.98 318.652C1308.7 315.985 1307.11 313.243 1304.45 312.529L1281.75 306.446C1279.08 305.732 1276.34 307.315 1275.62 309.982C1274.91 312.649 1276.49 315.391 1279.16 316.106Z" stroke="#00CDF9" stroke-width="3"/>
<path d="M1191.68 290.453L1214.38 296.536C1217.04 297.25 1219.78 295.667 1220.5 293C1221.21 290.333 1219.63 287.591 1216.96 286.876L1194.26 280.794C1191.6 280.079 1188.86 281.662 1188.14 284.33C1187.43 286.997 1189.01 289.739 1191.68 290.453Z" stroke="#00CDF9" stroke-width="3"/>
<path d="M887.414 127.185L865.782 118.003C863.24 116.924 860.305 118.11 859.226 120.652C858.147 123.194 859.333 126.129 861.874 127.208L872.69 131.799L883.507 136.39C886.048 137.469 888.984 136.283 890.063 133.741C891.142 131.199 889.956 128.264 887.414 127.185Z" stroke="#00CDF9" stroke-width="3"/>
<path d="M887.414 127.185L865.782 118.003C863.24 116.924 860.305 118.11 859.226 120.652C858.147 123.194 859.333 126.129 861.874 127.208L872.69 131.799L883.507 136.39C886.048 137.469 888.984 136.283 890.063 133.741C891.142 131.199 889.956 128.264 887.414 127.185Z" stroke="#00CDF9" stroke-width="3"/>
<path d="M887.414 127.185L865.782 118.003C863.24 116.924 860.305 118.11 859.226 120.652C858.147 123.194 859.333 126.129 861.874 127.208L872.69 131.799L883.507 136.39C886.048 137.469 888.984 136.283 890.063 133.741C891.142 131.199 889.956 128.264 887.414 127.185Z" stroke="#00CDF9" stroke-width="3"/>
<path d="M887.414 127.185L865.782 118.003C863.24 116.924 860.305 118.11 859.226 120.652C858.147 123.194 859.333 126.129 861.874 127.208L872.69 131.799L883.507 136.39C886.048 137.469 888.984 136.283 890.063 133.741C891.142 131.199 889.956 128.264 887.414 127.185Z" stroke="#00CDF9" stroke-width="3"/>
<path d="M799.947 88.581L778.315 79.3988C775.773 78.3198 772.838 79.5058 771.759 82.0477C770.68 84.5896 771.866 87.5248 774.408 88.6038L796.039 97.7861C798.581 98.8651 801.517 97.6791 802.596 95.1372C803.674 92.5953 802.488 89.66 799.947 88.581Z" stroke="#00CDF9" stroke-width="3"/>
<path d="M970.352 164.031L948.72 154.849C946.178 153.77 943.243 154.956 942.164 157.498C941.085 160.04 942.271 162.975 944.813 164.054L966.444 173.237C968.986 174.316 971.922 173.13 973.001 170.588C974.08 168.046 972.894 165.11 970.352 164.031Z" stroke="#00CDF9" stroke-width="3"/>
<path d="M1055.14 199.793L1033.51 190.611C1030.96 189.532 1028.03 190.718 1026.95 193.26C1025.87 195.802 1027.06 198.737 1029.6 199.816L1051.23 208.998C1053.77 210.077 1056.71 208.891 1057.79 206.35C1058.87 203.808 1057.68 200.872 1055.14 199.793Z" stroke="#00CDF9" stroke-width="3"/>
<path d="M1139.69 238.033L1118.06 228.851C1115.51 227.772 1112.58 228.958 1111.5 231.5C1110.42 234.042 1111.61 236.977 1114.15 238.056L1135.78 247.238C1138.32 248.317 1141.26 247.131 1142.34 244.589C1143.41 242.048 1142.23 239.112 1139.69 238.033Z" stroke="#00CDF9" stroke-width="3"/>
<path d="M751.125 429.795L729.493 420.613C726.951 419.534 724.016 420.72 722.937 423.262C721.858 425.803 723.044 428.739 725.586 429.818L736.402 434.409L747.218 439C749.76 440.079 752.695 438.893 753.774 436.351C754.853 433.809 753.667 430.874 751.125 429.795Z" stroke="#00CDF9" stroke-width="3"/>
<path d="M751.125 429.795L729.493 420.613C726.951 419.534 724.016 420.72 722.937 423.262C721.858 425.803 723.044 428.739 725.586 429.818L736.402 434.409L747.218 439C749.76 440.079 752.695 438.893 753.774 436.351C754.853 433.809 753.667 430.874 751.125 429.795Z" stroke="#00CDF9" stroke-width="3"/>
<path d="M751.125 429.795L729.493 420.613C726.951 419.534 724.016 420.72 722.937 423.262C721.858 425.803 723.044 428.739 725.586 429.818L736.402 434.409L747.218 439C749.76 440.079 752.695 438.893 753.774 436.351C754.853 433.809 753.667 430.874 751.125 429.795Z" stroke="#00CDF9" stroke-width="3"/>
<path d="M751.125 429.795L729.493 420.613C726.951 419.534 724.016 420.72 722.937 423.262C721.858 425.803 723.044 428.739 725.586 429.818L736.402 434.409L747.218 439C749.76 440.079 752.695 438.893 753.774 436.351C754.853 433.809 753.667 430.874 751.125 429.795Z" stroke="#00CDF9" stroke-width="3"/>
<path d="M667.188 391.328L645.556 382.146C643.014 381.067 640.079 382.253 639 384.795C637.921 387.337 639.107 390.272 641.649 391.351L663.28 400.533C665.822 401.612 668.758 400.426 669.837 397.884C670.916 395.342 669.73 392.407 667.188 391.328Z" stroke="#00CDF9" stroke-width="3"/>
<path d="M842.241 467.626L820.609 458.444C818.067 457.365 815.132 458.551 814.053 461.093C812.974 463.635 814.16 466.57 816.702 467.649L838.334 476.831C840.876 477.91 843.811 476.724 844.89 474.182C845.969 471.64 844.783 468.705 842.241 467.626Z" stroke="#00CDF9" stroke-width="3"/>
<path d="M893.562 478.404L902.365 500.193C903.4 502.753 906.314 503.99 908.874 502.956C911.435 501.921 912.672 499.007 911.637 496.447L907.236 485.553L902.834 474.658C901.8 472.098 898.885 470.861 896.325 471.895C893.765 472.93 892.528 475.844 893.562 478.404Z" stroke="#00CDF9" stroke-width="3"/>
<path d="M893.562 478.404L902.365 500.193C903.4 502.753 906.314 503.99 908.874 502.956C911.435 501.921 912.672 499.007 911.637 496.447L907.236 485.553L902.834 474.658C901.8 472.098 898.885 470.861 896.325 471.895C893.765 472.93 892.528 475.844 893.562 478.404Z" stroke="#00CDF9" stroke-width="3"/>
<path d="M893.562 478.404L902.365 500.193C903.4 502.753 906.314 503.99 908.874 502.956C911.435 501.921 912.672 499.007 911.637 496.447L907.236 485.553L902.834 474.658C901.8 472.098 898.885 470.861 896.325 471.895C893.765 472.93 892.528 475.844 893.562 478.404Z" stroke="#00CDF9" stroke-width="3"/>
<path d="M893.562 478.404L902.365 500.193C903.4 502.753 906.314 503.99 908.874 502.956C911.435 501.921 912.672 499.007 911.637 496.447L907.236 485.553L902.834 474.658C901.8 472.098 898.885 470.861 896.325 471.895C893.765 472.93 892.528 475.844 893.562 478.404Z" stroke="#00CDF9" stroke-width="3"/>
<path d="M917.203 535.948L926.006 557.737C927.041 560.297 929.955 561.534 932.515 560.5C935.075 559.466 936.312 556.551 935.278 553.991L926.475 532.202C925.44 529.642 922.526 528.405 919.966 529.439C917.405 530.474 916.169 533.388 917.203 535.948Z" stroke="#00CDF9" stroke-width="3"/>
<path d="M2020.25 1241.35H2043.75C2046.51 1241.35 2048.75 1239.11 2048.75 1236.35C2048.75 1233.59 2046.51 1231.35 2043.75 1231.35H2032H2020.25C2017.49 1231.35 2015.25 1233.59 2015.25 1236.35C2015.25 1239.11 2017.49 1241.35 2020.25 1241.35Z" stroke="#00CDF9" stroke-width="3"/>
<path d="M2020.25 1241.35H2043.75C2046.51 1241.35 2048.75 1239.11 2048.75 1236.35C2048.75 1233.59 2046.51 1231.35 2043.75 1231.35H2032H2020.25C2017.49 1231.35 2015.25 1233.59 2015.25 1236.35C2015.25 1239.11 2017.49 1241.35 2020.25 1241.35Z" stroke="#00CDF9" stroke-width="3"/>
<path d="M2020.25 1241.35H2043.75C2046.51 1241.35 2048.75 1239.11 2048.75 1236.35C2048.75 1233.59 2046.51 1231.35 2043.75 1231.35H2032H2020.25C2017.49 1231.35 2015.25 1233.59 2015.25 1236.35C2015.25 1239.11 2017.49 1241.35 2020.25 1241.35Z" stroke="#00CDF9" stroke-width="3"/>
<path d="M2020.25 1241.35H2043.75C2046.51 1241.35 2048.75 1239.11 2048.75 1236.35C2048.75 1233.59 2046.51 1231.35 2043.75 1231.35H2032H2020.25C2017.49 1231.35 2015.25 1233.59 2015.25 1236.35C2015.25 1239.11 2017.49 1241.35 2020.25 1241.35Z" stroke="#00CDF9" stroke-width="3"/>
<path d="M2261.5 1241.35H2285C2287.76 1241.35 2290 1239.11 2290 1236.35C2290 1233.59 2287.76 1231.35 2285 1231.35H2273.25H2261.5C2258.74 1231.35 2256.5 1233.59 2256.5 1236.35C2256.5 1239.11 2258.74 1241.35 2261.5 1241.35Z" stroke="#00CDF9" stroke-width="3"/>
<path d="M2261.5 1241.35H2285C2287.76 1241.35 2290 1239.11 2290 1236.35C2290 1233.59 2287.76 1231.35 2285 1231.35H2273.25H2261.5C2258.74 1231.35 2256.5 1233.59 2256.5 1236.35C2256.5 1239.11 2258.74 1241.35 2261.5 1241.35Z" stroke="#00CDF9" stroke-width="3"/>
<path d="M2261.5 1241.35H2285C2287.76 1241.35 2290 1239.11 2290 1236.35C2290 1233.59 2287.76 1231.35 2285 1231.35H2273.25H2261.5C2258.74 1231.35 2256.5 1233.59 2256.5 1236.35C2256.5 1239.11 2258.74 1241.35 2261.5 1241.35Z" stroke="#00CDF9" stroke-width="3"/>
<path d="M2261.5 1241.35H2285C2287.76 1241.35 2290 1239.11 2290 1236.35C2290 1233.59 2287.76 1231.35 2285 1231.35H2273.25H2261.5C2258.74 1231.35 2256.5 1233.59 2256.5 1236.35C2256.5 1239.11 2258.74 1241.35 2261.5 1241.35Z" stroke="#00CDF9" stroke-width="3"/>
<path d="M2263.14 871.059L2285.84 877.141C2288.51 877.856 2291.25 876.273 2291.96 873.606C2292.68 870.938 2291.09 868.197 2288.43 867.482L2265.73 861.4C2263.06 860.685 2260.32 862.268 2259.6 864.935C2258.89 867.603 2260.47 870.344 2263.14 871.059Z" stroke="#00CDF9" stroke-width="3"/>
<path d="M2182.03 847.639L2204.73 853.721C2207.39 854.436 2210.14 852.853 2210.85 850.186C2211.57 847.518 2209.98 844.777 2207.31 844.062L2184.62 837.98C2181.95 837.265 2179.21 838.848 2178.49 841.515C2177.78 844.183 2179.36 846.924 2182.03 847.639Z" stroke="#00CDF9" stroke-width="3"/>
<path d="M2107.65 825.512L2130.35 831.594C2133.02 832.309 2135.76 830.726 2136.47 828.059C2137.19 825.391 2135.61 822.65 2132.94 821.935L2110.24 815.853C2107.57 815.138 2104.83 816.721 2104.12 819.388C2103.4 822.056 2104.98 824.797 2107.65 825.512Z" stroke="#00CDF9" stroke-width="3"/>
<path d="M1302.82 676.808L1324.61 668.005C1327.17 666.97 1328.41 664.056 1327.37 661.496C1326.34 658.935 1323.43 657.698 1320.86 658.733L1309.97 663.134L1299.08 667.536C1296.52 668.57 1295.28 671.485 1296.31 674.045C1297.35 676.605 1300.26 677.842 1302.82 676.808Z" stroke="#00CDF9" stroke-width="3"/>
<path d="M1302.82 676.808L1324.61 668.005C1327.17 666.97 1328.41 664.056 1327.37 661.496C1326.34 658.935 1323.43 657.698 1320.86 658.733L1309.97 663.134L1299.08 667.536C1296.52 668.57 1295.28 671.485 1296.31 674.045C1297.35 676.605 1300.26 677.842 1302.82 676.808Z" stroke="#00CDF9" stroke-width="3"/>
<path d="M1302.82 676.808L1324.61 668.005C1327.17 666.97 1328.41 664.056 1327.37 661.496C1326.34 658.935 1323.43 657.698 1320.86 658.733L1309.97 663.134L1299.08 667.536C1296.52 668.57 1295.28 671.485 1296.31 674.045C1297.35 676.605 1300.26 677.842 1302.82 676.808Z" stroke="#00CDF9" stroke-width="3"/>
<path d="M1302.82 676.808L1324.61 668.005C1327.17 666.97 1328.41 664.056 1327.37 661.496C1326.34 658.935 1323.43 657.698 1320.86 658.733L1309.97 663.134L1299.08 667.536C1296.52 668.57 1295.28 671.485 1296.31 674.045C1297.35 676.605 1300.26 677.842 1302.82 676.808Z" stroke="#00CDF9" stroke-width="3"/>
<path d="M1351.94 657.652L1373.73 648.849C1376.29 647.814 1377.53 644.9 1376.49 642.34C1375.46 639.779 1372.55 638.543 1369.99 639.577L1348.2 648.38C1345.64 649.415 1344.4 652.329 1345.43 654.889C1346.47 657.45 1349.38 658.686 1351.94 657.652Z" stroke="#00CDF9" stroke-width="3"/>
<path d="M1229.51 706.69L1251.3 697.887C1253.86 696.852 1255.09 693.938 1254.06 691.378C1253.03 688.817 1250.11 687.58 1247.55 688.615L1225.76 697.418C1223.2 698.453 1221.97 701.367 1223 703.927C1224.03 706.487 1226.95 707.724 1229.51 706.69Z" stroke="#00CDF9" stroke-width="3"/>
<path d="M1145.41 739.763L1167.2 730.96C1169.76 729.925 1170.99 727.011 1169.96 724.451C1168.92 721.89 1166.01 720.653 1163.45 721.688L1152.56 726.089L1141.66 730.491C1139.1 731.525 1137.86 734.44 1138.9 737C1139.93 739.56 1142.85 740.797 1145.41 739.763Z" stroke="#00CDF9" stroke-width="3"/>
<path d="M1145.41 739.763L1167.2 730.96C1169.76 729.925 1170.99 727.011 1169.96 724.451C1168.92 721.89 1166.01 720.653 1163.45 721.688L1152.56 726.089L1141.66 730.491C1139.1 731.525 1137.86 734.44 1138.9 737C1139.93 739.56 1142.85 740.797 1145.41 739.763Z" stroke="#00CDF9" stroke-width="3"/>
<path d="M1145.41 739.763L1167.2 730.96C1169.76 729.925 1170.99 727.011 1169.96 724.451C1168.92 721.89 1166.01 720.653 1163.45 721.688L1152.56 726.089L1141.66 730.491C1139.1 731.525 1137.86 734.44 1138.9 737C1139.93 739.56 1142.85 740.797 1145.41 739.763Z" stroke="#00CDF9" stroke-width="3"/>
<path d="M1145.41 739.763L1167.2 730.96C1169.76 729.925 1170.99 727.011 1169.96 724.451C1168.92 721.89 1166.01 720.653 1163.45 721.688L1152.56 726.089L1141.66 730.491C1139.1 731.525 1137.86 734.44 1138.9 737C1139.93 739.56 1142.85 740.797 1145.41 739.763Z" stroke="#00CDF9" stroke-width="3"/>
<path d="M1059.09 773.263L1080.88 764.46C1083.44 763.425 1084.68 760.511 1083.64 757.951C1082.61 755.39 1079.69 754.153 1077.13 755.188L1055.35 763.991C1052.78 765.025 1051.55 767.94 1052.58 770.5C1053.62 773.06 1056.53 774.297 1059.09 773.263Z" stroke="#00CDF9" stroke-width="3"/>
<path d="M1445.21 639.577L1467.91 645.659C1470.58 646.374 1473.32 644.791 1474.03 642.124C1474.75 639.456 1473.17 636.715 1470.5 636L1447.8 629.918C1445.13 629.203 1442.39 630.786 1441.68 633.453C1440.96 636.121 1442.54 638.862 1445.21 639.577Z" stroke="#00CDF9" stroke-width="3"/>
<path d="M2332.98 1978.82V2019.38C2332.98 2022.71 2335.68 2025.4 2339 2025.4C2342.32 2025.4 2345.01 2022.71 2345.01 2019.38V1978.82C2345.01 1975.49 2342.32 1972.8 2339 1972.8C2335.68 1972.8 2332.98 1975.49 2332.98 1978.82Z" stroke="#00CDF9" stroke-width="3"/>
<path d="M2345.01 1936.85V1897.02C2345.01 1893.69 2342.32 1891 2339 1891C2335.68 1891 2332.98 1893.69 2332.98 1897.02V1936.85C2332.98 1940.18 2335.68 1942.87 2339 1942.87C2342.32 1942.87 2345.01 1940.18 2345.01 1936.85Z" stroke="#00CDF9" stroke-width="3"/>
<path d="M2345.01 1762.86V1795.12C2345.01 1798.44 2342.32 1801.14 2339 1801.14C2335.68 1801.14 2332.98 1798.44 2332.98 1795.12V1762.86C2332.98 1759.54 2335.68 1756.84 2339 1756.84C2342.32 1756.84 2345.01 1759.54 2345.01 1762.86Z" stroke="#00CDF9" stroke-width="3"/>
<path d="M2332.98 1679.22V1715.19C2332.98 1718.51 2335.68 1721.21 2339 1721.21C2342.32 1721.21 2345.01 1718.51 2345.01 1715.19V1679.22C2345.01 1675.9 2342.32 1673.21 2339 1673.21C2335.68 1673.21 2332.98 1675.9 2332.98 1679.22Z" stroke="#00CDF9" stroke-width="3"/>
<path d="M2345.01 1563.06V1601.03C2345.01 1604.35 2342.32 1607.04 2339 1607.04C2335.68 1607.04 2332.98 1604.35 2332.98 1601.03V1582.04V1563.06C2332.98 1559.74 2335.68 1557.04 2339 1557.04C2342.32 1557.04 2345.01 1559.74 2345.01 1563.06Z" stroke="#00CDF9" stroke-width="3"/>
<path d="M2333.66 1163.05V1199C2333.66 1202.32 2336.35 1205.02 2339.68 1205.02C2343 1205.02 2345.69 1202.32 2345.69 1199V1163.05C2345.69 1159.72 2343 1157.03 2339.68 1157.03C2336.35 1157.03 2333.66 1159.72 2333.66 1163.05Z" stroke="#00CDF9" stroke-width="3"/>
<path d="M2333.98 1062.97V1105.38C2333.98 1108.7 2336.68 1111.39 2340 1111.39C2343.32 1111.39 2346.01 1108.7 2346.01 1105.38V1062.97C2346.01 1059.64 2343.32 1056.95 2340 1056.95C2336.68 1056.95 2333.98 1059.64 2333.98 1062.97Z" stroke="#00CDF9" stroke-width="3"/>
<path d="M2333.66 937.894V978C2333.66 981.322 2336.35 984.015 2339.68 984.015C2343 984.015 2345.69 981.322 2345.69 978V937.894C2345.69 934.572 2343 931.879 2339.68 931.879C2336.35 931.879 2333.66 934.572 2333.66 937.894Z" stroke="#00CDF9" stroke-width="3"/>
<path d="M2611.5 2011.6V1983.6C2611.5 1981.8 2610.04 1980.35 2608.25 1980.35C2606.45 1980.35 2605 1981.8 2605 1983.6V2011.6C2605 2013.39 2606.45 2014.85 2608.25 2014.85C2610.04 2014.85 2611.5 2013.39 2611.5 2011.6Z" stroke="#00CDF9" stroke-width="3"/>
<path d="M2605 1893.6V1926.1C2605 1927.89 2606.45 1929.35 2608.25 1929.35C2610.04 1929.35 2611.5 1927.89 2611.5 1926.1V1893.6C2611.5 1891.8 2610.04 1890.35 2608.25 1890.35C2606.45 1890.35 2605 1891.8 2605 1893.6Z" stroke="#00CDF9" stroke-width="3"/>
<path d="M2611.25 1808.75V1840.75C2611.25 1842.54 2609.79 1844 2608 1844C2606.2 1844 2604.75 1842.54 2604.75 1840.75V1808.75C2604.75 1806.96 2606.2 1805.5 2608 1805.5C2609.79 1805.5 2611.25 1806.96 2611.25 1808.75Z" stroke="#00CDF9" stroke-width="3"/>
<path d="M2605.49 1697.5V1727.5C2605.49 1729.29 2606.94 1730.75 2608.74 1730.75C2610.53 1730.75 2611.99 1729.29 2611.99 1727.5V1697.5C2611.99 1695.71 2610.53 1694.25 2608.74 1694.25C2606.94 1694.25 2605.49 1695.71 2605.49 1697.5Z" stroke="#00CDF9" stroke-width="3"/>
<path d="M2605.49 1592.5V1623.5C2605.49 1625.29 2606.94 1626.75 2608.74 1626.75C2610.53 1626.75 2611.99 1625.29 2611.99 1623.5V1592.5C2611.99 1590.71 2610.53 1589.25 2608.74 1589.25C2606.94 1589.25 2605.49 1590.71 2605.49 1592.5Z" stroke="#00CDF9" stroke-width="3"/>
<path d="M2605 1482.1V1512.6C2605 1514.39 2606.45 1515.85 2608.25 1515.85C2610.04 1515.85 2611.5 1514.39 2611.5 1512.6V1482.1C2611.5 1480.3 2610.04 1478.85 2608.25 1478.85C2606.45 1478.85 2605 1480.3 2605 1482.1Z" stroke="#00CDF9" stroke-width="3"/>
<path d="M2604.75 1327V1362C2604.75 1363.8 2606.2 1365.25 2608 1365.25C2609.79 1365.25 2611.25 1363.8 2611.25 1362V1327C2611.25 1325.21 2609.79 1323.75 2608 1323.75C2606.2 1323.75 2604.75 1325.21 2604.75 1327Z" stroke="#00CDF9" stroke-width="3"/>
<path d="M2604.75 1202V1237C2604.75 1238.8 2606.2 1240.25 2608 1240.25C2609.79 1240.25 2611.25 1238.8 2611.25 1237V1202C2611.25 1200.21 2609.79 1198.75 2608 1198.75C2606.2 1198.75 2604.75 1200.21 2604.75 1202Z" stroke="#00CDF9" stroke-width="3"/>
<path d="M2604.75 1097.25V1136.25C2604.75 1138.04 2606.2 1139.5 2608 1139.5C2609.79 1139.5 2611.25 1138.04 2611.25 1136.25V1097.25C2611.25 1095.46 2609.79 1094 2608 1094C2606.2 1094 2604.75 1095.46 2604.75 1097.25Z" stroke="#00CDF9" stroke-width="3"/>
<path d="M2604.75 1021V1060C2604.75 1061.79 2606.2 1063.25 2608 1063.25C2609.79 1063.25 2611.25 1061.79 2611.25 1060V1021C2611.25 1019.2 2609.79 1017.75 2608 1017.75C2606.2 1017.75 2604.75 1019.2 2604.75 1021Z" stroke="#00CDF9" stroke-width="3"/>
<path d="M2646 1011H2669.5C2672.26 1011 2674.5 1008.76 2674.5 1006C2674.5 1003.24 2672.26 1001 2669.5 1001H2657.75H2646C2643.24 1001 2641 1003.24 2641 1006C2641 1008.76 2643.24 1011 2646 1011Z" stroke="#00CDF9" stroke-width="3"/>
<path d="M2646 1011H2669.5C2672.26 1011 2674.5 1008.76 2674.5 1006C2674.5 1003.24 2672.26 1001 2669.5 1001H2657.75H2646C2643.24 1001 2641 1003.24 2641 1006C2641 1008.76 2643.24 1011 2646 1011Z" stroke="#00CDF9" stroke-width="3"/>
<path d="M2646 1011H2669.5C2672.26 1011 2674.5 1008.76 2674.5 1006C2674.5 1003.24 2672.26 1001 2669.5 1001H2657.75H2646C2643.24 1001 2641 1003.24 2641 1006C2641 1008.76 2643.24 1011 2646 1011Z" stroke="#00CDF9" stroke-width="3"/>
<path d="M2646 1011H2669.5C2672.26 1011 2674.5 1008.76 2674.5 1006C2674.5 1003.24 2672.26 1001 2669.5 1001H2657.75H2646C2643.24 1001 2641 1003.24 2641 1006C2641 1008.76 2643.24 1011 2646 1011Z" stroke="#00CDF9" stroke-width="3"/>
<path d="M2032.52 803.706L2055.22 809.788C2057.89 810.503 2060.63 808.92 2061.35 806.253C2062.06 803.586 2060.48 800.844 2057.81 800.129L2035.11 794.047C2032.44 793.332 2029.7 794.915 2028.99 797.583C2028.27 800.25 2029.86 802.992 2032.52 803.706Z" stroke="#00CDF9" stroke-width="3"/>
<path d="M1951.4 782.833L1974.1 788.915C1976.77 789.63 1979.51 788.047 1980.22 785.38C1980.94 782.712 1979.35 779.971 1976.69 779.256L1953.99 773.174C1951.32 772.459 1948.58 774.042 1947.86 776.709C1947.15 779.377 1948.73 782.118 1951.4 782.833Z" stroke="#00CDF9" stroke-width="3"/>
<path d="M1877.03 760.751L1899.73 766.833C1902.4 767.548 1905.14 765.965 1905.86 763.298C1906.57 760.63 1904.99 757.889 1902.32 757.174L1879.62 751.092C1876.96 750.377 1874.21 751.96 1873.5 754.627C1872.78 757.294 1874.37 760.036 1877.03 760.751Z" stroke="#00CDF9" stroke-width="3"/>
<path d="M1809.83 742.912L1832.53 748.994C1835.19 749.709 1837.93 748.126 1838.65 745.459C1839.36 742.792 1837.78 740.05 1835.11 739.335L1812.41 733.253C1809.75 732.538 1807.01 734.121 1806.29 736.788C1805.58 739.456 1807.16 742.198 1809.83 742.912Z" stroke="#00CDF9" stroke-width="3"/>
<path d="M1740.06 722.533L1762.76 728.616C1765.43 729.331 1768.17 727.748 1768.89 725.08C1769.6 722.413 1768.02 719.671 1765.35 718.956L1742.65 712.874C1739.98 712.159 1737.24 713.742 1736.53 716.41C1735.81 719.077 1737.4 721.819 1740.06 722.533Z" stroke="#00CDF9" stroke-width="3"/>
<path d="M1665.68 702.953L1688.37 709.035C1691.04 709.75 1693.78 708.167 1694.5 705.5C1695.21 702.832 1693.63 700.091 1690.96 699.376L1668.26 693.294C1665.6 692.579 1662.85 694.162 1662.14 696.829C1661.43 699.497 1663.01 702.238 1665.68 702.953Z" stroke="#00CDF9" stroke-width="3"/>
<path d="M1602.92 684.74L1625.62 690.822C1628.29 691.537 1631.03 689.954 1631.75 687.286C1632.46 684.619 1630.88 681.877 1628.21 681.163L1605.51 675.08C1602.84 674.366 1600.1 675.949 1599.39 678.616C1598.67 681.283 1600.26 684.025 1602.92 684.74Z" stroke="#00CDF9" stroke-width="3"/>
<path d="M1528.53 665.159L1551.23 671.242C1553.9 671.956 1556.64 670.373 1557.36 667.706C1558.07 665.039 1556.49 662.297 1553.82 661.582L1531.12 655.5C1528.46 654.785 1525.71 656.368 1525 659.036C1524.28 661.703 1525.87 664.445 1528.53 665.159Z" stroke="#00CDF9" stroke-width="3"/>
<path d="M2135.75 1241.35H2159.25C2162.01 1241.35 2164.25 1239.11 2164.25 1236.35C2164.25 1233.59 2162.01 1231.35 2159.25 1231.35H2147.5H2135.75C2132.99 1231.35 2130.75 1233.59 2130.75 1236.35C2130.75 1239.11 2132.99 1241.35 2135.75 1241.35Z" stroke="#00CDF9" stroke-width="3"/>
<path d="M2135.75 1241.35H2159.25C2162.01 1241.35 2164.25 1239.11 2164.25 1236.35C2164.25 1233.59 2162.01 1231.35 2159.25 1231.35H2147.5H2135.75C2132.99 1231.35 2130.75 1233.59 2130.75 1236.35C2130.75 1239.11 2132.99 1241.35 2135.75 1241.35Z" stroke="#00CDF9" stroke-width="3"/>
<path d="M2135.75 1241.35H2159.25C2162.01 1241.35 2164.25 1239.11 2164.25 1236.35C2164.25 1233.59 2162.01 1231.35 2159.25 1231.35H2147.5H2135.75C2132.99 1231.35 2130.75 1233.59 2130.75 1236.35C2130.75 1239.11 2132.99 1241.35 2135.75 1241.35Z" stroke="#00CDF9" stroke-width="3"/>
<path d="M2135.75 1241.35H2159.25C2162.01 1241.35 2164.25 1239.11 2164.25 1236.35C2164.25 1233.59 2162.01 1231.35 2159.25 1231.35H2147.5H2135.75C2132.99 1231.35 2130.75 1233.59 2130.75 1236.35C2130.75 1239.11 2132.99 1241.35 2135.75 1241.35Z" stroke="#00CDF9" stroke-width="3"/>
<path d="M2005 1519.5H2028.5C2031.26 1519.5 2033.5 1517.26 2033.5 1514.5C2033.5 1511.74 2031.26 1509.5 2028.5 1509.5H2016.75H2005C2002.24 1509.5 2000 1511.74 2000 1514.5C2000 1517.26 2002.24 1519.5 2005 1519.5Z" stroke="#00CDF9" stroke-width="3"/>
<path d="M2005 1519.5H2028.5C2031.26 1519.5 2033.5 1517.26 2033.5 1514.5C2033.5 1511.74 2031.26 1509.5 2028.5 1509.5H2016.75H2005C2002.24 1509.5 2000 1511.74 2000 1514.5C2000 1517.26 2002.24 1519.5 2005 1519.5Z" stroke="#00CDF9" stroke-width="3"/>
<path d="M2005 1519.5H2028.5C2031.26 1519.5 2033.5 1517.26 2033.5 1514.5C2033.5 1511.74 2031.26 1509.5 2028.5 1509.5H2016.75H2005C2002.24 1509.5 2000 1511.74 2000 1514.5C2000 1517.26 2002.24 1519.5 2005 1519.5Z" stroke="#00CDF9" stroke-width="3"/>
<path d="M2005 1519.5H2028.5C2031.26 1519.5 2033.5 1517.26 2033.5 1514.5C2033.5 1511.74 2031.26 1509.5 2028.5 1509.5H2016.75H2005C2002.24 1509.5 2000 1511.74 2000 1514.5C2000 1517.26 2002.24 1519.5 2005 1519.5Z" stroke="#00CDF9" stroke-width="3"/>
<path d="M2243.87 1519.5H2267.37C2270.14 1519.5 2272.37 1517.26 2272.37 1514.5C2272.37 1511.74 2270.14 1509.5 2267.37 1509.5H2255.62H2243.87C2241.11 1509.5 2238.87 1511.74 2238.87 1514.5C2238.87 1517.26 2241.11 1519.5 2243.87 1519.5Z" stroke="#00CDF9" stroke-width="3"/>
<path d="M2243.87 1519.5H2267.37C2270.14 1519.5 2272.37 1517.26 2272.37 1514.5C2272.37 1511.74 2270.14 1509.5 2267.37 1509.5H2255.62H2243.87C2241.11 1509.5 2238.87 1511.74 2238.87 1514.5C2238.87 1517.26 2241.11 1519.5 2243.87 1519.5Z" stroke="#00CDF9" stroke-width="3"/>
<path d="M2243.87 1519.5H2267.37C2270.14 1519.5 2272.37 1517.26 2272.37 1514.5C2272.37 1511.74 2270.14 1509.5 2267.37 1509.5H2255.62H2243.87C2241.11 1509.5 2238.87 1511.74 2238.87 1514.5C2238.87 1517.26 2241.11 1519.5 2243.87 1519.5Z" stroke="#00CDF9" stroke-width="3"/>
<path d="M2243.87 1519.5H2267.37C2270.14 1519.5 2272.37 1517.26 2272.37 1514.5C2272.37 1511.74 2270.14 1509.5 2267.37 1509.5H2255.62H2243.87C2241.11 1509.5 2238.87 1511.74 2238.87 1514.5C2238.87 1517.26 2241.11 1519.5 2243.87 1519.5Z" stroke="#00CDF9" stroke-width="3"/>
<path d="M2178 1519.5H2201.5C2204.26 1519.5 2206.5 1517.26 2206.5 1514.5C2206.5 1511.74 2204.26 1509.5 2201.5 1509.5H2189.75H2178C2175.24 1509.5 2173 1511.74 2173 1514.5C2173 1517.26 2175.24 1519.5 2178 1519.5Z" stroke="#00CDF9" stroke-width="3"/>
<path d="M2178 1519.5H2201.5C2204.26 1519.5 2206.5 1517.26 2206.5 1514.5C2206.5 1511.74 2204.26 1509.5 2201.5 1509.5H2189.75H2178C2175.24 1509.5 2173 1511.74 2173 1514.5C2173 1517.26 2175.24 1519.5 2178 1519.5Z" stroke="#00CDF9" stroke-width="3"/>
<path d="M2178 1519.5H2201.5C2204.26 1519.5 2206.5 1517.26 2206.5 1514.5C2206.5 1511.74 2204.26 1509.5 2201.5 1509.5H2189.75H2178C2175.24 1509.5 2173 1511.74 2173 1514.5C2173 1517.26 2175.24 1519.5 2178 1519.5Z" stroke="#00CDF9" stroke-width="3"/>
<path d="M2178 1519.5H2201.5C2204.26 1519.5 2206.5 1517.26 2206.5 1514.5C2206.5 1511.74 2204.26 1509.5 2201.5 1509.5H2189.75H2178C2175.24 1509.5 2173 1511.74 2173 1514.5C2173 1517.26 2175.24 1519.5 2178 1519.5Z" stroke="#00CDF9" stroke-width="3"/>
<path d="M1682.8 426.472L1705.5 432.554C1708.17 433.269 1710.91 431.686 1711.63 429.018C1712.34 426.351 1710.76 423.609 1708.09 422.895L1685.39 416.812C1682.73 416.098 1679.98 417.681 1679.27 420.348C1678.55 423.015 1680.14 425.757 1682.8 426.472Z" stroke="#00CDF9" stroke-width="3"/>
<path d="M1625.03 410.159L1647.73 416.242C1650.4 416.956 1653.14 415.373 1653.86 412.706C1654.57 410.039 1652.99 407.297 1650.32 406.582L1627.62 400.5C1624.96 399.785 1622.21 401.368 1621.5 404.036C1620.78 406.703 1622.37 409.445 1625.03 410.159Z" stroke="#00CDF9" stroke-width="3"/>
</svg>
