<svg width="26" height="26" viewBox="0 0 26 26" fill="none" xmlns="http://www.w3.org/2000/svg">
<path d="M13.4741 13.5312C15.2 13.5312 16.5991 12.1321 16.5991 10.4062C16.5991 8.68036 15.2 7.28125 13.4741 7.28125C11.7482 7.28125 10.3491 8.68036 10.3491 10.4062C10.3491 12.1321 11.7482 13.5312 13.4741 13.5312Z" stroke="white" stroke-width="1.64615" stroke-linecap="round" stroke-linejoin="round"/>
<path d="M21.2866 10.4062C21.2866 17.4375 13.4741 22.9062 13.4741 22.9062C13.4741 22.9062 5.66162 17.4375 5.66162 10.4062C5.66162 8.33425 6.48472 6.34711 7.94985 4.88198C9.41498 3.41685 11.4021 2.59375 13.4741 2.59375C15.5461 2.59375 17.5333 3.41685 18.9984 4.88198C20.4635 6.34711 21.2866 8.33425 21.2866 10.4062V10.4062Z" stroke="white" stroke-width="1.64615" stroke-linecap="round" stroke-linejoin="round"/>
</svg>
