<svg width="1064" height="1267" viewBox="0 0 1064 1267" fill="none" xmlns="http://www.w3.org/2000/svg">
<path d="M118.191 1215.87L45.1509 1141.84L46.965 647H294.5L306.5 645V723.5H416.5V783.5H435L482 830V960H600V542H539L522.5 551L520.5 557L513.5 567L506 572.5L497 576L485.5 578H457.5V551L456.5 542L46.8915 541L45.1509 99.48L297.5 99H338.5L441 107L445 182.5H463.5V280H412V428.5H447L455 406.5L440.5 384.5L474.5 361L491 383.5L507 387L513.5 396L543 377.5H653.5V399H790.5L806 385V367H768V324.5H806V226H769V178.5H806V48.8466L944.071 49.32L945.611 630.45H810.421L807.341 953.96H1031V1043.39H939.231V1213.78L118.191 1215.87Z" fill="#23292E"/>
<path d="M45.1509 99.48L44.7109 75.72M45.1509 99.48L297.5 99H338.5L441 107L445 182.5H463.5V280H412V428.5H447L455 406.5L440.5 384.5L474.5 361L491 383.5L507 387L513.5 396L543 377.5H653.5V399H790.5L806 385V367H768V324.5H806V226H769V178.5H806V48.8466L944.071 49.32L945.611 630.45H810.421L807.341 953.96H1031V1043.39H939.231V1213.78L118.191 1215.87L45.1509 1141.84L46.965 647H294.5L306.5 645V723.5H416.5V783.5H435L482 830V960H600V542H539L522.5 551L520.5 557L513.5 567L506 572.5L497 576L485.5 578H457.5V551L456.5 542L46.8915 541L45.1509 99.48Z" stroke="black" stroke-width="0.22"/>
<path d="M686.15 1026V1046.5H619V1079.69H611V1046.5H521.781V1026H686.15Z" fill="#525865"/>
<path d="M419 1026V1046.5H440.5V1079.69H448.5V1046.5H485.416V1026H419Z" fill="#525865"/>
<path d="M376.002 1046.5H348.922L349 1079.69H329.5V1046.5H320.581V1026H376L376.002 1046.5Z" fill="#525865"/>
<path d="M285 1046.5V1025H275L268 1019L259 1027.5L262.181 1030.5L267 1034.5L262.181 1039.54L222.5 1079.5L213 1071.5L203 1084.87L210.5 1092V1126.5H229.5V1089L271 1046.5H285Z" fill="#525865"/>
<path d="M242.5 998L234.5 1007L229.91 1002.2L186.633 1045.9L190.738 1049.94L178.87 1060.5L171.72 1055.33H146.09V1043.67H171.72L215.17 999.691V981.32H235.96V992.5L242.5 998Z" fill="#525865"/>
<path d="M221.5 163.5V276.58H202.5V254.25H172.06V239.07H202.671L201.5 163.5H221.5Z" fill="#525865"/>
<path d="M671.5 765.5H657V852.5H671.5V824.078H700.531V810H671.5V765.5Z" fill="#525865"/>
<path d="M57.6909 631.77H35.8009L46.6911 601.179L35.5809 570.28H57.6909L46.6911 601.179L57.6909 631.77Z" fill="#525865"/>
<path d="M35.8009 96.62L44.7655 75.7936L35.8009 54.71H53.8409L44.7655 75.7936L53.6209 96.62H35.8009Z" fill="#525865"/>
<path d="M866.741 380.97H875.101V351.36H866.741V380.97Z" fill="#525865"/>
<path d="M875.101 380.97H883.461V351.36H875.101V380.97Z" fill="#525865"/>
<path d="M883.461 380.97H891.821V351.36H883.461V380.97Z" fill="#525865"/>
<path d="M891.821 380.97H900.181V351.36H891.821V380.97Z" fill="#525865"/>
<path d="M900.181 380.97H908.541V351.36H900.181V380.97Z" fill="#525865"/>
<path d="M865.201 321.751H858.381V351.36H866.741V321.751H865.201Z" fill="#525865"/>
<path d="M883.461 321.751H879.941H875.101V351.36H883.461V321.751Z" fill="#525865"/>
<path d="M875.101 321.751H872.351H866.741V351.36H875.101V321.751Z" fill="#525865"/>
<path d="M858.381 380.97H866.741V351.36H858.381V380.97Z" fill="#525865"/>
<path d="M425.518 225.43V191.6H417.777V225.43H425.518Z" fill="#525865"/>
<path d="M425.518 264V225.43H417.777V264H425.518Z" fill="#525865"/>
<path d="M417.777 225.43V191.6H410.037V225.43H417.777Z" fill="#525865"/>
<path d="M417.777 264V225.43H410.037V264H417.777Z" fill="#525865"/>
<path d="M410.037 225.43V191.6H402.296V225.43H410.037Z" fill="#525865"/>
<path d="M410.037 264V225.43H402.296V264H410.037Z" fill="#525865"/>
<path d="M402.296 225.43V191.6H394.555V225.43H402.296Z" fill="#525865"/>
<path d="M402.296 264V225.43H394.555V264H402.296Z" fill="#525865"/>
<path d="M394.555 225.43V191.6H386.814V225.43H394.555Z" fill="#525865"/>
<path d="M394.555 264V225.43H386.814V264H394.555Z" fill="#525865"/>
<path d="M466 533V491.74H446.5V533H293.5V516H284V533H223.461L222.504 437.5H280.168L280.164 480.74H294.301V437.5H446.5V451.065H466V437.5L475.5 431.57L463 416H451.381H425.201V372.06L424.5 291H472.5L496.5 267.5V245.5H477V202.77H496.5V187L477 170.5H452V98.71H338.521V115.87H345.451V179.5H338.521V191.6H362V179.5H358.647V117.524L434 117.5V179.476L380.059 179.5V191.6H386.814H394.555H402.296H410.037H417.777H425.518H433.259H441H448.741V225.43V264H441H433.259H425.518H417.777H410.037H402.296H394.555H386.814H374.491V279.335H398.471V306H293V279L349 279.335V264H293V247.5H278V319H398.471L397.5 423.5H222.504L222.5 395.93H202V419.36H172V437.5H201.5V533H58.85L58.1309 437.111H137.441V419.36H99H58.1309V254.25H136.561V239.07H58.1309V117.5H201.5V132.92H221V117.524H278V205.534H293.451V191.5H302.661V179.5H293.451V151.51V145.9V140.29V135.89V130.5V125.33V119.28V117.524H298.371V98.71H290.451H35.2509V568.08H58.1309L58.811 547.5H294.981L294.301 588.32H314V551.203H457.541H463.261H469.201H474.811H480.531H485.921H488.451L488.66 533H477.88H466Z" fill="#525865"/>
<path d="M221.5 303V306H231V319H221.5V367.298L202.5 367V303H221.5Z" fill="#525865"/>
<path d="M313 925.5H293.861V952.5L313 971H425V928.77V919.75V910.95V902.81V896.98V889.72V881.58V874.54V864.97V862V859.91L404.5 840.5H293.861V893H313V859.5H404.5V948.214H313V925.5Z" fill="#525865"/>
<path d="M1000.42 1003.86V971H993.419V1003.86H1000.42Z" fill="#525865"/>
<path d="M1000.42 1038.06V1003.86H993.419V1038.06H1000.42Z" fill="#525865"/>
<path d="M986.419 1003.86V971H979.419V1003.86H986.419Z" fill="#525865"/>
<path d="M986.419 1038.06V1003.86H979.419V1038.06H986.419Z" fill="#525865"/>
<path d="M993.419 1003.86V971H986.419V1003.86H993.419Z" fill="#525865"/>
<path d="M993.419 1038.06V1003.86H986.419V1038.06H993.419Z" fill="#525865"/>
<path d="M979.419 1003.86V971H972.419V1003.86H979.419Z" fill="#525865"/>
<path d="M979.419 1038.06V1003.86H972.419V1038.06H979.419Z" fill="#525865"/>
<path d="M965.419 1003.86V971H958.419V1003.86H965.419Z" fill="#525865"/>
<path d="M965.419 1038.06V1003.86H958.419V1038.06H965.419Z" fill="#525865"/>
<path d="M972.419 1003.86V971H965.419V1003.86H972.419Z" fill="#525865"/>
<path d="M972.419 1038.06V1003.86H965.419V1038.06H972.419Z" fill="#525865"/>
<path d="M958.419 1003.86V971H951.419V1003.86H958.419Z" fill="#525865"/>
<path d="M958.419 1038.06V1003.86H951.419V1038.06H958.419Z" fill="#525865"/>
<path d="M944.419 1003.86V971H937.419V1003.86H944.419Z" fill="#525865"/>
<path d="M944.419 1038.06V1003.86H937.419V1038.06H944.419Z" fill="#525865"/>
<path d="M951.419 1003.86V971H944.419V1003.86H951.419Z" fill="#525865"/>
<path d="M951.419 1038.06V1003.86H944.419V1038.06H951.419Z" fill="#525865"/>
<path d="M937.419 1003.86V971H930.419V1003.86H937.419Z" fill="#525865"/>
<path d="M937.419 1038.06V1003.86H930.419V1038.06H937.419Z" fill="#525865"/>
<path d="M923.419 1003.86V971H916.419V1003.86H923.419Z" fill="#525865"/>
<path d="M923.419 1038.06V1003.86H916.419V1038.06H923.419Z" fill="#525865"/>
<path d="M930.419 1003.86V971H923.419V1003.86H930.419Z" fill="#525865"/>
<path d="M930.419 1038.06V1003.86H923.419V1038.06H930.419Z" fill="#525865"/>
<path d="M915.919 1003.86V971H908.919V1003.86H915.919Z" fill="#525865"/>
<path d="M915.919 1038.06V1003.86H908.919V1038.06H915.919Z" fill="#525865"/>
<path d="M113.5 1229.5H952.101V1198.38L952.02 1054.5H1031V1038.06H1000.42H993.419H986.419H979.419H972.419H965.419H958.419H951.419H944.419H937.419H930.419H923.419H916.419H915.919H908.919H906.919H818V1026H744.243V1046.5H795.49V1085.69H813.5V1054.5H929.47V1206H813.484L813.565 1117.53H795.49V1206H619V1117.53H611V1206H451.077V1117.53H437.256V1206H349V1117.53H329.5V1206H229.5V1158.98H210.5V1206H113.5L58.1309 1151.5V1055.16H107.062V1043.5H58.1309V932.07H216.091V943H236V857.49H215.556V917H58.1309V662.538H216.236L215.556 805.24H236V727.21H248.211V716.834H236V704.59V699.86V695.13V690.4V684.9V679.73V674.01V667.19V660.48V656.3V651.57V646.84V637.096H216.236V643.76H58.1309V633.86H35.2509L33 1151.5L113.5 1229.5Z" fill="#525865"/>
<path d="M900.181 321.751H891.821V351.36H900.181V321.751Z" fill="#525865"/>
<path d="M891.821 321.751H883.461V351.36H891.821V321.751Z" fill="#525865"/>
<path d="M908.541 321.751H900.181V351.36H908.541V321.751Z" fill="#525865"/>
<path d="M294.301 727.21V737.81H314V727.21H408.5V771.5H314V760.8H294.301V792.32H317.841H322.681H326.971H331.921H337.641H342.371H347.871H353.591H358.761H363.711H368.166H372.621H428.5L469.5 836V857.49V864.97V874.54V881.58V889.72V896.98V902.81V910.95V919.75V928.77V971H611V641.313H618.5V625.5H611V551.203H630.351H709V625.5H645.5V641.313H655.5V664H671.5V641.313H738.5V625.5H717.5V551.203H938.901V625.5H782V641.181H798.081V703.91H672.362V695H655.422V733.88H671.584V717.195H798.081V810H760.666V824.078H798.081L798.001 948.85H672.926L673 889H656.076V948.85H646.11V971H798.9V978.5H818.419V971H908.919H915.919H916.419H923.419H930.419H937.419H944.419H951.419H958.419H965.419H972.419H979.419H986.419H993.419H1000.42H1030V948.85H818.419L818.5 642.5L953.641 641.89V37H35.2509V52.6349H795.5V174.161H768.981V191.501H775.55V183.257H795.939V190H817V137.54H835.322V118.636H817V52.6349H938.901V118.636H866.521V137.54L938.901 137.649V221.535L817 221.515V215.403L795.939 215.314V221.425H775.55V215.314H768.981V230.38H795.5V321.751H768.297V327.07H771.151H775.551H779.291H783.416H787.541H791.74H795.5V336.106H812.5V321.751H824.128V304.41H817V235.44H938.901V304.41H852.991V321.751H858.381H865.201H866.741H872.351H875.101H879.941H883.461H891.821H900.181H908.541H938.901V380.97H908.541H900.181H891.821H883.461H875.101H866.741H858.381V399.45H874.001V476.89H824.128V402.31L806.241 425.63V493.39H824.128V488.44H874.001V493.39H891.271V399.45H938.901V533H891.271V523.913H874.001V533H824.128V526.5H804.041V533H661V409H791.501L812.5 383V358.2H795.5V363.601H768.297V368.86H795.5V387.79L661 387.813V368H539.5L509 387L499.5 393L511 407.635L539.5 389V422.77H554V384.82H642.891V533H554V455H539.5V533H522.551V551.203H585.5V948H490.29L490 827.5L440 771.5H421V716.834H314V637.096H294.301V716.834H281.761V727.21H294.301Z" fill="#525865"/>
<path d="M522.551 551.203V533H539.5V455H554V533H642.891V384.82H554V422.77H539.5V389L511 407.635L499.5 393L509 387M522.551 551.203H585.5V948H490.29L490 827.5L440 771.5H421V716.834H314V637.096H294.301V716.834H281.761V727.21H294.301V737.81H314V727.21H408.5V771.5H314V760.8H294.301V792.32H317.841M522.551 551.203L518 562.5L506.5 573.5L485.921 578.31M858.381 380.97V399.45H874.001V476.89H824.128V402.31L806.241 425.63V493.39H824.128V488.44H874.001V493.39H891.271V399.45H938.901V533H891.271V523.913H874.001V533H824.128V526.5H804.041V533H661V409H791.501L812.5 383V358.2H795.5V363.601H768.297V368.86H795.5V387.79L661 387.813V368H539.5L509 387M858.381 380.97H938.901M858.381 380.97H866.741M858.381 380.97V351.36M858.381 380.97L908.541 351.36M938.901 380.97V321.751M938.901 380.97H908.541M938.901 321.751H852.991M938.901 321.751H908.541M852.991 321.751V304.41H938.901V235.44H817V304.41H824.128V321.751H812.5V336.106H795.5V327.07H791.74M852.991 321.751H858.381M374.491 264V279.335H398.471V306H293V279L349 279.335V264H293V247.5H278V319H398.471L397.5 423.5H222.504L222.5 395.93H202V419.36H172V437.5H201.5V533H58.85L58.1309 437.111H137.441V419.36H99H58.1309V254.25H136.561V239.07H58.1309V117.5H201.5V132.92H221V117.524H278V205.534H293.451V191.5H302.661V179.5H293.451V151.51M374.491 264H441M374.491 264H386.814M380.059 191.6V179.5L434 179.476V117.5L358.647 117.524V179.5H362V191.6H338.521V179.5H345.451V115.87H338.521V98.71H452V170.5H477L496.5 187V202.77H477V245.5H496.5V267.5L472.5 291H424.5L425.201 372.06V416H451.381M380.059 191.6H441M380.059 191.6H386.814M425 928.77V971H313L293.861 952.5V925.5H313V948.214H404.5V859.5H313V893H293.861V840.5H404.5L425 859.91V862V864.97M425 928.77H469.5M425 928.77V919.75M469.5 928.77V971H611V641.313H618.5V625.5H611V551.203H630.351H709V625.5H645.5V641.313H655.5V664H671.5V641.313H738.5V625.5H717.5V551.203H938.901V625.5H782V641.181H798.081V703.91H672.362V695H655.422V733.88H671.584V717.195H798.081V810H760.666V824.078H798.081L798.001 948.85H672.926L673 889H656.076V948.85H646.11V971H798.9V978.5H818.419V971H908.919M469.5 928.77V919.75M469.5 919.75H425M469.5 919.75V910.95M425 919.75V910.95M425 910.95H469.5M425 910.95V902.81M469.5 910.95V902.81M469.5 902.81H425M469.5 902.81V896.98M425 902.81V896.98M425 896.98H469.5M425 896.98V889.72M469.5 896.98V889.72M469.5 889.72H425M469.5 889.72V881.58M425 889.72V881.58M425 881.58H469.5M425 881.58V874.54M469.5 881.58V874.54M469.5 874.54H425M469.5 874.54V864.97M425 874.54V864.97M425 864.97H469.5M469.5 864.97V857.49V836L428.5 792.32H372.621M372.621 792.32V840.06H368.166M372.621 792.32H368.166M317.841 792.32L318.061 840.06H322.681M317.841 792.32H322.681M322.681 792.32V840.06M322.681 792.32H326.971M322.681 840.06H326.971M326.971 840.06V792.32M326.971 840.06H331.921M326.971 792.32H331.921M331.921 792.32V840.06M331.921 792.32H337.641M331.921 840.06H337.641M337.641 840.06V792.32M337.641 840.06H342.371M337.641 792.32H342.371M342.371 792.32V840.06M342.371 792.32H347.871M342.371 840.06H347.871M347.871 840.06V792.32M347.871 840.06H353.591M347.871 792.32H353.591M353.591 792.32V840.06M353.591 792.32H358.761M353.591 840.06H358.761M358.761 840.06V792.32M358.761 840.06H363.711M358.761 792.32H363.711M363.711 792.32V840.06M363.711 792.32H368.166M363.711 840.06H368.166M368.166 840.06V792.32M236 704.59V716.834H248.211V727.21H236V805.24H215.556L216.236 662.538H58.1309V917H215.556V857.49H236V943H216.091V932.07H58.1309V1043.5H107.062V1055.16H58.1309V1151.5L113.5 1206H210.5V1158.98H229.5V1206H329.5V1117.53H349V1206H437.256V1117.53H451.077V1206H611V1117.53H619V1206H795.49V1117.53H813.565L813.484 1206H929.47V1054.5H813.5V1085.69H795.49V1046.5H744.243V1026H818V1038.06H906.919M236 704.59H293.841V699.86M236 704.59V699.86M236 646.84H293.841V651.57M236 646.84V651.57M236 646.84V637.096H216.236V643.76H58.1309V633.86H35.2509L33 1151.5L113.5 1229.5H952.101V1198.38L952.02 1054.5H1031V1038.06H1000.42M236 651.57H293.841M236 651.57V656.3M293.841 651.57V656.3M293.841 656.3H236M293.841 656.3V660.48M236 656.3V660.48M236 660.48H293.841M236 660.48V667.19M293.841 660.48V667.19M293.841 667.19H236M293.841 667.19V674.01M236 667.19V674.01M236 674.01H293.841M236 674.01V679.73M293.841 674.01V679.73M293.841 679.73H236M293.841 679.73V684.9M236 679.73V684.9M236 684.9H293.841M236 684.9V690.4M293.841 684.9V690.4M293.841 690.4H236M293.841 690.4V695.13M236 690.4V695.13M236 695.13H293.841M236 695.13V699.86M293.841 695.13V699.86M293.841 699.86H236M457.541 551.203H314V588.32H294.301L294.981 547.5H58.811L58.1309 568.08H35.2509V98.71H290.451H298.371V117.524H293.451V119.28M457.541 551.203V578.31H463.261M457.541 551.203H463.261M463.261 551.203V578.31M463.261 551.203H469.201M463.261 578.31H469.201M469.201 578.31V551.203M469.201 578.31H474.811M469.201 551.203H474.811M474.811 551.203V578.31M474.811 551.203H480.531M474.811 578.31H480.531M480.531 578.31V551.203M480.531 578.31H485.921M480.531 551.203H485.921M485.921 551.203H488.451L488.66 533H477.88H466V491.74H446.5V533H293.5V516H284V533H223.461L222.504 437.5H280.168L280.164 480.74H294.301V437.5H446.5V451.065H466V437.5L475.5 431.57L463 416H451.381M485.921 551.203V576.33V578.31M454.571 407L451.381 416M454.571 407L453.251 403.63M454.571 407L491.311 383.39M491.311 383.39L488.512 379.76M491.311 383.39L509 387M442.358 387.813L440.161 384.71L474.371 360.73L476.987 364.25M442.358 387.813L476.987 364.25M442.358 387.813L444.523 390.87M476.987 364.25L479.194 367.22M479.194 367.22L444.523 390.87M479.194 367.22L481.646 370.52M444.523 390.87L446.86 394.17M446.86 394.17L481.646 370.52M446.86 394.17L448.885 397.03M481.646 370.52L483.771 373.38M483.771 373.38L448.885 397.03M483.771 373.38L486.142 376.57M448.885 397.03L451.381 400.11M451.381 400.11L486.142 376.57M451.381 400.11L453.251 403.63M486.142 376.57L488.512 379.76M488.512 379.76L453.251 403.63M787.541 327.07L787.211 363.15M787.541 327.07H783.416M787.541 327.07H791.74M787.211 363.15H783.251M787.211 363.15H791.501L791.74 327.07M771.151 327.07H768.297V321.751H795.5V230.38H768.981V215.314H775.55V221.425H795.939V215.314L817 215.403V221.515L938.901 221.535V137.649L866.521 137.54V118.636H938.901V52.6349H817V118.636H835.322V137.54H817V190H795.939V183.257H775.55V191.501H768.981V174.161H795.5V52.6349H35.2509V37H953.641V641.89L818.5 642.5L818.419 948.85H1030V971H1000.42M771.151 327.07V363.15H775.551M771.151 327.07H775.551M775.551 327.07V363.15M775.551 327.07H779.291M775.551 363.15H779.291M779.291 363.15V327.07M779.291 363.15H783.251M779.291 327.07H783.416M783.416 327.07L783.251 363.15M293.451 151.51H344.901V145.9M293.451 151.51V145.9M293.451 119.28H344.901V125.33M293.451 119.28V125.33M293.451 125.33H344.901M293.451 125.33V130.5M344.901 125.33V130.5M344.901 130.5H293.451M344.901 130.5V135.89M293.451 130.5V135.89M293.451 135.89H344.901M293.451 135.89V140.29M344.901 135.89V140.29M344.901 140.29H293.451M344.901 140.29V145.9M293.451 140.29V145.9M293.451 145.9H344.901M46.6911 601.179L35.8009 631.77H57.6909L46.6911 601.179ZM46.6911 601.179L35.5809 570.28H57.6909L46.6911 601.179ZM44.7655 75.7936L35.8009 96.62H53.6209L44.7655 75.7936ZM44.7655 75.7936L35.8009 54.71H53.8409L44.7655 75.7936ZM858.381 321.751H865.201H866.741M858.381 321.751V351.36M866.741 380.97H875.101M866.741 380.97V351.36M875.101 380.97V351.36M875.101 380.97H883.461M866.741 321.751H872.351H875.101M866.741 321.751V351.36M858.381 351.36H866.741M866.741 351.36H875.101M875.101 351.36H883.461M875.101 351.36V321.751M883.461 380.97V351.36M883.461 380.97H891.821M883.461 351.36H891.821M883.461 351.36V321.751M891.821 380.97V351.36M891.821 380.97H900.181M891.821 351.36H900.181M891.821 351.36V321.751M900.181 380.97V351.36M900.181 380.97H908.541M900.181 351.36V321.751M900.181 351.36H908.541M875.101 321.751H879.941H883.461M883.461 321.751H891.821M891.821 321.751H900.181M900.181 321.751H908.541M908.541 380.97V351.36M908.541 351.36V321.751M441 264H448.741V225.43V191.6H441M441 264H433.259H425.518M441 191.6H433.259H425.518M425.518 225.43V264M425.518 225.43V191.6M425.518 225.43H417.777M425.518 264H417.777M425.518 191.6H417.777M425.518 191.6L386.814 225.43M417.777 225.43V264M417.777 225.43V191.6M417.777 225.43H410.037M417.777 264H410.037M417.777 191.6H410.037M410.037 225.43V264M410.037 225.43V191.6M410.037 225.43H402.296M410.037 264H402.296M410.037 191.6H402.296M402.296 225.43V264M402.296 225.43V191.6M402.296 225.43H394.555M402.296 264H394.555M402.296 191.6H394.555M394.555 225.43V264M394.555 225.43V191.6M394.555 225.43H386.814M394.555 264H386.814M394.555 191.6H386.814M386.814 225.43V264M386.814 225.43V191.6M1000.42 971V1003.86M1000.42 971H993.419M1000.42 1038.06V1003.86M1000.42 1038.06H993.419M1000.42 1003.86H993.419M1000.42 1003.86L908.919 1038.06M906.919 1038.06H993.419M906.919 1038.06H908.919M908.919 971H993.419M908.919 971H915.919M908.919 971V1003.86M993.419 971V1003.86M993.419 971H986.419M993.419 1038.06V1003.86M993.419 1038.06H986.419M993.419 1003.86H986.419M986.419 971V1003.86M986.419 971H979.419M986.419 1038.06V1003.86M986.419 1038.06H979.419M986.419 1003.86H979.419M979.419 971V1003.86M979.419 971H972.419M979.419 1038.06V1003.86M979.419 1038.06H972.419M979.419 1003.86H972.419M972.419 971V1003.86M972.419 971H965.419M972.419 1038.06V1003.86M972.419 1038.06H965.419M972.419 1003.86H965.419M965.419 971V1003.86M965.419 971H958.419M965.419 1038.06V1003.86M965.419 1038.06H958.419M965.419 1003.86H958.419M958.419 971V1003.86M958.419 971H951.419M958.419 1038.06V1003.86M958.419 1038.06H951.419M958.419 1003.86H951.419M951.419 971V1003.86M951.419 971H944.419M951.419 1038.06V1003.86M951.419 1038.06H944.419M951.419 1003.86H944.419M944.419 971V1003.86M944.419 971H937.419M944.419 1038.06V1003.86M944.419 1038.06H937.419M944.419 1003.86H937.419M937.419 971V1003.86M937.419 971H930.419M937.419 1038.06V1003.86M937.419 1038.06H930.419M937.419 1003.86H930.419M930.419 971V1003.86M930.419 971H923.419M930.419 1038.06V1003.86M930.419 1038.06H923.419M930.419 1003.86H923.419M923.419 971V1003.86M923.419 971H916.419M923.419 1038.06V1003.86M923.419 1038.06H916.419M923.419 1003.86H916.419M916.419 971V1003.86M916.419 971H915.919M916.419 1038.06V1003.86M916.419 1038.06H915.919M915.919 971V1003.86M915.919 1038.06V1003.86M915.919 1038.06H908.919M915.919 1003.86H908.919M908.919 1038.06V1003.86M686.15 1046.5V1026H521.781V1046.5H611V1079.69H619V1046.5H686.15ZM419 1046.5V1026H485.416V1046.5H448.5V1079.69H440.5V1046.5H419ZM348.922 1046.5H376.002L376 1026H320.581V1046.5H329.5V1079.69H349L348.922 1046.5ZM285 1025V1046.5H271L229.5 1089V1126.5H210.5V1092L203 1084.87L213 1071.5L222.5 1079.5L262.181 1039.54L267 1034.5L262.181 1030.5L259 1027.5L268 1019L275 1025H285ZM234.5 1007L242.5 998L235.96 992.5V981.32H215.17V999.691L171.72 1043.67H146.09V1055.33H171.72L178.87 1060.5L190.738 1049.94L186.633 1045.9L229.91 1002.2L234.5 1007ZM221.5 276.58V163.5H201.5L202.671 239.07H172.06V254.25H202.5V276.58H221.5ZM221.5 303V306H231V319H221.5V367.298L202.5 367V303H221.5ZM657 765.5H671.5V810H700.531V824.078H671.5V852.5H657V765.5Z" stroke="#BBBFCA" stroke-width="2.2"/>
<path d="M605.478 598.915V570.924C605.478 567.635 602.906 564.968 599.733 564.968C596.559 564.968 593.987 567.635 593.987 570.924V584.92V598.915C593.987 602.204 596.559 604.871 599.732 604.871C602.906 604.871 605.478 602.204 605.478 598.915Z" fill="#9FDCFF"/>
<path d="M605.478 598.915V570.924C605.478 567.635 602.906 564.968 599.733 564.968C596.559 564.968 593.987 567.635 593.987 570.924V584.92V598.915C593.987 602.204 596.559 604.871 599.732 604.871C602.906 604.871 605.478 602.204 605.478 598.915Z" fill="#9FDCFF"/>
<path d="M605.478 598.915V570.924C605.478 567.635 602.906 564.968 599.733 564.968C596.559 564.968 593.987 567.635 593.987 570.924V584.92V598.915C593.987 602.204 596.559 604.871 599.732 604.871C602.906 604.871 605.478 602.204 605.478 598.915Z" fill="#9FDCFF"/>
<path d="M605.478 598.915V570.924C605.478 567.635 602.906 564.968 599.733 564.968C596.559 564.968 593.987 567.635 593.987 570.924V584.92V598.915C593.987 602.204 596.559 604.871 599.732 604.871C602.906 604.871 605.478 602.204 605.478 598.915Z" fill="#9FDCFF"/>
<path d="M605.477 692.018V664.026C605.477 660.737 602.905 658.071 599.732 658.071C596.559 658.071 593.986 660.738 593.986 664.027V678.022V692.018C593.986 695.307 596.559 697.973 599.732 697.973C602.905 697.973 605.477 695.307 605.477 692.018Z" fill="#9FDCFF"/>
<path d="M605.477 692.018V664.026C605.477 660.737 602.905 658.071 599.732 658.071C596.559 658.071 593.986 660.738 593.986 664.027V678.022V692.018C593.986 695.307 596.559 697.973 599.732 697.973C602.905 697.973 605.477 695.307 605.477 692.018Z" fill="#9FDCFF"/>
<path d="M605.477 692.018V664.026C605.477 660.737 602.905 658.071 599.732 658.071C596.559 658.071 593.986 660.738 593.986 664.027V678.022V692.018C593.986 695.307 596.559 697.973 599.732 697.973C602.905 697.973 605.477 695.307 605.477 692.018Z" fill="#9FDCFF"/>
<path d="M605.477 692.018V664.026C605.477 660.737 602.905 658.071 599.732 658.071C596.559 658.071 593.986 660.738 593.986 664.027V678.022V692.018C593.986 695.307 596.559 697.973 599.732 697.973C602.905 697.973 605.477 695.307 605.477 692.018Z" fill="#9FDCFF"/>
<path d="M605.477 806.005V778.014C605.477 774.725 602.905 772.059 599.732 772.059C596.559 772.059 593.986 774.725 593.986 778.014V792.01V806.005C593.986 809.294 596.559 811.961 599.732 811.961C602.905 811.961 605.477 809.294 605.477 806.005Z" fill="#9FDCFF"/>
<path d="M605.477 806.005V778.014C605.477 774.725 602.905 772.059 599.732 772.059C596.559 772.059 593.986 774.725 593.986 778.014V792.01V806.005C593.986 809.294 596.559 811.961 599.732 811.961C602.905 811.961 605.477 809.294 605.477 806.005Z" fill="#9FDCFF"/>
<path d="M605.477 806.005V778.014C605.477 774.725 602.905 772.059 599.732 772.059C596.559 772.059 593.986 774.725 593.986 778.014V792.01V806.005C593.986 809.294 596.559 811.961 599.732 811.961C602.905 811.961 605.477 809.294 605.477 806.005Z" fill="#9FDCFF"/>
<path d="M605.477 806.005V778.014C605.477 774.725 602.905 772.059 599.732 772.059C596.559 772.059 593.986 774.725 593.986 778.014V792.01V806.005C593.986 809.294 596.559 811.961 599.732 811.961C602.905 811.961 605.477 809.294 605.477 806.005Z" fill="#9FDCFF"/>
<path d="M605.477 908.855V880.864C605.477 877.575 602.905 874.909 599.731 874.909C596.558 874.909 593.986 877.575 593.986 880.864V894.86V908.855C593.986 912.144 596.558 914.811 599.731 914.811C602.904 914.811 605.477 912.144 605.477 908.855Z" fill="#9FDCFF"/>
<path d="M605.477 908.855V880.864C605.477 877.575 602.905 874.909 599.731 874.909C596.558 874.909 593.986 877.575 593.986 880.864V894.86V908.855C593.986 912.144 596.558 914.811 599.731 914.811C602.904 914.811 605.477 912.144 605.477 908.855Z" fill="#9FDCFF"/>
<path d="M605.477 908.855V880.864C605.477 877.575 602.905 874.909 599.731 874.909C596.558 874.909 593.986 877.575 593.986 880.864V894.86V908.855C593.986 912.144 596.558 914.811 599.731 914.811C602.904 914.811 605.477 912.144 605.477 908.855Z" fill="#9FDCFF"/>
<path d="M605.477 908.855V880.864C605.477 877.575 602.905 874.909 599.731 874.909C596.558 874.909 593.986 877.575 593.986 880.864V894.86V908.855C593.986 912.144 596.558 914.811 599.731 914.811C602.904 914.811 605.477 912.144 605.477 908.855Z" fill="#9FDCFF"/>
<path d="M815.486 686.738V658.747C815.486 655.458 812.914 652.792 809.741 652.792C806.567 652.792 803.995 655.458 803.995 658.747V672.743V686.738C803.995 690.027 806.567 692.694 809.74 692.694C812.914 692.694 815.486 690.027 815.486 686.738Z" fill="#9FDCFF"/>
<path d="M815.486 686.738V658.747C815.486 655.458 812.914 652.792 809.741 652.792C806.567 652.792 803.995 655.458 803.995 658.747V672.743V686.738C803.995 690.027 806.567 692.694 809.74 692.694C812.914 692.694 815.486 690.027 815.486 686.738Z" fill="#9FDCFF"/>
<path d="M815.486 686.738V658.747C815.486 655.458 812.914 652.792 809.741 652.792C806.567 652.792 803.995 655.458 803.995 658.747V672.743V686.738C803.995 690.027 806.567 692.694 809.74 692.694C812.914 692.694 815.486 690.027 815.486 686.738Z" fill="#9FDCFF"/>
<path d="M815.486 686.738V658.747C815.486 655.458 812.914 652.792 809.741 652.792C806.567 652.792 803.995 655.458 803.995 658.747V672.743V686.738C803.995 690.027 806.567 692.694 809.74 692.694C812.914 692.694 815.486 690.027 815.486 686.738Z" fill="#9FDCFF"/>
<path d="M815.486 774.819V746.828C815.486 743.539 812.914 740.873 809.741 740.873C806.567 740.873 803.995 743.539 803.995 746.828V760.824V774.819C803.995 778.108 806.567 780.775 809.741 780.775C812.914 780.775 815.486 778.108 815.486 774.819Z" fill="#9FDCFF"/>
<path d="M815.486 774.819V746.828C815.486 743.539 812.914 740.873 809.741 740.873C806.567 740.873 803.995 743.539 803.995 746.828V760.824V774.819C803.995 778.108 806.567 780.775 809.741 780.775C812.914 780.775 815.486 778.108 815.486 774.819Z" fill="#9FDCFF"/>
<path d="M815.486 774.819V746.828C815.486 743.539 812.914 740.873 809.741 740.873C806.567 740.873 803.995 743.539 803.995 746.828V760.824V774.819C803.995 778.108 806.567 780.775 809.741 780.775C812.914 780.775 815.486 778.108 815.486 774.819Z" fill="#9FDCFF"/>
<path d="M815.486 774.819V746.828C815.486 743.539 812.914 740.873 809.741 740.873C806.567 740.873 803.995 743.539 803.995 746.828V760.824V774.819C803.995 778.108 806.567 780.775 809.741 780.775C812.914 780.775 815.486 778.108 815.486 774.819Z" fill="#9FDCFF"/>
<path d="M815.486 868.071V840.08C815.486 836.79 812.914 834.124 809.741 834.124C806.568 834.124 803.995 836.791 803.995 840.08V854.075V868.071C803.995 871.36 806.567 874.026 809.741 874.026C812.914 874.026 815.486 871.36 815.486 868.071Z" fill="#9FDCFF"/>
<path d="M815.486 868.071V840.08C815.486 836.79 812.914 834.124 809.741 834.124C806.568 834.124 803.995 836.791 803.995 840.08V854.075V868.071C803.995 871.36 806.567 874.026 809.741 874.026C812.914 874.026 815.486 871.36 815.486 868.071Z" fill="#9FDCFF"/>
<path d="M815.486 868.071V840.08C815.486 836.79 812.914 834.124 809.741 834.124C806.568 834.124 803.995 836.791 803.995 840.08V854.075V868.071C803.995 871.36 806.567 874.026 809.741 874.026C812.914 874.026 815.486 871.36 815.486 868.071Z" fill="#9FDCFF"/>
<path d="M815.486 868.071V840.08C815.486 836.79 812.914 834.124 809.741 834.124C806.568 834.124 803.995 836.791 803.995 840.08V854.075V868.071C803.995 871.36 806.567 874.026 809.741 874.026C812.914 874.026 815.486 871.36 815.486 868.071Z" fill="#9FDCFF"/>
<path d="M815.486 923.526V895.535C815.486 892.246 812.914 889.58 809.741 889.58C806.568 889.58 803.995 892.246 803.995 895.535V909.531V923.526C803.995 926.816 806.567 929.482 809.741 929.482C812.914 929.482 815.486 926.816 815.486 923.526Z" fill="#9FDCFF"/>
<path d="M815.486 923.526V895.535C815.486 892.246 812.914 889.58 809.741 889.58C806.568 889.58 803.995 892.246 803.995 895.535V909.531V923.526C803.995 926.816 806.567 929.482 809.741 929.482C812.914 929.482 815.486 926.816 815.486 923.526Z" fill="#9FDCFF"/>
<path d="M815.486 923.526V895.535C815.486 892.246 812.914 889.58 809.741 889.58C806.568 889.58 803.995 892.246 803.995 895.535V909.531V923.526C803.995 926.816 806.567 929.482 809.741 929.482C812.914 929.482 815.486 926.816 815.486 923.526Z" fill="#9FDCFF"/>
<path d="M815.486 923.526V895.535C815.486 892.246 812.914 889.58 809.741 889.58C806.568 889.58 803.995 892.246 803.995 895.535V909.531V923.526C803.995 926.816 806.567 929.482 809.741 929.482C812.914 929.482 815.486 926.816 815.486 923.526Z" fill="#9FDCFF"/>
<path d="M51.4913 1107.93V1079.93C51.4913 1076.65 48.919 1073.98 45.7458 1073.98C42.5726 1073.98 40 1076.65 40 1079.94V1093.93V1107.93C40 1111.21 42.5724 1113.88 45.7456 1113.88C48.9189 1113.88 51.4913 1111.21 51.4913 1107.93Z" fill="#9FDCFF"/>
<path d="M51.4913 1107.93V1079.93C51.4913 1076.65 48.919 1073.98 45.7458 1073.98C42.5726 1073.98 40 1076.65 40 1079.94V1093.93V1107.93C40 1111.21 42.5724 1113.88 45.7456 1113.88C48.9189 1113.88 51.4913 1111.21 51.4913 1107.93Z" fill="#9FDCFF"/>
<path d="M51.4913 1107.93V1079.93C51.4913 1076.65 48.919 1073.98 45.7458 1073.98C42.5726 1073.98 40 1076.65 40 1079.94V1093.93V1107.93C40 1111.21 42.5724 1113.88 45.7456 1113.88C48.9189 1113.88 51.4913 1111.21 51.4913 1107.93Z" fill="#9FDCFF"/>
<path d="M51.4913 1107.93V1079.93C51.4913 1076.65 48.919 1073.98 45.7458 1073.98C42.5726 1073.98 40 1076.65 40 1079.94V1093.93V1107.93C40 1111.21 42.5724 1113.88 45.7456 1113.88C48.9189 1113.88 51.4913 1111.21 51.4913 1107.93Z" fill="#9FDCFF"/>
<path d="M51.4913 995.245V967.254C51.4913 963.965 48.919 961.299 45.7458 961.299C42.5726 961.299 40 963.965 40 967.255V981.25V995.245C40 998.535 42.5724 1001.2 45.7456 1001.2C48.9189 1001.2 51.4913 998.535 51.4913 995.245Z" fill="#9FDCFF"/>
<path d="M51.4913 995.245V967.254C51.4913 963.965 48.919 961.299 45.7458 961.299C42.5726 961.299 40 963.965 40 967.255V981.25V995.245C40 998.535 42.5724 1001.2 45.7456 1001.2C48.9189 1001.2 51.4913 998.535 51.4913 995.245Z" fill="#9FDCFF"/>
<path d="M51.4913 995.245V967.254C51.4913 963.965 48.919 961.299 45.7458 961.299C42.5726 961.299 40 963.965 40 967.255V981.25V995.245C40 998.535 42.5724 1001.2 45.7456 1001.2C48.9189 1001.2 51.4913 998.535 51.4913 995.245Z" fill="#9FDCFF"/>
<path d="M51.4913 995.245V967.254C51.4913 963.965 48.919 961.299 45.7458 961.299C42.5726 961.299 40 963.965 40 967.255V981.25V995.245C40 998.535 42.5724 1001.2 45.7456 1001.2C48.9189 1001.2 51.4913 998.535 51.4913 995.245Z" fill="#9FDCFF"/>
<path d="M52.6171 885.932V857.94C52.6171 854.651 50.0448 851.985 46.8716 851.985C43.6983 851.985 41.1258 854.651 41.1258 857.94V871.936V885.932C41.1258 889.221 43.6982 891.887 46.8714 891.887C50.0447 891.887 52.6171 889.221 52.6171 885.932Z" fill="#9FDCFF"/>
<path d="M52.6171 885.932V857.94C52.6171 854.651 50.0448 851.985 46.8716 851.985C43.6983 851.985 41.1258 854.651 41.1258 857.94V871.936V885.932C41.1258 889.221 43.6982 891.887 46.8714 891.887C50.0447 891.887 52.6171 889.221 52.6171 885.932Z" fill="#9FDCFF"/>
<path d="M52.6171 885.932V857.94C52.6171 854.651 50.0448 851.985 46.8716 851.985C43.6983 851.985 41.1258 854.651 41.1258 857.94V871.936V885.932C41.1258 889.221 43.6982 891.887 46.8714 891.887C50.0447 891.887 52.6171 889.221 52.6171 885.932Z" fill="#9FDCFF"/>
<path d="M52.6171 885.932V857.94C52.6171 854.651 50.0448 851.985 46.8716 851.985C43.6983 851.985 41.1258 854.651 41.1258 857.94V871.936V885.932C41.1258 889.221 43.6982 891.887 46.8714 891.887C50.0447 891.887 52.6171 889.221 52.6171 885.932Z" fill="#9FDCFF"/>
<path d="M52.6171 813.831V785.839C52.6171 782.55 50.0448 779.884 46.8716 779.884C43.6983 779.884 41.1258 782.55 41.1258 785.839V799.835V813.831C41.1258 817.12 43.6982 819.786 46.8714 819.786C50.0447 819.786 52.6171 817.12 52.6171 813.831Z" fill="#9FDCFF"/>
<path d="M52.6171 813.831V785.839C52.6171 782.55 50.0448 779.884 46.8716 779.884C43.6983 779.884 41.1258 782.55 41.1258 785.839V799.835V813.831C41.1258 817.12 43.6982 819.786 46.8714 819.786C50.0447 819.786 52.6171 817.12 52.6171 813.831Z" fill="#9FDCFF"/>
<path d="M52.6171 813.831V785.839C52.6171 782.55 50.0448 779.884 46.8716 779.884C43.6983 779.884 41.1258 782.55 41.1258 785.839V799.835V813.831C41.1258 817.12 43.6982 819.786 46.8714 819.786C50.0447 819.786 52.6171 817.12 52.6171 813.831Z" fill="#9FDCFF"/>
<path d="M52.6171 813.831V785.839C52.6171 782.55 50.0448 779.884 46.8716 779.884C43.6983 779.884 41.1258 782.55 41.1258 785.839V799.835V813.831C41.1258 817.12 43.6982 819.786 46.8714 819.786C50.0447 819.786 52.6171 817.12 52.6171 813.831Z" fill="#9FDCFF"/>
<path d="M52.6172 729.225V701.234C52.6172 697.945 50.0449 695.279 46.8717 695.279C43.6985 695.279 41.1259 697.945 41.1259 701.234V715.229V729.225C41.1259 732.514 43.6983 735.181 46.8716 735.181C50.0448 735.181 52.6172 732.514 52.6172 729.225Z" fill="#9FDCFF"/>
<path d="M52.6172 729.225V701.234C52.6172 697.945 50.0449 695.279 46.8717 695.279C43.6985 695.279 41.1259 697.945 41.1259 701.234V715.229V729.225C41.1259 732.514 43.6983 735.181 46.8716 735.181C50.0448 735.181 52.6172 732.514 52.6172 729.225Z" fill="#9FDCFF"/>
<path d="M52.6172 729.225V701.234C52.6172 697.945 50.0449 695.279 46.8717 695.279C43.6985 695.279 41.1259 697.945 41.1259 701.234V715.229V729.225C41.1259 732.514 43.6983 735.181 46.8716 735.181C50.0448 735.181 52.6172 732.514 52.6172 729.225Z" fill="#9FDCFF"/>
<path d="M52.6172 729.225V701.234C52.6172 697.945 50.0449 695.279 46.8717 695.279C43.6985 695.279 41.1259 697.945 41.1259 701.234V715.229V729.225C41.1259 732.514 43.6983 735.181 46.8716 735.181C50.0448 735.181 52.6172 732.514 52.6172 729.225Z" fill="#9FDCFF"/>
<path d="M53.5813 500.356V472.364C53.5813 469.075 51.009 466.409 47.8358 466.409C44.6626 466.409 42.09 469.075 42.09 472.364V486.36V500.356C42.09 503.645 44.6624 506.311 47.8356 506.311C51.0089 506.311 53.5813 503.645 53.5813 500.356Z" fill="#9FDCFF"/>
<path d="M53.5813 500.356V472.364C53.5813 469.075 51.009 466.409 47.8358 466.409C44.6626 466.409 42.09 469.075 42.09 472.364V486.36V500.356C42.09 503.645 44.6624 506.311 47.8356 506.311C51.0089 506.311 53.5813 503.645 53.5813 500.356Z" fill="#9FDCFF"/>
<path d="M53.5813 500.356V472.364C53.5813 469.075 51.009 466.409 47.8358 466.409C44.6626 466.409 42.09 469.075 42.09 472.364V486.36V500.356C42.09 503.645 44.6624 506.311 47.8356 506.311C51.0089 506.311 53.5813 503.645 53.5813 500.356Z" fill="#9FDCFF"/>
<path d="M53.5813 500.356V472.364C53.5813 469.075 51.009 466.409 47.8358 466.409C44.6626 466.409 42.09 469.075 42.09 472.364V486.36V500.356C42.09 503.645 44.6624 506.311 47.8356 506.311C51.0089 506.311 53.5813 503.645 53.5813 500.356Z" fill="#9FDCFF"/>
<path d="M53.5813 352.549V324.557C53.5813 321.268 51.009 318.602 47.8358 318.602C44.6626 318.602 42.09 321.268 42.09 324.558V338.553V352.549C42.09 355.838 44.6624 358.504 47.8356 358.504C51.0089 358.504 53.5813 355.838 53.5813 352.549Z" fill="#9FDCFF"/>
<path d="M53.5813 352.549V324.557C53.5813 321.268 51.009 318.602 47.8358 318.602C44.6626 318.602 42.09 321.268 42.09 324.558V338.553V352.549C42.09 355.838 44.6624 358.504 47.8356 358.504C51.0089 358.504 53.5813 355.838 53.5813 352.549Z" fill="#9FDCFF"/>
<path d="M53.5813 352.549V324.557C53.5813 321.268 51.009 318.602 47.8358 318.602C44.6626 318.602 42.09 321.268 42.09 324.558V338.553V352.549C42.09 355.838 44.6624 358.504 47.8356 358.504C51.0089 358.504 53.5813 355.838 53.5813 352.549Z" fill="#9FDCFF"/>
<path d="M53.5813 352.549V324.557C53.5813 321.268 51.009 318.602 47.8358 318.602C44.6626 318.602 42.09 321.268 42.09 324.558V338.553V352.549C42.09 355.838 44.6624 358.504 47.8356 358.504C51.0089 358.504 53.5813 355.838 53.5813 352.549Z" fill="#9FDCFF"/>
<path d="M53.581 158.475V130.484C53.581 127.195 51.0087 124.529 47.8355 124.529C44.6623 124.529 42.0897 127.195 42.0897 130.484V144.48V158.475C42.0897 161.764 44.6622 164.431 47.8354 164.431C51.0086 164.431 53.581 161.764 53.581 158.475Z" fill="#9FDCFF"/>
<path d="M53.581 158.475V130.484C53.581 127.195 51.0087 124.529 47.8355 124.529C44.6623 124.529 42.0897 127.195 42.0897 130.484V144.48V158.475C42.0897 161.764 44.6622 164.431 47.8354 164.431C51.0086 164.431 53.581 161.764 53.581 158.475Z" fill="#9FDCFF"/>
<path d="M53.581 158.475V130.484C53.581 127.195 51.0087 124.529 47.8355 124.529C44.6623 124.529 42.0897 127.195 42.0897 130.484V144.48V158.475C42.0897 161.764 44.6622 164.431 47.8354 164.431C51.0086 164.431 53.581 161.764 53.581 158.475Z" fill="#9FDCFF"/>
<path d="M53.581 158.475V130.484C53.581 127.195 51.0087 124.529 47.8355 124.529C44.6623 124.529 42.0897 127.195 42.0897 130.484V144.48V158.475C42.0897 161.764 44.6622 164.431 47.8354 164.431C51.0086 164.431 53.581 161.764 53.581 158.475Z" fill="#9FDCFF"/>
<path d="M53.581 158.475V130.484C53.581 127.195 51.0087 124.529 47.8355 124.529C44.6623 124.529 42.0897 127.195 42.0897 130.484V144.48V158.475C42.0897 161.764 44.6622 164.431 47.8354 164.431C51.0086 164.431 53.581 161.764 53.581 158.475Z" fill="#9FDCFF"/>
<path d="M53.581 158.475V130.484C53.581 127.195 51.0087 124.529 47.8355 124.529C44.6623 124.529 42.0897 127.195 42.0897 130.484V144.48V158.475C42.0897 161.764 44.6622 164.431 47.8354 164.431C51.0086 164.431 53.581 161.764 53.581 158.475Z" fill="#9FDCFF"/>
<path d="M53.581 158.475V130.484C53.581 127.195 51.0087 124.529 47.8355 124.529C44.6623 124.529 42.0897 127.195 42.0897 130.484V144.48V158.475C42.0897 161.764 44.6622 164.431 47.8354 164.431C51.0086 164.431 53.581 161.764 53.581 158.475Z" fill="#9FDCFF"/>
<path d="M53.581 158.475V130.484C53.581 127.195 51.0087 124.529 47.8355 124.529C44.6623 124.529 42.0897 127.195 42.0897 130.484V144.48V158.475C42.0897 161.764 44.6622 164.431 47.8354 164.431C51.0086 164.431 53.581 161.764 53.581 158.475Z" fill="#9FDCFF"/>
<path d="M53.5812 224.294V196.303C53.5812 193.013 51.0089 190.347 47.8356 190.347C44.6624 190.347 42.0899 193.014 42.0899 196.303V210.298V224.294C42.0899 227.583 44.6623 230.25 47.8355 230.25C51.0087 230.25 53.5812 227.583 53.5812 224.294Z" fill="#9FDCFF"/>
<path d="M53.5812 224.294V196.303C53.5812 193.013 51.0089 190.347 47.8356 190.347C44.6624 190.347 42.0899 193.014 42.0899 196.303V210.298V224.294C42.0899 227.583 44.6623 230.25 47.8355 230.25C51.0087 230.25 53.5812 227.583 53.5812 224.294Z" fill="#9FDCFF"/>
<path d="M53.5812 224.294V196.303C53.5812 193.013 51.0089 190.347 47.8356 190.347C44.6624 190.347 42.0899 193.014 42.0899 196.303V210.298V224.294C42.0899 227.583 44.6623 230.25 47.8355 230.25C51.0087 230.25 53.5812 227.583 53.5812 224.294Z" fill="#9FDCFF"/>
<path d="M53.5812 224.294V196.303C53.5812 193.013 51.0089 190.347 47.8356 190.347C44.6624 190.347 42.0899 193.014 42.0899 196.303V210.298V224.294C42.0899 227.583 44.6623 230.25 47.8355 230.25C51.0087 230.25 53.5812 227.583 53.5812 224.294Z" fill="#9FDCFF"/>
<path d="M811.5 96.3143V68.3229C811.5 65.0337 808.928 62.3676 805.754 62.3676C802.581 62.3676 800.009 65.034 800.009 68.3232V82.3187V96.3143C800.009 99.6034 802.581 102.27 805.754 102.27C808.927 102.27 811.5 99.6034 811.5 96.3143Z" fill="#9FDCFF"/>
<path d="M811.5 96.3143V68.3229C811.5 65.0337 808.928 62.3676 805.754 62.3676C802.581 62.3676 800.009 65.034 800.009 68.3232V82.3187V96.3143C800.009 99.6034 802.581 102.27 805.754 102.27C808.927 102.27 811.5 99.6034 811.5 96.3143Z" fill="#9FDCFF"/>
<path d="M811.5 96.3143V68.3229C811.5 65.0337 808.928 62.3676 805.754 62.3676C802.581 62.3676 800.009 65.034 800.009 68.3232V82.3187V96.3143C800.009 99.6034 802.581 102.27 805.754 102.27C808.927 102.27 811.5 99.6034 811.5 96.3143Z" fill="#9FDCFF"/>
<path d="M811.5 96.3143V68.3229C811.5 65.0337 808.928 62.3676 805.754 62.3676C802.581 62.3676 800.009 65.034 800.009 68.3232V82.3187V96.3143C800.009 99.6034 802.581 102.27 805.754 102.27C808.927 102.27 811.5 99.6034 811.5 96.3143Z" fill="#9FDCFF"/>
<path d="M811.5 172.491V144.5C811.5 141.21 808.928 138.544 805.754 138.544C802.581 138.544 800.009 141.211 800.009 144.5V158.495V172.491C800.009 175.78 802.581 178.447 805.754 178.447C808.927 178.447 811.5 175.78 811.5 172.491Z" fill="#9FDCFF"/>
<path d="M811.5 172.491V144.5C811.5 141.21 808.928 138.544 805.754 138.544C802.581 138.544 800.009 141.211 800.009 144.5V158.495V172.491C800.009 175.78 802.581 178.447 805.754 178.447C808.927 178.447 811.5 175.78 811.5 172.491Z" fill="#9FDCFF"/>
<path d="M811.5 172.491V144.5C811.5 141.21 808.928 138.544 805.754 138.544C802.581 138.544 800.009 141.211 800.009 144.5V158.495V172.491C800.009 175.78 802.581 178.447 805.754 178.447C808.927 178.447 811.5 175.78 811.5 172.491Z" fill="#9FDCFF"/>
<path d="M811.5 172.491V144.5C811.5 141.21 808.928 138.544 805.754 138.544C802.581 138.544 800.009 141.211 800.009 144.5V158.495V172.491C800.009 175.78 802.581 178.447 805.754 178.447C808.927 178.447 811.5 175.78 811.5 172.491Z" fill="#9FDCFF"/>
<path d="M811.5 282.533V254.542C811.5 251.253 808.928 248.586 805.754 248.586C802.581 248.586 800.009 251.253 800.009 254.542V268.538V282.533C800.009 285.822 802.581 288.489 805.754 288.489C808.927 288.489 811.5 285.822 811.5 282.533Z" fill="#9FDCFF"/>
<path d="M811.5 282.533V254.542C811.5 251.253 808.928 248.586 805.754 248.586C802.581 248.586 800.009 251.253 800.009 254.542V268.538V282.533C800.009 285.822 802.581 288.489 805.754 288.489C808.927 288.489 811.5 285.822 811.5 282.533Z" fill="#9FDCFF"/>
<path d="M811.5 282.533V254.542C811.5 251.253 808.928 248.586 805.754 248.586C802.581 248.586 800.009 251.253 800.009 254.542V268.538V282.533C800.009 285.822 802.581 288.489 805.754 288.489C808.927 288.489 811.5 285.822 811.5 282.533Z" fill="#9FDCFF"/>
<path d="M811.5 282.533V254.542C811.5 251.253 808.928 248.586 805.754 248.586C802.581 248.586 800.009 251.253 800.009 254.542V268.538V282.533C800.009 285.822 802.581 288.489 805.754 288.489C808.927 288.489 811.5 285.822 811.5 282.533Z" fill="#9FDCFF"/>
<path d="M418.367 382.292V354.3C418.367 351.011 415.795 348.345 412.622 348.345C409.448 348.345 406.876 351.011 406.876 354.3V368.296V382.292C406.876 385.581 409.448 388.247 412.621 388.247C415.795 388.247 418.367 385.581 418.367 382.292Z" fill="#9FDCFF"/>
<path d="M418.367 382.292V354.3C418.367 351.011 415.795 348.345 412.622 348.345C409.448 348.345 406.876 351.011 406.876 354.3V368.296V382.292C406.876 385.581 409.448 388.247 412.621 388.247C415.795 388.247 418.367 385.581 418.367 382.292Z" fill="#9FDCFF"/>
<path d="M418.367 382.292V354.3C418.367 351.011 415.795 348.345 412.622 348.345C409.448 348.345 406.876 351.011 406.876 354.3V368.296V382.292C406.876 385.581 409.448 388.247 412.621 388.247C415.795 388.247 418.367 385.581 418.367 382.292Z" fill="#9FDCFF"/>
<path d="M418.367 382.292V354.3C418.367 351.011 415.795 348.345 412.622 348.345C409.448 348.345 406.876 351.011 406.876 354.3V368.296V382.292C406.876 385.581 409.448 388.247 412.621 388.247C415.795 388.247 418.367 385.581 418.367 382.292Z" fill="#9FDCFF"/>
<path d="M147.732 1223.7H174.736C177.91 1223.7 180.482 1221.04 180.482 1217.75C180.482 1214.46 177.91 1211.79 174.736 1211.79H147.732C144.559 1211.79 141.986 1214.46 141.986 1217.75C141.986 1221.04 144.559 1223.7 147.732 1223.7Z" fill="#9FDCFF"/>
<path d="M264.662 1223.7H291.666C294.84 1223.7 297.412 1221.04 297.412 1217.75C297.412 1214.46 294.84 1211.79 291.666 1211.79C281.121 1211.79 275.208 1211.79 264.662 1211.79C261.489 1211.79 258.916 1214.46 258.916 1217.75C258.916 1221.04 261.489 1223.7 264.662 1223.7Z" fill="#9FDCFF"/>
<path d="M379.117 1223.7H406.122C409.295 1223.7 411.868 1221.04 411.868 1217.75C411.868 1214.46 409.295 1211.79 406.122 1211.79H379.117C375.944 1211.79 373.372 1214.46 373.372 1217.75C373.372 1221.04 375.944 1223.7 379.117 1223.7Z" fill="#9FDCFF"/>
<path d="M471.382 1223.7H498.386C501.56 1223.7 504.132 1221.04 504.132 1217.75C504.132 1214.46 501.56 1211.79 498.386 1211.79H471.382C468.209 1211.79 465.636 1214.46 465.636 1217.75C465.636 1221.04 468.209 1223.7 471.382 1223.7Z" fill="#9FDCFF"/>
<path d="M549.838 1223.7H576.842C580.015 1223.7 582.588 1221.04 582.588 1217.75C582.588 1214.46 580.015 1211.79 576.842 1211.79H549.838C546.664 1211.79 544.092 1214.46 544.092 1217.75C544.092 1221.04 546.664 1223.7 549.838 1223.7Z" fill="#9FDCFF"/>
<path d="M654.946 1223.7H681.951C685.124 1223.7 687.696 1221.04 687.696 1217.75C687.696 1214.46 685.124 1211.79 681.951 1211.79H654.946C651.773 1211.79 649.201 1214.46 649.201 1217.75C649.201 1221.04 651.773 1223.7 654.946 1223.7Z" fill="#9FDCFF"/>
<path d="M733.402 1223.7H760.406C763.58 1223.7 766.152 1221.04 766.152 1217.75C766.152 1214.46 763.58 1211.79 760.406 1211.79H733.402C730.229 1211.79 727.656 1214.46 727.656 1217.75C727.656 1221.04 730.229 1223.7 733.402 1223.7Z" fill="#9FDCFF"/>
<path d="M858.222 1223.7H885.226C888.4 1223.7 890.972 1221.04 890.972 1217.75C890.972 1214.46 888.4 1211.79 885.226 1211.79H858.222C855.049 1211.79 852.476 1214.46 852.476 1217.75C852.476 1221.04 855.049 1223.7 858.222 1223.7Z" fill="#9FDCFF"/>
<path d="M501.313 964.703H528.318C531.491 964.703 534.063 962.036 534.063 958.747C534.063 955.458 531.491 952.792 528.318 952.792H501.313C498.14 952.792 495.567 955.458 495.567 958.747C495.567 962.036 498.14 964.703 501.313 964.703Z" fill="#9FDCFF"/>
<path d="M548.749 964.703H575.753C578.926 964.703 581.499 962.036 581.499 958.747C581.499 955.458 578.926 952.792 575.753 952.792H548.749C545.575 952.792 543.003 955.458 543.003 958.747C543.003 962.036 545.575 964.703 548.749 964.703Z" fill="#9FDCFF"/>
<path d="M63.3261 1176.3L82.7227 1195.28C85.0434 1197.45 88.7431 1197.25 90.9863 1194.85C93.2295 1192.44 93.1668 1188.74 90.8461 1186.57L71.4495 1167.59C69.1287 1165.43 65.4288 1165.62 63.1856 1168.03C60.9424 1170.44 61.0053 1174.14 63.3261 1176.3Z" fill="#9FDCFF"/>
<path d="M443.052 799.566L461.486 819.292C463.807 821.456 467.507 821.26 469.75 818.854C471.993 816.449 471.93 812.744 469.61 810.58L451.175 790.854C448.855 788.69 445.155 788.886 442.911 791.292C440.668 793.697 440.731 797.401 443.052 799.566Z" fill="#9FDCFF"/>
<path d="M585.486 382.292H612.491C615.664 382.292 618.236 379.625 618.236 376.336C618.236 373.047 615.664 370.38 612.491 370.38H585.486C582.313 370.38 579.741 373.047 579.741 376.336C579.741 379.625 582.313 382.292 585.486 382.292Z" fill="#9FDCFF"/>
<path d="M682.096 404.961H709.1C712.273 404.961 714.846 402.295 714.846 399.006C714.846 395.717 712.273 393.05 709.1 393.05H682.096C678.923 393.05 676.35 395.717 676.35 399.006C676.35 402.295 678.923 404.961 682.096 404.961Z" fill="#9FDCFF"/>
<path d="M742.211 404.961H769.216C772.389 404.961 774.961 402.295 774.961 399.006C774.961 395.717 772.389 393.05 769.216 393.05H742.211C739.038 393.05 736.466 395.717 736.466 399.006C736.466 402.295 739.038 404.961 742.211 404.961Z" fill="#9FDCFF"/>
<path d="M605.478 598.915V570.924C605.478 567.635 602.906 564.968 599.733 564.968C596.559 564.968 593.987 567.635 593.987 570.924V584.92V598.915C593.987 602.204 596.559 604.871 599.732 604.871C602.906 604.871 605.478 602.204 605.478 598.915Z" stroke="#00CDF9" stroke-width="0.66"/>
<path d="M605.478 598.915V570.924C605.478 567.635 602.906 564.968 599.733 564.968C596.559 564.968 593.987 567.635 593.987 570.924V584.92V598.915C593.987 602.204 596.559 604.871 599.732 604.871C602.906 604.871 605.478 602.204 605.478 598.915Z" stroke="#00CDF9" stroke-width="0.66"/>
<path d="M605.478 598.915V570.924C605.478 567.635 602.906 564.968 599.733 564.968C596.559 564.968 593.987 567.635 593.987 570.924V584.92V598.915C593.987 602.204 596.559 604.871 599.732 604.871C602.906 604.871 605.478 602.204 605.478 598.915Z" stroke="#00CDF9" stroke-width="0.66"/>
<path d="M605.478 598.915V570.924C605.478 567.635 602.906 564.968 599.733 564.968C596.559 564.968 593.987 567.635 593.987 570.924V584.92V598.915C593.987 602.204 596.559 604.871 599.732 604.871C602.906 604.871 605.478 602.204 605.478 598.915Z" stroke="#00CDF9" stroke-width="0.66"/>
<path d="M605.477 692.018V664.026C605.477 660.737 602.905 658.071 599.732 658.071C596.559 658.071 593.986 660.738 593.986 664.027V678.022V692.018C593.986 695.307 596.559 697.973 599.732 697.973C602.905 697.973 605.477 695.307 605.477 692.018Z" stroke="#00CDF9" stroke-width="0.66"/>
<path d="M605.477 692.018V664.026C605.477 660.737 602.905 658.071 599.732 658.071C596.559 658.071 593.986 660.738 593.986 664.027V678.022V692.018C593.986 695.307 596.559 697.973 599.732 697.973C602.905 697.973 605.477 695.307 605.477 692.018Z" stroke="#00CDF9" stroke-width="0.66"/>
<path d="M605.477 692.018V664.026C605.477 660.737 602.905 658.071 599.732 658.071C596.559 658.071 593.986 660.738 593.986 664.027V678.022V692.018C593.986 695.307 596.559 697.973 599.732 697.973C602.905 697.973 605.477 695.307 605.477 692.018Z" stroke="#00CDF9" stroke-width="0.66"/>
<path d="M605.477 692.018V664.026C605.477 660.737 602.905 658.071 599.732 658.071C596.559 658.071 593.986 660.738 593.986 664.027V678.022V692.018C593.986 695.307 596.559 697.973 599.732 697.973C602.905 697.973 605.477 695.307 605.477 692.018Z" stroke="#00CDF9" stroke-width="0.66"/>
<path d="M605.477 806.005V778.014C605.477 774.725 602.905 772.059 599.732 772.059C596.559 772.059 593.986 774.725 593.986 778.014V792.01V806.005C593.986 809.294 596.559 811.961 599.732 811.961C602.905 811.961 605.477 809.294 605.477 806.005Z" stroke="#00CDF9" stroke-width="0.66"/>
<path d="M605.477 806.005V778.014C605.477 774.725 602.905 772.059 599.732 772.059C596.559 772.059 593.986 774.725 593.986 778.014V792.01V806.005C593.986 809.294 596.559 811.961 599.732 811.961C602.905 811.961 605.477 809.294 605.477 806.005Z" stroke="#00CDF9" stroke-width="0.66"/>
<path d="M605.477 806.005V778.014C605.477 774.725 602.905 772.059 599.732 772.059C596.559 772.059 593.986 774.725 593.986 778.014V792.01V806.005C593.986 809.294 596.559 811.961 599.732 811.961C602.905 811.961 605.477 809.294 605.477 806.005Z" stroke="#00CDF9" stroke-width="0.66"/>
<path d="M605.477 806.005V778.014C605.477 774.725 602.905 772.059 599.732 772.059C596.559 772.059 593.986 774.725 593.986 778.014V792.01V806.005C593.986 809.294 596.559 811.961 599.732 811.961C602.905 811.961 605.477 809.294 605.477 806.005Z" stroke="#00CDF9" stroke-width="0.66"/>
<path d="M605.477 908.855V880.864C605.477 877.575 602.905 874.909 599.731 874.909C596.558 874.909 593.986 877.575 593.986 880.864V894.86V908.855C593.986 912.144 596.558 914.811 599.731 914.811C602.904 914.811 605.477 912.144 605.477 908.855Z" stroke="#00CDF9" stroke-width="0.66"/>
<path d="M605.477 908.855V880.864C605.477 877.575 602.905 874.909 599.731 874.909C596.558 874.909 593.986 877.575 593.986 880.864V894.86V908.855C593.986 912.144 596.558 914.811 599.731 914.811C602.904 914.811 605.477 912.144 605.477 908.855Z" stroke="#00CDF9" stroke-width="0.66"/>
<path d="M605.477 908.855V880.864C605.477 877.575 602.905 874.909 599.731 874.909C596.558 874.909 593.986 877.575 593.986 880.864V894.86V908.855C593.986 912.144 596.558 914.811 599.731 914.811C602.904 914.811 605.477 912.144 605.477 908.855Z" stroke="#00CDF9" stroke-width="0.66"/>
<path d="M605.477 908.855V880.864C605.477 877.575 602.905 874.909 599.731 874.909C596.558 874.909 593.986 877.575 593.986 880.864V894.86V908.855C593.986 912.144 596.558 914.811 599.731 914.811C602.904 914.811 605.477 912.144 605.477 908.855Z" stroke="#00CDF9" stroke-width="0.66"/>
<path d="M815.486 686.738V658.747C815.486 655.458 812.914 652.792 809.741 652.792C806.567 652.792 803.995 655.458 803.995 658.747V672.743V686.738C803.995 690.027 806.567 692.694 809.74 692.694C812.914 692.694 815.486 690.027 815.486 686.738Z" stroke="#00CDF9" stroke-width="0.66"/>
<path d="M815.486 686.738V658.747C815.486 655.458 812.914 652.792 809.741 652.792C806.567 652.792 803.995 655.458 803.995 658.747V672.743V686.738C803.995 690.027 806.567 692.694 809.74 692.694C812.914 692.694 815.486 690.027 815.486 686.738Z" stroke="#00CDF9" stroke-width="0.66"/>
<path d="M815.486 686.738V658.747C815.486 655.458 812.914 652.792 809.741 652.792C806.567 652.792 803.995 655.458 803.995 658.747V672.743V686.738C803.995 690.027 806.567 692.694 809.74 692.694C812.914 692.694 815.486 690.027 815.486 686.738Z" stroke="#00CDF9" stroke-width="0.66"/>
<path d="M815.486 686.738V658.747C815.486 655.458 812.914 652.792 809.741 652.792C806.567 652.792 803.995 655.458 803.995 658.747V672.743V686.738C803.995 690.027 806.567 692.694 809.74 692.694C812.914 692.694 815.486 690.027 815.486 686.738Z" stroke="#00CDF9" stroke-width="0.66"/>
<path d="M815.486 774.819V746.828C815.486 743.539 812.914 740.873 809.741 740.873C806.567 740.873 803.995 743.539 803.995 746.828V760.824V774.819C803.995 778.108 806.567 780.775 809.741 780.775C812.914 780.775 815.486 778.108 815.486 774.819Z" stroke="#00CDF9" stroke-width="0.66"/>
<path d="M815.486 774.819V746.828C815.486 743.539 812.914 740.873 809.741 740.873C806.567 740.873 803.995 743.539 803.995 746.828V760.824V774.819C803.995 778.108 806.567 780.775 809.741 780.775C812.914 780.775 815.486 778.108 815.486 774.819Z" stroke="#00CDF9" stroke-width="0.66"/>
<path d="M815.486 774.819V746.828C815.486 743.539 812.914 740.873 809.741 740.873C806.567 740.873 803.995 743.539 803.995 746.828V760.824V774.819C803.995 778.108 806.567 780.775 809.741 780.775C812.914 780.775 815.486 778.108 815.486 774.819Z" stroke="#00CDF9" stroke-width="0.66"/>
<path d="M815.486 774.819V746.828C815.486 743.539 812.914 740.873 809.741 740.873C806.567 740.873 803.995 743.539 803.995 746.828V760.824V774.819C803.995 778.108 806.567 780.775 809.741 780.775C812.914 780.775 815.486 778.108 815.486 774.819Z" stroke="#00CDF9" stroke-width="0.66"/>
<path d="M815.486 868.071V840.08C815.486 836.79 812.914 834.124 809.741 834.124C806.568 834.124 803.995 836.791 803.995 840.08V854.075V868.071C803.995 871.36 806.567 874.026 809.741 874.026C812.914 874.026 815.486 871.36 815.486 868.071Z" stroke="#00CDF9" stroke-width="0.66"/>
<path d="M815.486 868.071V840.08C815.486 836.79 812.914 834.124 809.741 834.124C806.568 834.124 803.995 836.791 803.995 840.08V854.075V868.071C803.995 871.36 806.567 874.026 809.741 874.026C812.914 874.026 815.486 871.36 815.486 868.071Z" stroke="#00CDF9" stroke-width="0.66"/>
<path d="M815.486 868.071V840.08C815.486 836.79 812.914 834.124 809.741 834.124C806.568 834.124 803.995 836.791 803.995 840.08V854.075V868.071C803.995 871.36 806.567 874.026 809.741 874.026C812.914 874.026 815.486 871.36 815.486 868.071Z" stroke="#00CDF9" stroke-width="0.66"/>
<path d="M815.486 868.071V840.08C815.486 836.79 812.914 834.124 809.741 834.124C806.568 834.124 803.995 836.791 803.995 840.08V854.075V868.071C803.995 871.36 806.567 874.026 809.741 874.026C812.914 874.026 815.486 871.36 815.486 868.071Z" stroke="#00CDF9" stroke-width="0.66"/>
<path d="M815.486 923.526V895.535C815.486 892.246 812.914 889.58 809.741 889.58C806.568 889.58 803.995 892.246 803.995 895.535V909.531V923.526C803.995 926.816 806.567 929.482 809.741 929.482C812.914 929.482 815.486 926.816 815.486 923.526Z" stroke="#00CDF9" stroke-width="0.66"/>
<path d="M815.486 923.526V895.535C815.486 892.246 812.914 889.58 809.741 889.58C806.568 889.58 803.995 892.246 803.995 895.535V909.531V923.526C803.995 926.816 806.567 929.482 809.741 929.482C812.914 929.482 815.486 926.816 815.486 923.526Z" stroke="#00CDF9" stroke-width="0.66"/>
<path d="M815.486 923.526V895.535C815.486 892.246 812.914 889.58 809.741 889.58C806.568 889.58 803.995 892.246 803.995 895.535V909.531V923.526C803.995 926.816 806.567 929.482 809.741 929.482C812.914 929.482 815.486 926.816 815.486 923.526Z" stroke="#00CDF9" stroke-width="0.66"/>
<path d="M815.486 923.526V895.535C815.486 892.246 812.914 889.58 809.741 889.58C806.568 889.58 803.995 892.246 803.995 895.535V909.531V923.526C803.995 926.816 806.567 929.482 809.741 929.482C812.914 929.482 815.486 926.816 815.486 923.526Z" stroke="#00CDF9" stroke-width="0.66"/>
<path d="M51.4913 1107.93V1079.93C51.4913 1076.65 48.919 1073.98 45.7458 1073.98C42.5726 1073.98 40 1076.65 40 1079.94V1093.93V1107.93C40 1111.21 42.5724 1113.88 45.7456 1113.88C48.9189 1113.88 51.4913 1111.21 51.4913 1107.93Z" stroke="#00CDF9" stroke-width="0.66"/>
<path d="M51.4913 1107.93V1079.93C51.4913 1076.65 48.919 1073.98 45.7458 1073.98C42.5726 1073.98 40 1076.65 40 1079.94V1093.93V1107.93C40 1111.21 42.5724 1113.88 45.7456 1113.88C48.9189 1113.88 51.4913 1111.21 51.4913 1107.93Z" stroke="#00CDF9" stroke-width="0.66"/>
<path d="M51.4913 1107.93V1079.93C51.4913 1076.65 48.919 1073.98 45.7458 1073.98C42.5726 1073.98 40 1076.65 40 1079.94V1093.93V1107.93C40 1111.21 42.5724 1113.88 45.7456 1113.88C48.9189 1113.88 51.4913 1111.21 51.4913 1107.93Z" stroke="#00CDF9" stroke-width="0.66"/>
<path d="M51.4913 1107.93V1079.93C51.4913 1076.65 48.919 1073.98 45.7458 1073.98C42.5726 1073.98 40 1076.65 40 1079.94V1093.93V1107.93C40 1111.21 42.5724 1113.88 45.7456 1113.88C48.9189 1113.88 51.4913 1111.21 51.4913 1107.93Z" stroke="#00CDF9" stroke-width="0.66"/>
<path d="M51.4913 995.245V967.254C51.4913 963.965 48.919 961.299 45.7458 961.299C42.5726 961.299 40 963.965 40 967.255V981.25V995.245C40 998.535 42.5724 1001.2 45.7456 1001.2C48.9189 1001.2 51.4913 998.535 51.4913 995.245Z" stroke="#00CDF9" stroke-width="0.66"/>
<path d="M51.4913 995.245V967.254C51.4913 963.965 48.919 961.299 45.7458 961.299C42.5726 961.299 40 963.965 40 967.255V981.25V995.245C40 998.535 42.5724 1001.2 45.7456 1001.2C48.9189 1001.2 51.4913 998.535 51.4913 995.245Z" stroke="#00CDF9" stroke-width="0.66"/>
<path d="M51.4913 995.245V967.254C51.4913 963.965 48.919 961.299 45.7458 961.299C42.5726 961.299 40 963.965 40 967.255V981.25V995.245C40 998.535 42.5724 1001.2 45.7456 1001.2C48.9189 1001.2 51.4913 998.535 51.4913 995.245Z" stroke="#00CDF9" stroke-width="0.66"/>
<path d="M51.4913 995.245V967.254C51.4913 963.965 48.919 961.299 45.7458 961.299C42.5726 961.299 40 963.965 40 967.255V981.25V995.245C40 998.535 42.5724 1001.2 45.7456 1001.2C48.9189 1001.2 51.4913 998.535 51.4913 995.245Z" stroke="#00CDF9" stroke-width="0.66"/>
<path d="M52.6171 885.932V857.94C52.6171 854.651 50.0448 851.985 46.8716 851.985C43.6983 851.985 41.1258 854.651 41.1258 857.94V871.936V885.932C41.1258 889.221 43.6982 891.887 46.8714 891.887C50.0447 891.887 52.6171 889.221 52.6171 885.932Z" stroke="#00CDF9" stroke-width="0.66"/>
<path d="M52.6171 885.932V857.94C52.6171 854.651 50.0448 851.985 46.8716 851.985C43.6983 851.985 41.1258 854.651 41.1258 857.94V871.936V885.932C41.1258 889.221 43.6982 891.887 46.8714 891.887C50.0447 891.887 52.6171 889.221 52.6171 885.932Z" stroke="#00CDF9" stroke-width="0.66"/>
<path d="M52.6171 885.932V857.94C52.6171 854.651 50.0448 851.985 46.8716 851.985C43.6983 851.985 41.1258 854.651 41.1258 857.94V871.936V885.932C41.1258 889.221 43.6982 891.887 46.8714 891.887C50.0447 891.887 52.6171 889.221 52.6171 885.932Z" stroke="#00CDF9" stroke-width="0.66"/>
<path d="M52.6171 885.932V857.94C52.6171 854.651 50.0448 851.985 46.8716 851.985C43.6983 851.985 41.1258 854.651 41.1258 857.94V871.936V885.932C41.1258 889.221 43.6982 891.887 46.8714 891.887C50.0447 891.887 52.6171 889.221 52.6171 885.932Z" stroke="#00CDF9" stroke-width="0.66"/>
<path d="M52.6171 813.831V785.839C52.6171 782.55 50.0448 779.884 46.8716 779.884C43.6983 779.884 41.1258 782.55 41.1258 785.839V799.835V813.831C41.1258 817.12 43.6982 819.786 46.8714 819.786C50.0447 819.786 52.6171 817.12 52.6171 813.831Z" stroke="#00CDF9" stroke-width="0.66"/>
<path d="M52.6171 813.831V785.839C52.6171 782.55 50.0448 779.884 46.8716 779.884C43.6983 779.884 41.1258 782.55 41.1258 785.839V799.835V813.831C41.1258 817.12 43.6982 819.786 46.8714 819.786C50.0447 819.786 52.6171 817.12 52.6171 813.831Z" stroke="#00CDF9" stroke-width="0.66"/>
<path d="M52.6171 813.831V785.839C52.6171 782.55 50.0448 779.884 46.8716 779.884C43.6983 779.884 41.1258 782.55 41.1258 785.839V799.835V813.831C41.1258 817.12 43.6982 819.786 46.8714 819.786C50.0447 819.786 52.6171 817.12 52.6171 813.831Z" stroke="#00CDF9" stroke-width="0.66"/>
<path d="M52.6171 813.831V785.839C52.6171 782.55 50.0448 779.884 46.8716 779.884C43.6983 779.884 41.1258 782.55 41.1258 785.839V799.835V813.831C41.1258 817.12 43.6982 819.786 46.8714 819.786C50.0447 819.786 52.6171 817.12 52.6171 813.831Z" stroke="#00CDF9" stroke-width="0.66"/>
<path d="M52.6172 729.225V701.234C52.6172 697.945 50.0449 695.279 46.8717 695.279C43.6985 695.279 41.1259 697.945 41.1259 701.234V715.229V729.225C41.1259 732.514 43.6983 735.181 46.8716 735.181C50.0448 735.181 52.6172 732.514 52.6172 729.225Z" stroke="#00CDF9" stroke-width="0.66"/>
<path d="M52.6172 729.225V701.234C52.6172 697.945 50.0449 695.279 46.8717 695.279C43.6985 695.279 41.1259 697.945 41.1259 701.234V715.229V729.225C41.1259 732.514 43.6983 735.181 46.8716 735.181C50.0448 735.181 52.6172 732.514 52.6172 729.225Z" stroke="#00CDF9" stroke-width="0.66"/>
<path d="M52.6172 729.225V701.234C52.6172 697.945 50.0449 695.279 46.8717 695.279C43.6985 695.279 41.1259 697.945 41.1259 701.234V715.229V729.225C41.1259 732.514 43.6983 735.181 46.8716 735.181C50.0448 735.181 52.6172 732.514 52.6172 729.225Z" stroke="#00CDF9" stroke-width="0.66"/>
<path d="M52.6172 729.225V701.234C52.6172 697.945 50.0449 695.279 46.8717 695.279C43.6985 695.279 41.1259 697.945 41.1259 701.234V715.229V729.225C41.1259 732.514 43.6983 735.181 46.8716 735.181C50.0448 735.181 52.6172 732.514 52.6172 729.225Z" stroke="#00CDF9" stroke-width="0.66"/>
<path d="M53.5813 500.356V472.364C53.5813 469.075 51.009 466.409 47.8358 466.409C44.6626 466.409 42.09 469.075 42.09 472.364V486.36V500.356C42.09 503.645 44.6624 506.311 47.8356 506.311C51.0089 506.311 53.5813 503.645 53.5813 500.356Z" stroke="#00CDF9" stroke-width="0.66"/>
<path d="M53.5813 500.356V472.364C53.5813 469.075 51.009 466.409 47.8358 466.409C44.6626 466.409 42.09 469.075 42.09 472.364V486.36V500.356C42.09 503.645 44.6624 506.311 47.8356 506.311C51.0089 506.311 53.5813 503.645 53.5813 500.356Z" stroke="#00CDF9" stroke-width="0.66"/>
<path d="M53.5813 500.356V472.364C53.5813 469.075 51.009 466.409 47.8358 466.409C44.6626 466.409 42.09 469.075 42.09 472.364V486.36V500.356C42.09 503.645 44.6624 506.311 47.8356 506.311C51.0089 506.311 53.5813 503.645 53.5813 500.356Z" stroke="#00CDF9" stroke-width="0.66"/>
<path d="M53.5813 500.356V472.364C53.5813 469.075 51.009 466.409 47.8358 466.409C44.6626 466.409 42.09 469.075 42.09 472.364V486.36V500.356C42.09 503.645 44.6624 506.311 47.8356 506.311C51.0089 506.311 53.5813 503.645 53.5813 500.356Z" stroke="#00CDF9" stroke-width="0.66"/>
<path d="M53.5813 352.549V324.557C53.5813 321.268 51.009 318.602 47.8358 318.602C44.6626 318.602 42.09 321.268 42.09 324.558V338.553V352.549C42.09 355.838 44.6624 358.504 47.8356 358.504C51.0089 358.504 53.5813 355.838 53.5813 352.549Z" stroke="#00CDF9" stroke-width="0.66"/>
<path d="M53.5813 352.549V324.557C53.5813 321.268 51.009 318.602 47.8358 318.602C44.6626 318.602 42.09 321.268 42.09 324.558V338.553V352.549C42.09 355.838 44.6624 358.504 47.8356 358.504C51.0089 358.504 53.5813 355.838 53.5813 352.549Z" stroke="#00CDF9" stroke-width="0.66"/>
<path d="M53.5813 352.549V324.557C53.5813 321.268 51.009 318.602 47.8358 318.602C44.6626 318.602 42.09 321.268 42.09 324.558V338.553V352.549C42.09 355.838 44.6624 358.504 47.8356 358.504C51.0089 358.504 53.5813 355.838 53.5813 352.549Z" stroke="#00CDF9" stroke-width="0.66"/>
<path d="M53.5813 352.549V324.557C53.5813 321.268 51.009 318.602 47.8358 318.602C44.6626 318.602 42.09 321.268 42.09 324.558V338.553V352.549C42.09 355.838 44.6624 358.504 47.8356 358.504C51.0089 358.504 53.5813 355.838 53.5813 352.549Z" stroke="#00CDF9" stroke-width="0.66"/>
<path d="M53.581 158.475V130.484C53.581 127.195 51.0087 124.529 47.8355 124.529C44.6623 124.529 42.0897 127.195 42.0897 130.484V144.48V158.475C42.0897 161.764 44.6622 164.431 47.8354 164.431C51.0086 164.431 53.581 161.764 53.581 158.475Z" stroke="#00CDF9" stroke-width="0.66"/>
<path d="M53.581 158.475V130.484C53.581 127.195 51.0087 124.529 47.8355 124.529C44.6623 124.529 42.0897 127.195 42.0897 130.484V144.48V158.475C42.0897 161.764 44.6622 164.431 47.8354 164.431C51.0086 164.431 53.581 161.764 53.581 158.475Z" stroke="#00CDF9" stroke-width="0.66"/>
<path d="M53.581 158.475V130.484C53.581 127.195 51.0087 124.529 47.8355 124.529C44.6623 124.529 42.0897 127.195 42.0897 130.484V144.48V158.475C42.0897 161.764 44.6622 164.431 47.8354 164.431C51.0086 164.431 53.581 161.764 53.581 158.475Z" stroke="#00CDF9" stroke-width="0.66"/>
<path d="M53.581 158.475V130.484C53.581 127.195 51.0087 124.529 47.8355 124.529C44.6623 124.529 42.0897 127.195 42.0897 130.484V144.48V158.475C42.0897 161.764 44.6622 164.431 47.8354 164.431C51.0086 164.431 53.581 161.764 53.581 158.475Z" stroke="#00CDF9" stroke-width="0.66"/>
<path d="M53.581 158.475V130.484C53.581 127.195 51.0087 124.529 47.8355 124.529C44.6623 124.529 42.0897 127.195 42.0897 130.484V144.48V158.475C42.0897 161.764 44.6622 164.431 47.8354 164.431C51.0086 164.431 53.581 161.764 53.581 158.475Z" stroke="#00CDF9" stroke-width="0.66"/>
<path d="M53.581 158.475V130.484C53.581 127.195 51.0087 124.529 47.8355 124.529C44.6623 124.529 42.0897 127.195 42.0897 130.484V144.48V158.475C42.0897 161.764 44.6622 164.431 47.8354 164.431C51.0086 164.431 53.581 161.764 53.581 158.475Z" stroke="#00CDF9" stroke-width="0.66"/>
<path d="M53.581 158.475V130.484C53.581 127.195 51.0087 124.529 47.8355 124.529C44.6623 124.529 42.0897 127.195 42.0897 130.484V144.48V158.475C42.0897 161.764 44.6622 164.431 47.8354 164.431C51.0086 164.431 53.581 161.764 53.581 158.475Z" stroke="#00CDF9" stroke-width="0.66"/>
<path d="M53.581 158.475V130.484C53.581 127.195 51.0087 124.529 47.8355 124.529C44.6623 124.529 42.0897 127.195 42.0897 130.484V144.48V158.475C42.0897 161.764 44.6622 164.431 47.8354 164.431C51.0086 164.431 53.581 161.764 53.581 158.475Z" stroke="#00CDF9" stroke-width="0.66"/>
<path d="M53.5812 224.294V196.303C53.5812 193.013 51.0089 190.347 47.8356 190.347C44.6624 190.347 42.0899 193.014 42.0899 196.303V210.298V224.294C42.0899 227.583 44.6623 230.25 47.8355 230.25C51.0087 230.25 53.5812 227.583 53.5812 224.294Z" stroke="#00CDF9" stroke-width="0.66"/>
<path d="M53.5812 224.294V196.303C53.5812 193.013 51.0089 190.347 47.8356 190.347C44.6624 190.347 42.0899 193.014 42.0899 196.303V210.298V224.294C42.0899 227.583 44.6623 230.25 47.8355 230.25C51.0087 230.25 53.5812 227.583 53.5812 224.294Z" stroke="#00CDF9" stroke-width="0.66"/>
<path d="M53.5812 224.294V196.303C53.5812 193.013 51.0089 190.347 47.8356 190.347C44.6624 190.347 42.0899 193.014 42.0899 196.303V210.298V224.294C42.0899 227.583 44.6623 230.25 47.8355 230.25C51.0087 230.25 53.5812 227.583 53.5812 224.294Z" stroke="#00CDF9" stroke-width="0.66"/>
<path d="M53.5812 224.294V196.303C53.5812 193.013 51.0089 190.347 47.8356 190.347C44.6624 190.347 42.0899 193.014 42.0899 196.303V210.298V224.294C42.0899 227.583 44.6623 230.25 47.8355 230.25C51.0087 230.25 53.5812 227.583 53.5812 224.294Z" stroke="#00CDF9" stroke-width="0.66"/>
<path d="M811.5 96.3143V68.3229C811.5 65.0337 808.928 62.3676 805.754 62.3676C802.581 62.3676 800.009 65.034 800.009 68.3232V82.3187V96.3143C800.009 99.6034 802.581 102.27 805.754 102.27C808.927 102.27 811.5 99.6034 811.5 96.3143Z" stroke="#00CDF9" stroke-width="0.66"/>
<path d="M811.5 96.3143V68.3229C811.5 65.0337 808.928 62.3676 805.754 62.3676C802.581 62.3676 800.009 65.034 800.009 68.3232V82.3187V96.3143C800.009 99.6034 802.581 102.27 805.754 102.27C808.927 102.27 811.5 99.6034 811.5 96.3143Z" stroke="#00CDF9" stroke-width="0.66"/>
<path d="M811.5 96.3143V68.3229C811.5 65.0337 808.928 62.3676 805.754 62.3676C802.581 62.3676 800.009 65.034 800.009 68.3232V82.3187V96.3143C800.009 99.6034 802.581 102.27 805.754 102.27C808.927 102.27 811.5 99.6034 811.5 96.3143Z" stroke="#00CDF9" stroke-width="0.66"/>
<path d="M811.5 96.3143V68.3229C811.5 65.0337 808.928 62.3676 805.754 62.3676C802.581 62.3676 800.009 65.034 800.009 68.3232V82.3187V96.3143C800.009 99.6034 802.581 102.27 805.754 102.27C808.927 102.27 811.5 99.6034 811.5 96.3143Z" stroke="#00CDF9" stroke-width="0.66"/>
<path d="M811.5 172.491V144.5C811.5 141.21 808.928 138.544 805.754 138.544C802.581 138.544 800.009 141.211 800.009 144.5V158.495V172.491C800.009 175.78 802.581 178.447 805.754 178.447C808.927 178.447 811.5 175.78 811.5 172.491Z" stroke="#00CDF9" stroke-width="0.66"/>
<path d="M811.5 172.491V144.5C811.5 141.21 808.928 138.544 805.754 138.544C802.581 138.544 800.009 141.211 800.009 144.5V158.495V172.491C800.009 175.78 802.581 178.447 805.754 178.447C808.927 178.447 811.5 175.78 811.5 172.491Z" stroke="#00CDF9" stroke-width="0.66"/>
<path d="M811.5 172.491V144.5C811.5 141.21 808.928 138.544 805.754 138.544C802.581 138.544 800.009 141.211 800.009 144.5V158.495V172.491C800.009 175.78 802.581 178.447 805.754 178.447C808.927 178.447 811.5 175.78 811.5 172.491Z" stroke="#00CDF9" stroke-width="0.66"/>
<path d="M811.5 172.491V144.5C811.5 141.21 808.928 138.544 805.754 138.544C802.581 138.544 800.009 141.211 800.009 144.5V158.495V172.491C800.009 175.78 802.581 178.447 805.754 178.447C808.927 178.447 811.5 175.78 811.5 172.491Z" stroke="#00CDF9" stroke-width="0.66"/>
<path d="M811.5 282.533V254.542C811.5 251.253 808.928 248.586 805.754 248.586C802.581 248.586 800.009 251.253 800.009 254.542V268.538V282.533C800.009 285.822 802.581 288.489 805.754 288.489C808.927 288.489 811.5 285.822 811.5 282.533Z" stroke="#00CDF9" stroke-width="0.66"/>
<path d="M811.5 282.533V254.542C811.5 251.253 808.928 248.586 805.754 248.586C802.581 248.586 800.009 251.253 800.009 254.542V268.538V282.533C800.009 285.822 802.581 288.489 805.754 288.489C808.927 288.489 811.5 285.822 811.5 282.533Z" stroke="#00CDF9" stroke-width="0.66"/>
<path d="M811.5 282.533V254.542C811.5 251.253 808.928 248.586 805.754 248.586C802.581 248.586 800.009 251.253 800.009 254.542V268.538V282.533C800.009 285.822 802.581 288.489 805.754 288.489C808.927 288.489 811.5 285.822 811.5 282.533Z" stroke="#00CDF9" stroke-width="0.66"/>
<path d="M811.5 282.533V254.542C811.5 251.253 808.928 248.586 805.754 248.586C802.581 248.586 800.009 251.253 800.009 254.542V268.538V282.533C800.009 285.822 802.581 288.489 805.754 288.489C808.927 288.489 811.5 285.822 811.5 282.533Z" stroke="#00CDF9" stroke-width="0.66"/>
<path d="M418.367 382.292V354.3C418.367 351.011 415.795 348.345 412.622 348.345C409.448 348.345 406.876 351.011 406.876 354.3V368.296V382.292C406.876 385.581 409.448 388.247 412.621 388.247C415.795 388.247 418.367 385.581 418.367 382.292Z" stroke="#00CDF9" stroke-width="0.66"/>
<path d="M418.367 382.292V354.3C418.367 351.011 415.795 348.345 412.622 348.345C409.448 348.345 406.876 351.011 406.876 354.3V368.296V382.292C406.876 385.581 409.448 388.247 412.621 388.247C415.795 388.247 418.367 385.581 418.367 382.292Z" stroke="#00CDF9" stroke-width="0.66"/>
<path d="M418.367 382.292V354.3C418.367 351.011 415.795 348.345 412.622 348.345C409.448 348.345 406.876 351.011 406.876 354.3V368.296V382.292C406.876 385.581 409.448 388.247 412.621 388.247C415.795 388.247 418.367 385.581 418.367 382.292Z" stroke="#00CDF9" stroke-width="0.66"/>
<path d="M418.367 382.292V354.3C418.367 351.011 415.795 348.345 412.622 348.345C409.448 348.345 406.876 351.011 406.876 354.3V368.296V382.292C406.876 385.581 409.448 388.247 412.621 388.247C415.795 388.247 418.367 385.581 418.367 382.292Z" stroke="#00CDF9" stroke-width="0.66"/>
<path d="M147.732 1223.7H174.736C177.91 1223.7 180.482 1221.04 180.482 1217.75C180.482 1214.46 177.91 1211.79 174.736 1211.79H147.732C144.559 1211.79 141.986 1214.46 141.986 1217.75C141.986 1221.04 144.559 1223.7 147.732 1223.7Z" stroke="#00CDF9" stroke-width="0.66"/>
<path d="M264.662 1223.7H291.666C294.84 1223.7 297.412 1221.04 297.412 1217.75C297.412 1214.46 294.84 1211.79 291.666 1211.79C281.121 1211.79 275.208 1211.79 264.662 1211.79C261.489 1211.79 258.916 1214.46 258.916 1217.75C258.916 1221.04 261.489 1223.7 264.662 1223.7Z" stroke="#00CDF9" stroke-width="0.66"/>
<path d="M379.117 1223.7H406.122C409.295 1223.7 411.868 1221.04 411.868 1217.75C411.868 1214.46 409.295 1211.79 406.122 1211.79H379.117C375.944 1211.79 373.372 1214.46 373.372 1217.75C373.372 1221.04 375.944 1223.7 379.117 1223.7Z" stroke="#00CDF9" stroke-width="0.66"/>
<path d="M471.382 1223.7H498.386C501.56 1223.7 504.132 1221.04 504.132 1217.75C504.132 1214.46 501.56 1211.79 498.386 1211.79H471.382C468.209 1211.79 465.636 1214.46 465.636 1217.75C465.636 1221.04 468.209 1223.7 471.382 1223.7Z" stroke="#00CDF9" stroke-width="0.66"/>
<path d="M549.838 1223.7H576.842C580.015 1223.7 582.588 1221.04 582.588 1217.75C582.588 1214.46 580.015 1211.79 576.842 1211.79H549.838C546.664 1211.79 544.092 1214.46 544.092 1217.75C544.092 1221.04 546.664 1223.7 549.838 1223.7Z" stroke="#00CDF9" stroke-width="0.66"/>
<path d="M654.946 1223.7H681.951C685.124 1223.7 687.696 1221.04 687.696 1217.75C687.696 1214.46 685.124 1211.79 681.951 1211.79H654.946C651.773 1211.79 649.201 1214.46 649.201 1217.75C649.201 1221.04 651.773 1223.7 654.946 1223.7Z" stroke="#00CDF9" stroke-width="0.66"/>
<path d="M733.402 1223.7H760.406C763.58 1223.7 766.152 1221.04 766.152 1217.75C766.152 1214.46 763.58 1211.79 760.406 1211.79H733.402C730.229 1211.79 727.656 1214.46 727.656 1217.75C727.656 1221.04 730.229 1223.7 733.402 1223.7Z" stroke="#00CDF9" stroke-width="0.66"/>
<path d="M858.222 1223.7H885.226C888.4 1223.7 890.972 1221.04 890.972 1217.75C890.972 1214.46 888.4 1211.79 885.226 1211.79H858.222C855.049 1211.79 852.476 1214.46 852.476 1217.75C852.476 1221.04 855.049 1223.7 858.222 1223.7Z" stroke="#00CDF9" stroke-width="0.66"/>
<path d="M501.313 964.703H528.318C531.491 964.703 534.063 962.036 534.063 958.747C534.063 955.458 531.491 952.792 528.318 952.792H501.313C498.14 952.792 495.567 955.458 495.567 958.747C495.567 962.036 498.14 964.703 501.313 964.703Z" stroke="#00CDF9" stroke-width="0.66"/>
<path d="M548.749 964.703H575.753C578.926 964.703 581.499 962.036 581.499 958.747C581.499 955.458 578.926 952.792 575.753 952.792H548.749C545.575 952.792 543.003 955.458 543.003 958.747C543.003 962.036 545.575 964.703 548.749 964.703Z" stroke="#00CDF9" stroke-width="0.66"/>
<path d="M63.3261 1176.3L82.7227 1195.28C85.0434 1197.45 88.7431 1197.25 90.9863 1194.85C93.2295 1192.44 93.1668 1188.74 90.8461 1186.57L71.4495 1167.59C69.1287 1165.43 65.4288 1165.62 63.1856 1168.03C60.9424 1170.44 61.0053 1174.14 63.3261 1176.3Z" stroke="#00CDF9" stroke-width="0.66"/>
<path d="M443.052 799.566L461.486 819.292C463.807 821.456 467.507 821.26 469.75 818.854C471.993 816.449 471.93 812.744 469.61 810.58L451.175 790.854C448.855 788.69 445.155 788.886 442.911 791.292C440.668 793.697 440.731 797.401 443.052 799.566Z" stroke="#00CDF9" stroke-width="0.66"/>
<path d="M585.486 382.292H612.491C615.664 382.292 618.236 379.625 618.236 376.336C618.236 373.047 615.664 370.38 612.491 370.38H585.486C582.313 370.38 579.741 373.047 579.741 376.336C579.741 379.625 582.313 382.292 585.486 382.292Z" stroke="#00CDF9" stroke-width="0.66"/>
<path d="M682.096 404.961H709.1C712.273 404.961 714.846 402.295 714.846 399.006C714.846 395.717 712.273 393.05 709.1 393.05H682.096C678.923 393.05 676.35 395.717 676.35 399.006C676.35 402.295 678.923 404.961 682.096 404.961Z" stroke="#00CDF9" stroke-width="0.66"/>
<path d="M742.211 404.961H769.216C772.389 404.961 774.961 402.295 774.961 399.006C774.961 395.717 772.389 393.05 769.216 393.05H742.211C739.038 393.05 736.466 395.717 736.466 399.006C736.466 402.295 739.038 404.961 742.211 404.961Z" stroke="#00CDF9" stroke-width="0.66"/>
</svg>
